<?xml version="1.0" encoding="UTF-8" standalone="no"?>
<svg width="477px" height="118px" viewBox="0 0 477 118" version="1.1" xmlns="http://www.w3.org/2000/svg" xmlns:xlink="http://www.w3.org/1999/xlink" xmlns:sketch="http://www.bohemiancoding.com/sketch/ns">
    <title>logo</title>
    <description>Created with Sketch (http://www.bohemiancoding.com/sketch)</description>
    <defs></defs>
    <g id="Page-1" stroke="none" stroke-width="1" fill="none" fill-rule="evenodd" sketch:type="MSPage">
        <g id="logo" sketch:type="MSLayerGroup" transform="translate(1.000000, 0.000000)">
            <g id="Page-1" sketch:type="MSShapeGroup">
                <g id="slider-kickerliga-logo-schwarz">
                    <path d="M2.017,24.211 C4.057,23.564 6.621,22.907 8.721,22.495 C6.486,23.067 4.252,23.639 2.017,24.211" id="Fill-1" fill="#F0C7B3"></path>
                    <path d="M37.654,15.098 C28.398,17.515 18.906,19.792 9.798,22.296 C9.729,22.312 9.721,22.224 9.692,22.173 C18.995,19.845 28.438,17.28 37.654,15.098" id="Fill-2" fill="#F0C7B3"></path>
                    <path d="M0.465,24.608 C0.304,25.25 0.069,25.85 -0.019,26.535 C-0.306,25.866 0.111,25.095 0.465,24.608" id="Fill-3" fill="#D7252D"></path>
                    <path d="M61.1,9.179 C70.349,6.638 79.983,4.326 89.38,1.873 C89.621,1.902 89.764,2.1 90.034,2.082 C83.978,4.12 78.021,6.217 72.704,8.693 C72.303,8.929 72.367,8.319 72.085,8.626 C70.411,9.349 68.735,10.073 67.169,10.86 C65.127,10.33 63.161,9.675 61.1,9.179" id="Fill-4" fill="#D7252D"></path>
                    <path d="M91.091,1.511 C91.347,1.183 91.73,1.507 91.992,1.506 C91.731,1.841 91.407,1.419 91.091,1.511" id="Fill-5" fill="#D7252D"></path>
                    <path d="M91.797,1.33 C92.544,1.014 93.813,0.689 94.62,0.609 C93.6,0.822 92.642,1.732 91.797,1.33" id="Fill-6" fill="#D7252D"></path>
                    <path d="M97.396,1.177 C97.511,1.023 98.139,0.863 98.313,0.943 C98.055,1.009 97.796,1.074 97.538,1.14 C97.49,1.153 97.443,1.164 97.396,1.177" id="Fill-7" fill="#F0C7B3"></path>
                    <path d="M95.739,1.751 C95.166,1.951 94.066,2.1 95.227,1.807 C95.585,1.6 96.136,1.507 96.62,1.375 C96.626,1.399 96.632,1.422 96.638,1.446 C96.591,1.458 96.544,1.47 96.497,1.481 C96.271,1.587 95.818,1.558 95.739,1.751" id="Fill-8" fill="#E5785E"></path>
                    <path d="M96.638,1.446 C96.632,1.423 96.625,1.399 96.62,1.375 C96.879,1.308 97.138,1.242 97.396,1.177 C97.444,1.164 97.49,1.153 97.538,1.14 C97.544,1.163 97.55,1.188 97.556,1.211 C97.25,1.288 96.944,1.367 96.638,1.446" id="Fill-9" fill="#D7252D"></path>
                    <path d="M97.556,1.211 C97.55,1.188 97.544,1.164 97.538,1.141 C97.796,1.074 98.056,1.008 98.313,0.942 C98.696,0.966 97.761,1.146 97.556,1.211" id="Fill-10" fill="#E5785E"></path>
                    <path d="M95.739,1.751 C95.818,1.558 96.271,1.587 96.497,1.481 C96.418,1.674 95.965,1.645 95.739,1.751" id="Fill-11" fill="#F0C7B3"></path>
                    <path d="M92.017,2.778 C91.283,3.191 91.062,2.928 92.017,2.778" id="Fill-12" fill="#E5785E"></path>
                    <path d="M98.972,1.751 C98.978,1.774 98.984,1.797 98.99,1.821 C98.624,1.866 98.121,2.142 97.843,2.04 C98.219,1.943 98.596,1.847 98.972,1.751" id="Fill-13" fill="#F0C7B3"></path>
                    <path d="M98.99,1.822 C98.984,1.798 98.978,1.775 98.972,1.752 C99.22,1.735 99.604,1.492 99.766,1.623 C99.508,1.69 99.249,1.756 98.99,1.822" id="Fill-14" fill="#E5785E"></path>
                    <path d="M95.985,4.771 C96.215,4.586 96.964,4.395 97.255,4.445 C96.831,4.554 96.408,4.662 95.985,4.771" id="Fill-15" fill="#E5785E"></path>
                    <path d="M98.384,4.157 C98.837,3.866 99.672,3.803 100.271,3.598 C100.319,3.786 100.368,3.975 100.415,4.163 C100.274,4.199 100.134,4.236 99.992,4.271 C99.757,4.331 99.522,4.392 99.286,4.452 C98.945,4.424 98.739,4.164 98.384,4.157" id="Fill-16" fill="#D7252D"></path>
                    <path d="M97.207,5.435 C96.477,5.355 95.829,5.133 95.084,5.075 C95.21,4.87 95.711,4.888 95.984,4.771 C96.408,4.662 96.832,4.554 97.254,4.445 C97.95,4.552 98.553,4.814 99.307,4.823 C99.11,5.047 98.538,5.046 98.194,5.183 C97.867,5.267 97.536,5.351 97.207,5.435" id="Fill-17" fill="#D7252D"></path>
                    <path d="M99.745,4.485 C99.605,4.452 99.387,4.551 99.286,4.452 C99.521,4.392 99.756,4.332 99.992,4.272 C100.002,4.378 99.787,4.35 99.816,4.467 C99.792,4.473 99.768,4.479 99.745,4.485" id="Fill-18" fill="#E5785E"></path>
                    <path d="M99.745,4.485 C99.768,4.479 99.792,4.473 99.816,4.467 C99.957,4.431 100.099,4.395 100.24,4.359 C100.311,4.34 100.381,4.322 100.451,4.304 C100.704,4.754 100.015,4.644 99.748,4.785 C99.786,4.709 99.782,4.607 99.745,4.485" id="Fill-19" fill="#D7252D"></path>
                    <path d="M99.306,4.823 C99.904,4.938 98.544,5.125 98.213,5.253 C98.207,5.229 98.201,5.206 98.195,5.182 C98.537,5.046 99.111,5.047 99.306,4.823" id="Fill-20" fill="#F0C7B3"></path>
                    <path d="M98.213,5.253 C97.894,5.286 97.439,5.549 97.207,5.435 C97.536,5.351 97.866,5.266 98.195,5.182 C98.201,5.206 98.207,5.229 98.213,5.253" id="Fill-21" fill="#E5785E"></path>
                    <path d="M94.35,6.316 C94.452,6.116 94.929,6.141 95.178,6.029 C95.077,6.228 94.6,6.205 94.35,6.316" id="Fill-22" fill="#E5785E"></path>
                    <path d="M64.736,15.166 C64.713,15.172 64.689,15.178 64.665,15.184 C66.31,14.39 68.172,13.128 69.918,12.789 C68.598,13.543 67.091,14.187 65.724,14.913 C65.395,14.997 65.066,15.082 64.736,15.166" id="Fill-23" fill="#D7252D"></path>
                    <path d="M94.883,6.931 C95.313,6.646 96.123,6.59 96.7,6.391 C96.27,6.677 95.46,6.735 94.883,6.931" id="Fill-24" fill="#E5785E"></path>
                    <path d="M100.993,6.422 C100.326,6.233 99.674,6.02 98.976,5.885 C98.966,5.8 99.09,5.793 99.17,5.76 C99.589,5.826 100.234,5.513 100.741,5.434 C100.824,5.762 100.909,6.092 100.993,6.422" id="Fill-25" fill="#D7252D"></path>
                    <path d="M92.996,7.489 C93.075,7.297 93.527,7.325 93.754,7.22 C93.674,7.412 93.222,7.384 92.996,7.489" id="Fill-26" fill="#E5785E"></path>
                    <path d="M65.724,14.913 C65.586,15.074 64.934,15.241 64.736,15.166 C65.065,15.082 65.395,14.997 65.724,14.913" id="Fill-27" fill="#E5785E"></path>
                    <path d="M98.511,8.183 C98.683,7.967 99.232,7.973 99.552,7.844 C99.379,8.06 98.83,8.053 98.511,8.183" id="Fill-28" fill="#E5785E"></path>
                    <path d="M96.906,8.669 C96.963,8.483 97.39,8.518 97.594,8.419 C97.537,8.604 97.109,8.57 96.906,8.669" id="Fill-29" fill="#E5785E"></path>
                    <path d="M99.097,8.711 C99.703,8.431 100.83,8.142 101.496,8.097 C101.473,8.103 101.449,8.109 101.426,8.115 C100.65,8.314 99.873,8.512 99.097,8.711" id="Fill-30" fill="#F0C7B3"></path>
                    <path d="M96.927,9.341 C97.146,9.111 97.743,9.106 98.109,8.964 C97.891,9.194 97.293,9.198 96.927,9.341" id="Fill-31" fill="#E5785E"></path>
                    <path d="M95.323,9.826 C95.379,9.639 95.807,9.675 96.011,9.575 C95.953,9.761 95.525,9.727 95.323,9.826" id="Fill-32" fill="#E5785E"></path>
                    <path d="M97.672,9.902 C98.031,9.635 98.771,9.596 99.277,9.417 C99.283,9.44 99.29,9.463 99.295,9.487 C98.754,9.625 98.213,9.764 97.672,9.902" id="Fill-33" fill="#E5785E"></path>
                    <path d="M99.295,9.488 C99.29,9.464 99.283,9.441 99.277,9.417 C100.006,9.231 100.735,9.044 101.465,8.857 C101.471,8.881 101.478,8.905 101.483,8.928 C100.753,9.114 100.024,9.301 99.295,9.488" id="Fill-34" fill="#F0C7B3"></path>
                    <path d="M95.926,10.424 C95.982,10.238 96.41,10.272 96.614,10.173 C96.556,10.359 96.13,10.324 95.926,10.424" id="Fill-35" fill="#E5785E"></path>
                    <path d="M93.21,11.268 C93.242,11.348 93.341,11.316 93.439,11.285 C93.178,11.566 91.475,11.768 92.734,11.465 C92.895,11.4 92.97,11.286 93.21,11.268" id="Fill-36" fill="#E5785E"></path>
                    <path d="M94.428,11.033 C94.4,10.975 94.438,10.958 94.48,10.944 C95.046,10.8 95.61,10.656 96.175,10.512 C95.769,10.789 94.981,10.842 94.428,11.033" id="Fill-37" fill="#E5785E"></path>
                    <path d="M98.15,10.006 C98.727,9.908 99.442,9.575 99.932,9.626 C99.355,9.723 98.64,10.054 98.15,10.006" id="Fill-38" fill="#E5785E"></path>
                    <path d="M3.104,39.044 C3.038,38.785 2.972,38.525 2.905,38.268 C7.149,39.691 11.306,41.267 15.752,42.351 C15.516,42.628 15.228,42.878 14.891,43.097 C11.647,41.935 8.352,40.865 5.034,39.828 C4.689,39.456 3.75,39.241 3.104,39.044" id="Fill-39" fill="#D7252D"></path>
                    <path d="M56.784,24.642 C57.09,24.365 57.469,24.83 57.863,24.742 C57.66,25.111 57.159,24.614 56.784,24.642" id="Fill-40" fill="#D7252D"></path>
                    <path d="M57.035,25.329 C55.977,26.26 54.899,27.178 53.391,27.84 C53.891,26.72 55.18,26.065 56.009,25.141 C56.454,25.031 56.622,25.387 57.035,25.329" id="Fill-41" fill="#D7252D"></path>
                    <path d="M20.488,42.643 C20.897,41.988 21.69,41.559 22.246,40.991 C22.381,40.754 22.481,41.022 22.688,40.954 C25.737,38.59 28.625,36.131 31.854,33.873 C28.723,37.067 24.553,39.645 21.266,42.744 C20.99,42.739 20.773,42.635 20.488,42.643" id="Fill-42" fill="#D7252D"></path>
                    <path d="M6.811,41.78 C9.327,42.418 11.752,43.206 14.521,43.417 C12.744,45.056 10.986,46.709 9.07,48.269 C8.951,48.018 9.301,48.045 9.264,47.843 C8.179,48.818 7.148,49.824 6.206,50.881 C5.41,48.453 4.84,45.642 4.131,43.067 C4.955,42.334 5.747,42.815 6.779,42.54 C7.028,42.427 6.893,42.088 6.811,41.78" id="Fill-43" fill="#D7252D"></path>
                    <path d="M10.699,42.289 C11.904,42.446 13.485,42.842 14.662,43.381 C13.268,43.141 12.051,42.603 10.699,42.289" id="Fill-44" fill="#D7252D"></path>
                    <path d="M35.112,38.678 C35.959,37.643 36.661,36.204 37.675,35.467 C37.842,35.536 37.451,36.01 37.272,36.247 C36.665,37.048 35.903,38.036 35.396,38.907 C35.062,39.387 34.763,39.889 34.504,40.413 C32.255,44.747 30.333,49.277 31.298,55.517 C31.161,55.855 31.637,56.556 31.5,56.894 C31.432,56.537 31.323,56.249 31.195,55.994 C31.087,55.571 30.978,55.147 30.87,54.724 C29.917,48.95 31.809,44.864 33.781,40.823 C34.227,40.109 34.696,39.408 35.112,38.678" id="Fill-45" fill="#D7252D"></path>
                    <path d="M17.91,42.852 C17.69,43.199 17.186,43.38 17.014,43.756 C16.502,43.644 16.049,43.432 15.545,43.305 C16.054,42.368 17.067,42.588 17.91,42.852" id="Fill-46" fill="#D7252D"></path>
                    <path d="M16.768,43.97 C16.206,43.976 15.48,43.72 15.229,43.536 C15.643,43.461 16.375,43.679 16.768,43.97" id="Fill-47" fill="#D7252D"></path>
                    <path d="M18.553,44.191 C18.96,43.912 19.263,43.573 19.591,43.248 C19.893,43.208 20.065,43.39 20.368,43.35 C20.047,43.8 19.553,44.145 19.084,44.505 C18.944,44.34 18.625,44.472 18.553,44.191" id="Fill-48" fill="#D7252D"></path>
                    <path d="M19.033,44.594 C18.862,44.758 18.436,44.632 18.307,44.404 C18.378,44.385 18.448,44.366 18.519,44.349 C18.664,44.444 18.836,44.489 19.014,44.523 C19.021,44.547 19.027,44.57 19.033,44.594" id="Fill-49" fill="#D7252D"></path>
                    <path d="M22.013,43.607 C21.376,44.05 20.721,45.228 19.883,44.978 C20.507,44.51 21.075,43.503 22.013,43.607" id="Fill-50" fill="#D7252D"></path>
                    <path d="M105.161,22.722 C105.314,22.838 105.475,23.466 105.395,23.64 C105.316,23.334 105.239,23.029 105.161,22.722" id="Fill-51" fill="#E5785E"></path>
                    <path d="M105.72,24.91 C107.076,29.725 108.442,35.064 109.563,39.941 C108.282,34.931 107,29.921 105.72,24.91" id="Fill-52" fill="#E5785E"></path>
                    <path d="M30.87,54.724 C30.978,55.147 31.086,55.571 31.195,55.994 C31.011,55.763 30.819,55.015 30.87,54.724" id="Fill-53" fill="#F0C7B3"></path>
                    <path d="M42.267,51.96 C42.339,52.242 42.412,52.526 42.484,52.807 C42.335,52.716 42.181,52.112 42.267,51.96" id="Fill-54" fill="#F0C7B3"></path>
                    <path d="M110.393,43.188 C110.625,43.605 110.865,44.544 110.862,45.022 C110.705,44.41 110.549,43.8 110.393,43.188" id="Fill-55" fill="#E5785E"></path>
                    <path d="M73.659,61.826 C85.962,57.904 98.402,53.776 109.665,49.162 C110.347,48.883 110.988,48.468 111.728,48.409 C111.564,48.905 110.941,48.927 110.548,49.088 C104.136,51.701 96.771,54.314 89.778,56.653 C89.55,56.753 90.006,56.707 90.008,56.669 C89.999,56.847 88.262,57.428 87.699,57.636 C82.364,59.598 75.961,61.823 70.47,63.468 C70.267,63.568 69.84,63.533 69.783,63.72 C69.548,63.78 69.312,63.84 69.077,63.901 C68.874,63.999 68.446,63.966 68.389,64.153 C68.154,64.211 67.919,64.272 67.683,64.332 C67.481,64.431 67.053,64.397 66.996,64.582 C66.738,64.65 66.478,64.715 66.22,64.781 C66.016,64.88 65.589,64.848 65.532,65.032 C65.273,65.098 65.014,65.164 64.756,65.232 C64.553,65.33 64.125,65.295 64.069,65.482 C63.81,65.548 63.552,65.615 63.293,65.681 C63.089,65.78 62.661,65.745 62.604,65.931 C62.346,65.997 62.087,66.064 61.828,66.129 C61.625,66.23 61.197,66.195 61.14,66.381 C60.881,66.447 60.623,66.514 60.364,66.579 C60.138,66.685 59.685,66.656 59.606,66.848 C59.371,66.909 59.136,66.968 58.901,67.029 C58.675,67.135 58.222,67.105 58.142,67.297 C57.649,67.354 56.932,67.791 56.677,67.447 C62.188,65.438 67.563,63.923 73.042,62.06 C73.627,62.241 72.858,62.136 73.536,61.934 C73.617,61.909 73.661,61.898 73.659,61.826" id="Fill-56" fill="#D7252D"></path>
                    <path d="M69.783,63.72 C69.84,63.533 70.267,63.568 70.47,63.468 C70.414,63.655 69.986,63.621 69.783,63.72" id="Fill-57" fill="#E5785E"></path>
                    <path d="M68.39,64.153 C68.447,63.965 68.874,63.999 69.078,63.901 C69.02,64.086 68.593,64.053 68.39,64.153" id="Fill-58" fill="#E5785E"></path>
                    <path d="M66.996,64.582 C67.053,64.396 67.481,64.431 67.684,64.332 C67.627,64.518 67.199,64.484 66.996,64.582" id="Fill-59" fill="#E5785E"></path>
                    <path d="M65.532,65.032 C65.589,64.847 66.016,64.88 66.22,64.781 C66.163,64.967 65.735,64.933 65.532,65.032" id="Fill-60" fill="#E5785E"></path>
                    <path d="M64.069,65.482 C64.126,65.294 64.553,65.33 64.756,65.232 C64.7,65.418 64.272,65.383 64.069,65.482" id="Fill-61" fill="#E5785E"></path>
                    <path d="M62.604,65.931 C62.662,65.745 63.089,65.78 63.292,65.681 C63.235,65.866 62.808,65.832 62.604,65.931" id="Fill-62" fill="#E5785E"></path>
                    <path d="M61.141,66.381 C61.198,66.195 61.625,66.23 61.829,66.129 C61.771,66.316 61.344,66.281 61.141,66.381" id="Fill-63" fill="#E5785E"></path>
                    <path d="M59.606,66.848 C59.686,66.656 60.138,66.685 60.364,66.579 C60.285,66.772 59.833,66.744 59.606,66.848" id="Fill-64" fill="#E5785E"></path>
                    <path d="M58.143,67.297 C58.223,67.105 58.675,67.135 58.9,67.029 C58.821,67.221 58.369,67.194 58.143,67.297" id="Fill-65" fill="#E5785E"></path>
                    <path d="M33.506,75.326 C33.994,75.295 34.599,74.686 34.831,75.212 C30.201,77.059 25.512,78.87 20.992,80.781 C20.503,81.031 19.86,81.187 19.442,81.478 C18.915,81.625 18.481,81.827 18.085,82.05 C16.808,82.451 15.66,83.247 14.471,83.5 C14.204,83.065 14.775,83.122 14.927,82.933 C15.378,82.781 15.726,82.57 16.143,82.397 C20.36,80.466 24.775,78.653 29.328,76.92 C30.704,76.379 32.147,75.878 33.506,75.326" id="Fill-66" fill="#D7252D"></path>
                    <path d="M86.646,62.34 C86.566,62.533 86.114,62.504 85.888,62.609 C86.019,62.447 86.264,62.353 86.558,62.288 C86.572,62.329 86.589,62.368 86.646,62.34" id="Fill-67" fill="#E5785E"></path>
                    <path d="M87.352,62.16 C87.409,61.974 87.836,62.008 88.04,61.909 C87.983,62.097 87.555,62.062 87.352,62.16" id="Fill-68" fill="#E5785E"></path>
                    <path d="M107.101,58.538 C107.563,58.034 107.886,58.33 107.101,58.538" id="Fill-69" fill="#F0C7B3"></path>
                    <path d="M21.081,80.833 C21.673,80.616 22.345,80.491 22.899,80.594 C20.744,82.329 17.579,83.467 14.814,84.843 C14.723,84.49 14.633,84.137 14.543,83.783 C15.844,83.238 17.076,82.65 18.314,82.068 C18.774,81.902 19.163,81.692 19.601,81.512 C20.077,81.276 20.651,81.097 21.081,80.833" id="Fill-70" fill="#D7252D"></path>
                    <path d="M66.094,74.287 C65.832,74.224 65.692,73.955 65.455,73.848 C81.719,68.341 98.629,63.216 113.788,57.055 C114.101,56.984 114.035,57.555 113.844,57.566 C99.495,62.951 84.157,67.751 69.691,73.066 C69.205,73.138 68.935,73.336 68.51,73.442 C67.725,73.737 66.902,74.007 66.094,74.287" id="Fill-71" fill="#D7252D"></path>
                    <path d="M99.219,61.231 C99.468,61.215 99.851,60.973 100.013,61.103 C99.764,61.118 99.381,61.362 99.219,61.231" id="Fill-72" fill="#E5785E"></path>
                    <path d="M70.203,73.01 C85.232,68.207 100.232,63.388 113.987,57.83 C114.241,57.715 114.245,58.291 114.202,58.377 C100.032,63.759 83.834,68.679 69.007,73.917 C68.516,74.091 66.467,75.121 66.201,74.408 C66.882,73.975 68.039,73.823 68.81,73.442 C69.316,73.324 69.81,73.198 70.203,73.01" id="Fill-73" fill="#D7252D"></path>
                    <path d="M114.099,58.855 C114.649,58.289 114.724,60.32 114.993,60.882 C115.197,61.682 115.401,62.481 115.605,63.282 C116.009,64.857 116.412,66.433 116.814,68.009 C117.562,71.126 118.544,74.383 119.144,77.412 C117.841,72.317 116.336,66.432 114.976,61.112 C114.771,60.311 114.538,58.626 114.099,58.855" id="Fill-74" fill="#E5785E"></path>
                    <path d="M34.127,85.693 C32.342,86.251 30.741,86.917 29.031,87.522 C32.819,85.448 37.785,83.456 42.426,81.692 C42.968,81.485 43.815,81.115 43.982,81.895 C41.383,82.788 38.897,83.749 36.524,84.779 C35.704,85.072 34.866,85.352 34.127,85.693" id="Fill-75" fill="#D7252D"></path>
                    <path d="M36.684,84.813 C38.59,84.083 40.823,83.376 42.96,82.607 C43.534,82.401 44.313,81.79 44.78,82.367 C39.718,84.058 34.687,86.083 29.916,87.746 C31.185,86.943 32.887,86.395 34.356,85.708 C35.08,85.379 35.886,85.098 36.684,84.813" id="Fill-76" fill="#D7252D"></path>
                    <path d="M28.559,88.32 C28.343,88.571 27.885,88.677 27.483,88.82 C27.773,88.612 28.121,88.439 28.559,88.32" id="Fill-77" fill="#D7252D"></path>
                    <path d="M55.905,88.243 C57.329,89.478 58.552,91.05 59.639,92.853 C58.375,91.349 57.136,89.801 55.905,88.243" id="Fill-78" fill="#D7252D"></path>
                    <path d="M38.546,112.68 C32.824,113.882 27.565,114.304 22.409,114.551 C21.218,109.893 20.027,105.236 18.837,100.579 C29.233,103.073 39.697,105.991 49.358,109.389 C47.945,110.029 46.395,110.586 44.756,111.092 C44.529,111.198 44.078,111.17 43.999,111.362 C43.811,111.409 43.622,111.457 43.434,111.506 C43.128,111.584 42.821,111.662 42.517,111.741 C41.999,111.873 41.481,112.004 40.963,112.137 C40.634,112.222 40.305,112.306 39.977,112.39 C39.788,112.439 39.6,112.486 39.412,112.534 C39.227,112.409 38.817,112.659 38.546,112.68" id="Fill-79" fill="#D7252D"></path>
                    <path d="M61.014,95.583 C60.703,94.424 60.123,93.72 59.639,92.853 C60.527,93.914 61.638,94.598 62.166,96.266 C62.25,96.594 62.334,96.924 62.419,97.253 C62.55,98.11 62.547,98.886 62.413,99.585 C62.15,99.558 61.941,99.44 61.688,99.396 C61.585,98.755 61.725,98.259 61.519,97.559 C61.511,97.033 61.258,96.048 61.014,95.583" id="Fill-80" fill="#D7252D"></path>
                    <path d="M119.198,77.624 C120.579,82.534 121.968,87.966 123.114,92.937 C121.808,87.833 120.503,82.728 119.198,77.624" id="Fill-81" fill="#E5785E"></path>
                    <path d="M77.481,89.418 C77.695,89.765 77.917,90.632 77.896,91.04 C77.757,90.501 77.62,89.959 77.481,89.418" id="Fill-82" fill="#E5785E"></path>
                    <path d="M62.167,96.266 C62.327,96.404 62.494,97.057 62.418,97.253 C62.333,96.924 62.25,96.594 62.167,96.266" id="Fill-83" fill="#E5785E"></path>
                    <path d="M60.985,103.409 C59.016,106.034 56.241,108.5 52.487,109.867 C56.757,107.25 61.05,104.646 61.567,99.802 C61.87,99.764 62.042,99.944 62.344,99.905 C62.262,100.755 61.907,101.442 61.65,102.187 C61.397,102.576 61.208,103.002 60.985,103.409" id="Fill-84" fill="#D7252D"></path>
                    <path d="M39.411,112.534 C39.139,112.556 38.732,112.806 38.546,112.681 C38.818,112.658 39.226,112.409 39.411,112.534" id="Fill-85" fill="#E5785E"></path>
                    <path d="M43.998,111.362 C44.078,111.17 44.53,111.198 44.756,111.091 C44.677,111.283 44.224,111.256 43.998,111.362" id="Fill-86" fill="#E5785E"></path>
                    <path d="M39.976,112.39 C40.305,112.306 40.634,112.222 40.964,112.137 C40.97,112.16 40.976,112.185 40.981,112.209 C40.663,112.241 40.207,112.504 39.976,112.39" id="Fill-87" fill="#F0C7B3"></path>
                    <path d="M40.981,112.209 C40.976,112.185 40.969,112.161 40.963,112.137 C41.481,112.004 41.999,111.873 42.517,111.741 C42.522,111.764 42.528,111.787 42.534,111.811 C42.017,111.944 41.5,112.075 40.981,112.209" id="Fill-88" fill="#E5785E"></path>
                    <path d="M42.534,111.811 C42.528,111.787 42.522,111.764 42.516,111.741 C42.822,111.662 43.128,111.583 43.433,111.506 C43.307,111.71 42.807,111.694 42.534,111.811" id="Fill-89" fill="#F0C7B3"></path>
                    <path d="M80.244,107.281 C81.935,107.828 83.637,108.359 85.376,108.826 C79.414,110.487 72.49,112.196 66.129,113.823 C64.52,114.235 63.188,114.778 62.174,114.233 C67.246,111.153 71.775,107.75 74.925,103.529 C77.017,104.301 79.219,104.47 81.327,105.051 C82.643,105.41 83.945,106.057 85.24,106.532 C86.553,107.011 87.855,107.468 89.186,107.851 C88.119,108.115 87.126,108.658 86.17,108.699 C85.262,108.738 84.147,108.101 83.25,107.866 C82.19,107.588 81.252,107.427 80.297,107.193 C80.123,107.048 79.815,107.128 79.642,106.985 C79.566,107.152 80.086,107.173 80.244,107.281" id="Fill-90" fill="#D7252D"></path>
                    <path d="M34.394,115.848 C31.126,116.558 27.486,117.025 24.314,117.296 C23.938,117.329 23.41,117.563 23.095,117.233 C23.025,116.862 23.518,117.033 23.642,117.017 C27.444,116.566 31.79,116.241 36.034,115.202 C36.195,115.333 36.579,115.09 36.828,115.075 C37.181,114.984 37.534,114.894 37.887,114.804 C39.234,114.585 41.045,114.121 42.332,113.667 C42.662,113.583 42.991,113.498 43.32,113.414 C43.523,113.316 43.951,113.35 44.007,113.162 C45.574,112.755 46.922,112.216 48.292,111.692 C48.41,111.661 48.528,111.631 48.645,111.602 C48.655,111.706 48.441,111.68 48.47,111.797 C46.659,112.36 45.006,113.018 43.57,113.802 C42.915,113.793 42.035,114.169 41.293,114.309 C40.964,114.392 40.635,114.477 40.305,114.561 C40.023,114.634 39.74,114.704 39.458,114.778 C39.086,114.7 38.489,114.999 38.029,115.068 C37.652,115.163 37.276,115.259 36.9,115.358 C36.692,115.237 36.26,115.493 35.964,115.521 C35.682,115.592 35.4,115.665 35.117,115.737 C34.978,115.6 34.62,115.837 34.394,115.848" id="Fill-91" fill="#D7252D"></path>
                    <path d="M51.977,110.223 C51.233,110.649 50.13,111.153 49.332,111.351 C50.089,110.932 51.068,110.356 51.977,110.223" id="Fill-92" fill="#D7252D"></path>
                    <path d="M36.034,115.202 C36.283,115.186 36.665,114.944 36.828,115.074 C36.579,115.09 36.196,115.333 36.034,115.202" id="Fill-93" fill="#E5785E"></path>
                    <path d="M43.32,113.414 C43.377,113.229 43.805,113.262 44.008,113.162 C43.951,113.351 43.523,113.316 43.32,113.414" id="Fill-94" fill="#E5785E"></path>
                    <path d="M37.887,114.804 C39.369,114.425 40.85,114.046 42.333,113.667 C41.045,114.121 39.234,114.585 37.887,114.804" id="Fill-95" fill="#E5785E"></path>
                    <path d="M35.117,115.737 C34.891,115.747 34.533,115.983 34.394,115.848 C34.619,115.837 34.978,115.6 35.117,115.737" id="Fill-96" fill="#E5785E"></path>
                    <path d="M36.9,115.358 C36.605,115.384 36.173,115.64 35.964,115.521 C36.26,115.492 36.692,115.237 36.9,115.358" id="Fill-97" fill="#E5785E"></path>
                    <path d="M39.458,114.778 C38.999,114.845 38.401,115.147 38.029,115.068 C38.489,114.999 39.086,114.699 39.458,114.778" id="Fill-98" fill="#E5785E"></path>
                    <path d="M40.305,114.561 C40.635,114.477 40.964,114.392 41.293,114.309 C41.299,114.331 41.305,114.355 41.311,114.379 C40.992,114.412 40.536,114.675 40.305,114.561" id="Fill-99" fill="#F0C7B3"></path>
                    <path d="M41.312,114.379 C41.306,114.355 41.298,114.332 41.292,114.309 C42.035,114.169 42.916,113.793 43.569,113.802 C42.816,113.994 42.063,114.186 41.312,114.379" id="Fill-100" fill="#E5785E"></path>
                    <path d="M62.583,114.655 C61.895,115.005 60.825,115.129 59.989,115.393 C60.825,114.856 61.678,114.245 62.583,114.655" id="Fill-101" fill="#D7252D"></path>
                    <path d="M46.467,21.34 C46.297,21.537 46.118,21.27 45.989,21.237 C45.601,21.137 45.058,21.014 45.423,21.081 C45.594,21.112 45.997,21.219 46.467,21.34" id="Fill-102" fill="#E5785E"></path>
                    <path d="M22.309,26.24 C19.884,25.556 17.506,24.752 15.231,24.139 C19.787,25.784 24.553,27.909 29.561,28.143 C27.236,27.311 24.736,26.924 22.309,26.24 M42.992,15.689 C43.615,15.79 44.308,16.285 44.849,16.191 C44.976,16.086 44.933,15.881 44.864,15.66 C44.262,15.699 43.441,15.572 42.992,15.689 M41.62,20.024 C41.851,20.068 42.529,20.334 42.486,20.178 C42.219,20.154 41.785,19.884 41.62,20.024 M26.642,33.778 C23.084,36.279 19.795,38.939 16.632,41.675 C11.799,40.401 7.216,38.706 2.599,37.068 C2.237,35.656 1.896,34.321 1.552,32.974 C1.216,31.66 0.589,30.254 0.523,28.953 C0.49,28.287 0.934,27.343 1.129,26.618 C1.351,25.797 1.611,25.049 1.753,24.353 C1.908,24.345 1.927,24.258 2.017,24.212 C4.252,23.638 6.486,23.068 8.721,22.495 C10.313,23.01 12.022,23.324 13.744,23.617 C12.728,23.075 11.143,22.619 9.797,22.297 C18.906,19.792 28.398,17.515 37.654,15.097 C39.29,15.774 41.092,16.165 43.013,16.36 C41.726,15.87 39.906,15.407 38.378,14.989 C45.063,13.104 52.132,11.447 58.965,9.65 C61.126,10.28 63.248,10.975 65.458,11.523 C60.383,14.074 54.541,17.113 49.693,20.139 C49.085,20.52 48.107,21.319 47.616,21.423 C46.678,21.621 45.097,20.528 44.166,20.575 C43.662,20.45 43.167,20.308 42.645,20.213 C42.669,20.478 43.719,20.419 43.743,20.683 C42.414,20.746 41.366,19.97 40.239,19.625 C36.692,18.538 32.791,18.436 29.204,17.335 C31.669,18.667 34.747,19.054 37.662,19.832 C40.552,20.604 43.472,21.437 46.242,22.224 C41.1,25.843 35.435,29.151 30.559,32.926 C28.809,32.645 27.15,32.213 25.413,31.911 C25.262,31.797 25.028,31.82 24.847,31.756 C24.797,31.88 25.295,31.937 25.449,32.053 C26.838,32.605 28.239,33.136 29.837,33.337 C26.108,36.275 22.199,39.108 18.719,42.194 C18.149,42.212 17.749,41.943 17.216,41.902 C20.215,39.11 23.532,36.505 26.731,33.83 C26.977,33.616 27.222,33.404 27.469,33.19 C27.285,33.202 26.827,33.567 26.642,33.778" id="Fill-103" fill="#D7252D"></path>
                    <path d="M42.486,20.178 C42.529,20.333 41.851,20.068 41.62,20.024 C41.785,19.884 42.219,20.154 42.486,20.178" id="Fill-104" fill="#E5785E"></path>
                    <path d="M25.449,32.052 C25.295,31.937 24.797,31.879 24.846,31.755 C25.028,31.82 25.261,31.796 25.412,31.911 C25.318,31.968 25.436,31.971 25.449,32.052" id="Fill-105" fill="#E5785E"></path>
                    <path d="M26.642,33.778 C26.828,33.567 27.285,33.202 27.469,33.19 C27.223,33.404 26.977,33.616 26.73,33.83 C26.728,33.766 26.686,33.771 26.642,33.778" id="Fill-106" fill="#E5785E"></path>
                    <path d="M84.051,6.618 C81.837,7.594 79.556,8.41 77.388,9.374 C75.235,10.333 73.202,11.445 71.026,12.129 C75.037,10.096 79.463,8.308 84.051,6.618" id="Fill-107" fill="#D7252D"></path>
                    <path d="M93.197,5.634 C93.167,5.475 93.489,5.527 93.604,5.454 C93.617,5.562 93.449,5.563 93.339,5.596 C94.319,6.01 93.656,5.856 93.197,5.634" id="Fill-108" fill="#E5785E"></path>
                    <path d="M93.604,5.454 C94.709,5.069 95.194,5.732 96.079,5.724 C95.953,5.929 95.451,5.911 95.178,6.029 C94.929,6.141 94.452,6.117 94.35,6.315 C87.495,8.32 81.448,10.803 75.733,13.481 C75.441,13.602 75.387,13.325 75.114,13.414 C75.209,13.522 75.395,13.48 75.521,13.536 C74.779,13.945 74.151,13.287 73.487,13.228 C73.627,12.968 73.973,13.212 74.16,13.207 C74.473,13.25 74.729,13.39 75.043,13.432 C75.049,13.25 74.481,13.172 74.211,13.119 C74.159,13.039 74.084,12.997 73.963,13.032 C80.008,10.348 86.558,7.963 93.197,5.634 C93.656,5.855 94.319,6.011 93.338,5.597 C93.45,5.562 93.618,5.561 93.604,5.454" id="Fill-109" fill="#D7252D"></path>
                    <path d="M44.573,40.394 C44.763,39.988 44.991,39.605 45.256,39.242 C45.065,39.649 44.837,40.033 44.573,40.394" id="Fill-110" fill="#E5785E"></path>
                    <path d="M110.882,45.393 C111.132,45.394 111.431,46.639 111.171,46.523 C111.241,46.265 111.043,45.596 110.882,45.393" id="Fill-111" fill="#E5785E"></path>
                    <path d="M100.99,9.355 C101.226,9.294 101.461,9.234 101.696,9.174 C102.712,12.849 103.984,17.25 104.639,20.977 C104.611,20.923 104.55,20.924 104.532,20.854 C104.603,20.827 104.676,20.927 104.673,20.818 C104.649,19.978 104.185,18.907 103.933,17.925 C103.192,15.028 102.41,11.966 101.714,9.245 C101.479,9.305 101.243,9.365 101.009,9.425 C101.002,9.401 100.996,9.378 100.99,9.355" id="Fill-112" fill="#E5785E"></path>
                    <path d="M92.035,9.614 C92.119,9.403 93.114,9.272 92.706,9.593 C92.862,9.28 92.256,9.604 92.035,9.614" id="Fill-113" fill="#E5785E"></path>
                    <path d="M101.426,8.115 C101.449,8.11 101.473,8.103 101.496,8.097 C101.515,8.388 101.852,8.867 101.484,8.928 C101.478,8.904 101.471,8.881 101.466,8.857 C101.759,8.793 101.413,8.347 101.426,8.115" id="Fill-114" fill="#E5785E"></path>
                    <path d="M60.764,29.036 C60.804,29.028 60.83,28.959 60.746,28.967 C61.005,28.903 61.661,29.037 62.001,29.171 C62.008,29.196 62.014,29.22 62.019,29.242 C61.648,29.161 61.277,29.081 60.906,29 C60.721,29.16 61.18,29.065 61.189,29.228 C61.126,29.231 61.13,29.274 61.137,29.317 C61.023,29.307 60.932,29.26 60.818,29.249 C60.812,29.224 60.806,29.201 60.801,29.178 C60.895,29.12 60.777,29.118 60.764,29.036" id="Fill-115" fill="#E5785E"></path>
                    <path d="M62.428,29.664 C63.261,29.845 63.971,30.226 64.8,30.411 C64.074,30.456 63.19,29.893 62.376,29.753 C62.37,29.729 62.364,29.705 62.358,29.682 C62.382,29.678 62.405,29.67 62.428,29.664" id="Fill-116" fill="#E5785E"></path>
                    <path d="M64.835,30.552 C65.23,30.427 65.796,30.881 66.287,30.933 C65.925,31.002 65.311,30.628 64.835,30.552" id="Fill-117" fill="#E5785E"></path>
                    <path d="M61.189,29.229 C61.638,29.315 62.05,29.459 62.429,29.665 C62.404,29.67 62.381,29.677 62.357,29.682 C61.909,29.633 61.542,29.443 61.138,29.318 C61.129,29.275 61.126,29.232 61.189,29.229" id="Fill-118" fill="#F0C7B3"></path>
                    <path d="M93.788,39.99 C93.566,39.927 93.371,39.815 93.133,39.783 C93.272,39.585 93.641,39.864 93.84,39.902 C93.776,39.904 93.781,39.946 93.788,39.99" id="Fill-119" fill="#E5785E"></path>
                    <path d="M111.26,46.874 C111.485,46.847 111.669,47.567 111.459,47.651 C111.531,47.478 111.406,46.991 111.26,46.874" id="Fill-120" fill="#E5785E"></path>
                    <path d="M70.583,61.26 C71.219,61.432 71.815,61.671 72.458,61.833 C71.919,61.898 71.118,61.534 70.529,61.349 C70.594,61.346 70.589,61.305 70.583,61.26" id="Fill-121" fill="#F0C7B3"></path>
                    <path d="M64.762,59.666 C64.679,59.674 64.705,59.604 64.744,59.596 C64.303,59.263 63.64,59.303 63.169,59.02 C63.735,59.145 64.31,59.25 64.797,59.507 C64.798,59.568 64.743,59.596 64.762,59.666" id="Fill-122" fill="#E5785E"></path>
                    <path d="M61.113,41.278 C61.314,41.276 61.433,41.412 61.608,41.451 C61.614,41.476 61.62,41.498 61.627,41.523 C61.426,41.489 61.238,41.438 61.06,41.366 C61.032,41.311 61.071,41.292 61.113,41.278" id="Fill-123" fill="#F0C7B3"></path>
                    <path d="M64.656,26.614 C65.065,26.747 65.791,26.835 65.861,27.208 C65.803,27.237 65.787,27.197 65.772,27.155 C65.67,26.922 64.931,26.89 64.604,26.701 C64.575,26.646 64.614,26.629 64.656,26.614" id="Fill-124" fill="#F0C7B3"></path>
                    <path d="M62.976,26.216 C62.63,26.091 62.279,25.978 61.914,25.886 C62.16,25.709 62.645,25.996 62.939,26.075 C62.846,26.132 62.962,26.135 62.976,26.216" id="Fill-125" fill="#F0C7B3"></path>
                    <path d="M80.634,15.01 C80.81,15.051 80.929,15.186 81.13,15.184 C81.149,15.255 81.095,15.283 81.095,15.343 C81.024,15.297 80.892,15.351 80.848,15.256 C81.048,15.13 80.628,15.241 80.653,15.081 C80.647,15.057 80.641,15.033 80.634,15.01" id="Fill-126" fill="#E5785E"></path>
                    <path d="M79.732,14.715 C80.082,14.731 80.335,14.909 80.634,15.01 C80.641,15.033 80.647,15.058 80.652,15.081 C80.291,15.052 80,14.902 79.68,14.803 C79.651,14.747 79.69,14.73 79.732,14.715" id="Fill-127" fill="#F0C7B3"></path>
                    <path d="M77.874,14.212 C77.409,14.156 77.027,13.958 76.582,13.865 C76.91,13.754 77.489,14.087 77.927,14.123 C77.955,14.18 77.916,14.197 77.874,14.212" id="Fill-128" fill="#E5785E"></path>
                    <path d="M99.169,5.76 C100.165,5.472 101.196,5.017 100.992,6.422 C100.908,6.092 100.823,5.763 100.74,5.434 C100.233,5.514 99.588,5.827 99.169,5.76" id="Fill-129" fill="#E5785E"></path>
                    <path d="M81.524,12.903 C81.24,12.844 80.962,12.773 80.71,12.66 C81.004,12.668 81.271,12.725 81.505,12.833 C81.511,12.856 81.519,12.88 81.524,12.903" id="Fill-130" fill="#E5785E"></path>
                    <path d="M82.55,13.093 C82.808,13.184 83.568,13.429 83.47,13.459 C83.137,13.381 82.806,13.301 82.497,13.18 C82.561,13.178 82.557,13.136 82.55,13.093" id="Fill-131" fill="#E5785E"></path>
                    <path d="M65.505,16.999 C65.837,16.545 66.413,16.613 65.505,16.999" id="Fill-132" fill="#F0C7B3"></path>
                    <path d="M62.529,18.588 C62.769,18.291 63.25,18.137 63.638,17.928 C63.351,18.197 62.912,18.376 62.529,18.588" id="Fill-133" fill="#D7252D"></path>
                    <path d="M77.575,17.747 C78.336,18.012 79.088,18.291 79.875,18.512 C79.181,18.539 78.272,18.052 77.522,17.836 C77.586,17.833 77.582,17.79 77.575,17.747" id="Fill-134" fill="#E5785E"></path>
                    <path d="M79.912,18.653 C80.306,18.529 80.873,18.983 81.362,19.033 C81.002,19.103 80.386,18.73 79.912,18.653" id="Fill-135" fill="#E5785E"></path>
                    <path d="M75.593,17.052 C76.254,17.283 76.915,17.514 77.575,17.747 C77.582,17.791 77.586,17.834 77.523,17.837 C76.881,17.639 76.218,17.479 75.629,17.193 C75.724,17.135 75.606,17.133 75.593,17.052" id="Fill-136" fill="#F0C7B3"></path>
                    <path d="M3.104,39.044 C3.75,39.241 4.689,39.456 5.034,39.828 C4.686,39.741 4.354,39.627 4.042,39.48 C3.992,39.327 3.406,39.207 3.122,39.115 C3.116,39.091 3.109,39.068 3.104,39.044" id="Fill-137" fill="#E5785E"></path>
                    <path d="M4.042,39.48 C3.746,39.34 3.357,39.356 3.122,39.115 C3.407,39.207 3.991,39.327 4.042,39.48" id="Fill-138" fill="#D7252D"></path>
                    <path d="M38.288,34.633 C39.285,33.388 40.528,31.97 41.82,31.099 C41.152,31.622 40.609,32.291 40.028,32.911 C39.455,33.521 38.967,34.262 38.288,34.633" id="Fill-139" fill="#D7252D"></path>
                    <path d="M5.657,40.797 C5.883,40.903 5.284,41.049 5.005,41.189 C4.665,41.361 4.314,41.575 4.072,41.653 C3.95,41.705 3.909,41.624 3.982,41.601 C4.578,41.355 5.136,41.087 5.657,40.797" id="Fill-140" fill="#E5785E"></path>
                    <path d="M40.611,33.138 C40.454,33.644 39.86,34.408 39.331,34.893 C39.631,34.233 40.252,33.762 40.611,33.138" id="Fill-141" fill="#D7252D"></path>
                    <path d="M60.801,29.178 C60.401,29.18 60.174,28.889 59.757,28.919 C60.073,28.592 60.46,29.01 60.764,29.036 C60.778,29.118 60.895,29.12 60.801,29.178" id="Fill-142" fill="#F0C7B3"></path>
                    <path d="M33.781,40.823 C34.157,40.069 34.615,39.362 35.112,38.678 C34.696,39.408 34.226,40.109 33.781,40.823" id="Fill-143" fill="#F0C7B3"></path>
                    <path d="M34.503,40.413 C34.763,39.889 35.062,39.387 35.396,38.907 C35.135,39.43 34.837,39.933 34.503,40.413" id="Fill-144" fill="#E5785E"></path>
                    <path d="M10.414,51.759 C10.1,52.088 10.853,50.822 11.026,50.625 C10.875,51.034 10.566,51.351 10.414,51.759" id="Fill-145" fill="#F0C7B3"></path>
                    <path d="M11.026,50.625 C11.166,50.309 11.34,50.013 11.551,49.74 C11.415,50.057 11.238,50.353 11.026,50.625" id="Fill-146" fill="#E5785E"></path>
                    <path d="M25.774,40.088 C25.707,40.732 24.977,41.161 24.37,41.652 C23.813,42.099 23.279,42.865 22.503,42.879 C23.383,41.824 24.748,41.057 25.774,40.088" id="Fill-147" fill="#D7252D"></path>
                    <path d="M14.768,82.899 C14.676,82.964 14.382,82.909 14.434,83.06 C12.116,74.681 10.025,65.918 7.794,57.39 C7.93,57.155 8.03,57.423 8.235,57.353 C8.346,57.163 7.793,57.23 7.705,57.038 C7.253,55.274 6.803,53.51 6.351,51.745 C9.127,49.041 12.036,46.414 14.913,43.768 C15.385,43.946 15.857,44.125 16.275,44.397 C14.379,45.988 12.708,47.71 11.552,49.74 C11.341,50.013 11.165,50.309 11.026,50.625 C10.854,50.822 10.101,52.087 10.414,51.759 C12.282,50.02 14.295,48.103 16.304,46.269 C16.857,45.764 17.498,44.715 18.398,45.056 C15.419,47.801 12.354,50.494 9.54,53.336 C9.305,53.776 9.132,54.251 9,54.752 C11.859,52.084 15.046,49.138 18.211,46.383 C18.609,46.036 18.988,45.363 19.639,45.491 C19.431,46.059 18.844,46.399 18.391,46.788 C15.105,49.61 11.799,52.885 8.954,56.042 C9.193,56.737 10.341,56.48 11.003,56.12 C11.896,55.635 12.934,54.351 13.797,53.526 C15.687,51.724 17.286,50.284 19.335,48.426 C19.984,47.839 21.698,45.894 22.292,46.466 C22.536,46.7 21.794,48.346 21.601,49.05 C20.671,52.406 20.245,56.165 21.645,60.692 C22.791,64.395 25.051,66.895 27.307,69.017 C29.591,71.165 32.043,72.961 34.37,74.88 C33.902,75.002 33.467,75.143 33.135,75.346 C31.72,75.824 30.367,76.337 29.099,76.904 C24.572,78.632 20.183,80.441 15.983,82.363 C15.518,82.505 15.105,82.68 14.768,82.899" id="Fill-148" fill="#D7252D"></path>
                    <path d="M18.553,44.191 C18.625,44.472 18.944,44.34 19.084,44.505 C19.114,44.562 19.074,44.578 19.032,44.594 C19.027,44.57 19.02,44.546 19.014,44.523 C18.835,44.489 18.663,44.444 18.519,44.349 C18.486,44.27 18.502,44.22 18.553,44.191" id="Fill-149" fill="#E5785E"></path>
                    <path d="M22.834,45.352 C22.978,45.442 22.729,46.023 22.483,45.741 C22.52,45.564 22.797,45.53 22.834,45.352" id="Fill-150" fill="#D7252D"></path>
                    <path d="M59.185,40.794 C58.623,40.595 58.042,40.43 57.468,40.254 C57.876,40.239 58.659,40.467 59.148,40.653 C59.054,40.71 59.171,40.712 59.185,40.794" id="Fill-151" fill="#E5785E"></path>
                    <path d="M63.576,45.91 C64.304,46.163 65.078,46.338 65.735,46.711 C64.993,46.517 64.278,46.275 63.594,45.981 C63.587,45.959 63.581,45.934 63.576,45.91" id="Fill-152" fill="#E5785E"></path>
                    <path d="M61.434,45.18 C62.168,45.388 62.857,45.672 63.576,45.91 C63.581,45.934 63.586,45.959 63.594,45.981 C62.831,45.786 62.083,45.566 61.38,45.268 C61.445,45.266 61.44,45.225 61.434,45.18" id="Fill-153" fill="#F0C7B3"></path>
                    <path d="M47.139,57.781 C46.932,57.96 47.383,57.995 47.423,58.01 C48.79,58.491 50.719,58.563 52,58.569 C51.873,58.604 51.512,58.535 51.665,58.428 C52.238,58.538 52.994,58.88 53.539,58.701 C51.528,57.969 49.545,57.743 47.139,57.781 M67.363,47.197 C67.058,47.105 66.783,46.966 66.459,46.902 C66.64,47.141 67.159,47.336 67.363,47.197 M66.982,45.415 C66.912,45.593 66.86,45.783 66.826,45.982 C67.127,46.082 67.426,46.182 67.782,46.188 C67.814,45.99 67.867,45.8 67.937,45.621 C67.6,45.585 67.313,45.462 66.982,45.415 M67.331,44.425 C67.574,44.451 67.765,44.567 68.038,44.544 C68.017,44.372 68.249,44.351 68.16,44.137 C67.892,44.116 67.64,44.07 67.381,44.035 C67.386,44.178 67.212,44.215 67.331,44.425 M66.694,44.287 C66.994,43.623 66.494,43.847 66.694,44.287 M58.6,43.8 C58.284,43.691 57.701,43.5 57.433,43.648 C57.805,43.727 58.176,43.808 58.548,43.888 C59.839,44.233 61.104,44.52 62.404,44.858 C63.633,45.177 64.863,45.625 66.064,45.65 C66.041,45.517 66.052,45.403 66.134,45.331 C65.044,44.817 63.763,44.759 62.542,44.521 C61.243,44.267 59.834,43.927 58.6,43.8 M61.434,45.18 C59.31,44.588 57.237,43.373 55.011,43.288 C57.079,44.044 59.198,44.71 61.381,45.268 C62.083,45.566 62.831,45.786 63.594,45.981 C64.278,46.275 64.993,46.517 65.735,46.711 C65.078,46.338 64.304,46.163 63.576,45.91 C62.858,45.672 62.169,45.388 61.434,45.18 M81.363,19.033 C80.874,18.983 80.306,18.53 79.912,18.653 C80.387,18.73 81.002,19.103 81.363,19.033 M75.593,17.052 C75.45,17.016 75.11,16.798 74.993,17.053 C75.263,17.004 75.36,17.243 75.629,17.193 C76.218,17.479 76.881,17.639 77.522,17.837 C78.272,18.052 79.181,18.539 79.875,18.512 C79.088,18.292 78.336,18.012 77.575,17.747 C76.915,17.514 76.254,17.283 75.593,17.052 M81.506,12.833 C81.271,12.724 81.005,12.669 80.71,12.66 C80.963,12.774 81.241,12.844 81.525,12.904 C81.843,13.006 82.157,13.115 82.497,13.18 C82.806,13.301 83.138,13.381 83.471,13.459 C83.569,13.429 82.808,13.184 82.551,13.093 C82.214,12.986 81.91,12.826 81.506,12.833 M70.53,61.349 C71.118,61.534 71.92,61.898 72.458,61.833 C71.816,61.671 71.219,61.432 70.583,61.26 C68.657,60.67 66.763,60.028 64.797,59.507 C64.31,59.25 63.735,59.145 63.169,59.021 C63.64,59.303 64.303,59.263 64.744,59.596 C64.705,59.605 64.679,59.675 64.762,59.666 C66.641,60.3 68.575,60.844 70.53,61.349 M66.287,30.932 C65.797,30.882 65.229,30.427 64.836,30.552 C65.31,30.629 65.926,31.003 66.287,30.932 M96.7,6.391 C97.79,6.001 98.571,6.373 99.457,6.59 C100.082,6.741 100.764,6.815 101.192,7.198 C101.014,7.632 100.115,7.637 99.552,7.843 C99.233,7.972 98.683,7.967 98.512,8.183 C98.205,8.262 97.9,8.341 97.595,8.419 C97.39,8.517 96.963,8.484 96.907,8.67 C94.88,9.204 93.113,9.894 91.211,10.502 C91.666,10.174 92.228,9.908 92.707,9.593 C93.115,9.272 92.119,9.404 92.035,9.614 C90.513,10.149 89.046,10.717 87.93,11.491 C88.439,11.702 89.031,11.17 89.712,11.111 C88.832,11.706 87.702,12.155 86.824,12.752 C89.469,11.905 92.353,10.68 95.323,9.826 C95.525,9.728 95.953,9.761 96.011,9.575 C96.316,9.497 96.622,9.419 96.927,9.341 C97.292,9.198 97.891,9.194 98.109,8.964 C98.438,8.88 98.768,8.795 99.097,8.712 C99.873,8.512 100.65,8.314 101.426,8.115 C101.413,8.347 101.76,8.793 101.466,8.857 C100.736,9.044 100.007,9.231 99.278,9.417 C98.771,9.595 98.032,9.635 97.673,9.903 C97.32,9.992 96.967,10.083 96.615,10.173 C96.41,10.272 95.983,10.238 95.927,10.424 C95.423,10.564 94.839,10.657 94.463,10.873 C93.949,10.948 93.68,11.167 93.211,11.269 C92.971,11.286 92.894,11.401 92.735,11.466 C91.475,11.767 93.179,11.567 93.439,11.284 C93.77,11.2 94.098,11.116 94.428,11.033 C94.981,10.842 95.769,10.789 96.175,10.511 C96.833,10.343 97.492,10.175 98.15,10.006 C98.64,10.054 99.354,9.722 99.932,9.626 C100.286,9.534 100.638,9.445 100.991,9.355 C100.997,9.378 101.003,9.402 101.009,9.426 C101.244,9.365 101.479,9.304 101.714,9.244 C102.41,11.966 103.193,15.029 103.934,17.925 C104.185,18.907 104.65,19.978 104.674,20.818 C104.677,20.927 104.603,20.826 104.533,20.854 C102.891,20.396 100.927,19.699 99.136,19.152 C98.079,18.827 96.981,18.216 96.01,19.275 C96.43,20.052 97.443,20.129 98.171,20.376 C100.401,21.134 102.929,21.97 105.161,22.721 C105.239,23.029 105.317,23.335 105.395,23.639 C104.65,23.417 103.869,23.253 103.131,23.015 C103.475,23.379 104.396,23.639 105.008,23.889 C102.627,23.882 100.545,22.579 98.25,22.158 C91.292,20.886 84.724,18.117 77.396,17.342 C76.968,17.156 76.416,17.178 75.964,17.031 C76.362,17.269 76.91,17.253 77.345,17.43 C86.851,19.843 96.578,21.884 105.72,24.91 C107,29.921 108.282,34.93 109.563,39.941 C100.844,36.759 91.485,34.012 82.487,31.076 C82.057,30.936 81.206,30.437 80.845,31.119 C81.31,31.937 82.377,32.054 83.183,32.327 C89.172,34.341 95.623,36.32 101.693,38.27 C99.347,38.161 97.081,37.392 94.849,36.787 C92.599,36.177 90.385,35.52 88.143,34.969 C88.465,35.302 89.342,35.573 89.932,35.788 C87.62,35.735 85.557,34.57 83.333,34.093 C81.042,33.6 78.792,33.197 76.541,32.521 C72.163,31.209 67.74,29.913 63.028,29.362 C62.712,29.255 62.406,29.132 62.002,29.172 C61.662,29.037 61.006,28.903 60.747,28.967 C60.83,28.96 60.805,29.028 60.764,29.036 C60.459,29.01 60.073,28.593 59.757,28.92 C60.174,28.888 60.401,29.179 60.801,29.178 C60.806,29.201 60.813,29.224 60.819,29.25 C60.932,29.26 61.022,29.307 61.138,29.318 C61.542,29.443 61.909,29.634 62.358,29.681 C62.365,29.705 62.371,29.73 62.375,29.754 C63.189,29.894 64.075,30.456 64.801,30.411 C63.972,30.225 63.261,29.844 62.429,29.664 C62.051,29.46 61.638,29.315 61.189,29.229 C61.181,29.066 60.721,29.16 60.906,29.001 C61.278,29.081 61.649,29.161 62.02,29.242 C62.345,29.302 62.604,29.468 62.975,29.449 C67.014,30.527 71.031,31.552 75.093,32.441 C81.157,33.769 86.89,36.062 92.979,37.416 C95,37.864 96.914,38.507 98.854,39.222 C102.702,40.641 106.553,41.866 110.393,43.188 C110.549,43.8 110.705,44.41 110.863,45.022 C105.286,43.151 99.741,41.227 93.84,39.902 C93.641,39.864 93.272,39.585 93.133,39.783 C93.372,39.815 93.566,39.927 93.788,39.99 C99.521,41.731 105.22,43.532 110.882,45.393 C111.042,45.596 111.242,46.265 111.171,46.523 C110.239,46.311 109.323,46.072 108.375,45.884 C109.044,46.306 110.302,46.607 111.261,46.874 C111.407,46.991 111.532,47.479 111.458,47.651 C97.931,52.93 82.542,58.838 68.05,63.412 C67.681,63.528 67.263,63.767 66.869,63.788 C66.254,63.824 64.895,63.286 64.216,63.114 C63.301,62.884 62.49,62.635 61.58,62.51 C62.872,63.124 64.781,63.574 66.445,63.897 C63.53,64.915 60.286,65.886 57.487,66.788 C57.184,66.887 56.804,67.136 56.446,67.13 C56.067,67.125 54.958,66.27 54.39,65.851 C49.982,62.604 44.777,58.929 42.484,52.807 C42.412,52.526 42.34,52.242 42.267,51.96 C41.388,47.128 42.872,43.698 44.573,40.394 C44.837,40.033 45.064,39.649 45.256,39.242 C45.605,38.832 45.797,38.326 46.203,37.948 C53.221,39.543 59.431,42.499 66.375,44.216 C66.488,44.104 66.455,43.905 66.568,43.792 C65.914,43.216 65.009,43.011 64.247,42.658 C63.466,42.293 62.739,41.774 61.822,41.699 C62.159,41.57 61.874,41.564 61.608,41.451 C61.433,41.412 61.313,41.276 61.113,41.278 C60.477,41.037 59.866,40.756 59.149,40.653 C58.659,40.468 57.877,40.239 57.468,40.254 C58.042,40.43 58.623,40.595 59.185,40.794 C59.816,40.973 60.428,41.187 61.06,41.366 C61.238,41.438 61.427,41.489 61.627,41.523 C58.396,41.045 55.132,39.753 51.931,38.888 C53.326,38.993 54.896,39.679 56.407,39.925 C53.284,38.863 50.092,37.919 46.922,36.938 C50.033,32.813 53.959,29.176 58.451,25.869 C62.348,27.074 66.224,28.828 70.414,29.728 C70.872,29.825 71.653,30.186 72.057,29.682 C69.846,29.104 68.109,27.724 65.861,27.208 C65.791,26.835 65.064,26.747 64.656,26.614 C64.136,26.345 63.555,26.181 62.939,26.075 C62.645,25.996 62.16,25.71 61.914,25.886 C62.279,25.978 62.631,26.092 62.976,26.217 C63.535,26.35 64.045,26.568 64.604,26.701 C64.931,26.89 65.67,26.922 65.771,27.155 C63.518,26.648 61.371,25.962 59.156,25.388 C59.406,24.938 59.914,25.425 60.286,25.4 C60.338,25.216 59.466,25.275 59.577,24.981 C61.116,23.896 62.858,22.934 64.242,21.758 C64.019,21.461 63.394,21.841 63.04,21.763 C63.618,20.928 64.791,20.448 65.697,19.806 C65.763,19.687 66.019,19.678 66.084,19.557 C66.026,19.469 65.614,19.673 65.538,19.773 C63.583,20.672 61.545,22.112 59.709,23.442 C58.772,24.123 58.09,24.994 57.083,24.34 C58.521,23.132 60.021,21.995 61.604,20.853 C63.187,19.711 64.998,18.8 66.569,17.629 C66.913,17.372 67.121,16.966 67.465,16.723 C68.425,16.051 69.577,15.879 70.442,15.135 C70.579,14.928 70.048,14.996 70.333,14.712 C71.025,14.428 71.738,13.734 72.466,13.64 C73.102,13.559 73.705,14.079 74.2,14.25 C72.13,15.218 70.088,16.202 68.387,17.389 C70.035,16.87 71.571,15.949 73.234,15.174 C73.777,14.921 74.408,14.51 74.854,14.459 C75.448,14.389 77.331,15.241 77.97,15.467 C80.608,16.399 82.931,17.302 85.738,17.916 C86.152,18.007 86.87,18.302 87.222,17.837 C85.058,17.211 83.295,15.908 81.096,15.343 C81.095,15.283 81.149,15.255 81.13,15.183 C80.93,15.186 80.81,15.051 80.634,15.01 C80.335,14.909 80.082,14.731 79.731,14.715 C79.186,14.424 78.535,14.311 77.927,14.123 C77.489,14.088 76.91,13.755 76.583,13.866 C77.028,13.959 77.409,14.157 77.874,14.213 C77.881,14.236 77.887,14.26 77.893,14.283 C78.517,14.408 79.068,14.658 79.68,14.803 C80,14.902 80.291,15.052 80.653,15.08 C80.628,15.241 81.048,15.13 80.848,15.257 C79.201,14.905 77.64,14.406 76.019,14.01 C81.149,11.523 86.932,9.424 92.996,7.489 C93.222,7.384 93.675,7.412 93.754,7.22 C94.131,7.123 94.507,7.028 94.883,6.931 C95.46,6.735 96.27,6.677 96.7,6.391" id="Fill-154" fill="#D7252D"></path>
                    <path d="M58.547,43.888 C58.175,43.808 57.804,43.727 57.434,43.648 C57.7,43.5 58.283,43.691 58.601,43.8 C58.537,43.802 58.541,43.845 58.547,43.888" id="Fill-155" fill="#F0C7B3"></path>
                    <path d="M66.694,44.287 C66.494,43.847 66.994,43.623 66.694,44.287" id="Fill-156" fill="#E5785E"></path>
                    <path d="M66.46,46.902 C66.782,46.966 67.058,47.105 67.362,47.197 C67.159,47.336 66.64,47.141 66.46,46.902" id="Fill-157" fill="#F0C7B3"></path>
                    <path d="M73.042,62.06 C73.129,61.91 73.442,61.898 73.66,61.826 C73.662,61.898 73.618,61.909 73.537,61.934 C72.857,62.136 73.627,62.241 73.042,62.06" id="Fill-158" fill="#E5785E"></path>
                    <path d="M112.525,52.115 C112.516,52.029 112.638,52.023 112.719,51.991 C112.743,52.264 113.042,52.701 112.688,52.75 C112.871,52.64 112.727,52.333 112.667,52.077 C112.619,52.091 112.572,52.102 112.525,52.115" id="Fill-159" fill="#E5785E"></path>
                    <path d="M86.558,62.288 C95.662,59.161 104.234,55.722 112.525,52.115 C112.573,52.101 112.62,52.091 112.667,52.077 C112.726,52.333 112.871,52.64 112.688,52.75 C104.688,55.932 96.936,59.259 88.04,61.909 C87.836,62.008 87.41,61.974 87.352,62.16 C87.118,62.22 86.882,62.28 86.646,62.34 C86.59,62.368 86.573,62.329 86.558,62.288" id="Fill-160" fill="#D7252D"></path>
                    <path d="M111.86,56.571 C111.554,56.827 111.254,56.871 111.05,56.928 C110.652,57.039 111.342,56.699 111.86,56.571" id="Fill-161" fill="#F0C7B3"></path>
                    <path d="M97.103,62.074 C96.815,62.041 97.308,62.009 97.208,61.895 C98.543,61.577 97.62,61.824 97.103,62.074" id="Fill-162" fill="#F0C7B3"></path>
                    <path d="M106.466,58.701 C106.608,58.791 105.924,58.896 105.796,59.024 C105.678,58.949 106.195,58.743 106.466,58.701" id="Fill-163" fill="#E5785E"></path>
                    <path d="M113.789,57.055 C113.772,56.986 113.86,56.978 113.912,56.947 C114.033,57.014 114.06,57.237 114.108,57.423 C114.06,57.494 113.969,57.54 113.844,57.566 C114.036,57.555 114.102,56.984 113.789,57.055" id="Fill-164" fill="#E5785E"></path>
                    <path d="M19.442,81.478 C19.859,81.187 20.503,81.031 20.992,80.781 C20.995,80.844 21.037,80.841 21.081,80.832 C20.651,81.097 20.077,81.276 19.601,81.512 C19.571,81.461 19.521,81.446 19.442,81.478" id="Fill-165" fill="#E5785E"></path>
                    <path d="M14.768,82.899 C15.105,82.68 15.518,82.505 15.983,82.363 C16.063,82.33 16.114,82.345 16.143,82.397 C15.726,82.57 15.377,82.781 14.928,82.933 C14.908,82.866 14.827,82.901 14.768,82.899" id="Fill-166" fill="#F0C7B3"></path>
                    <path d="M18.084,82.05 C18.48,81.827 18.915,81.625 19.441,81.478 C19.521,81.447 19.571,81.461 19.601,81.512 C19.163,81.692 18.774,81.902 18.314,82.068 C18.282,81.987 18.17,82.041 18.084,82.05" id="Fill-167" fill="#F0C7B3"></path>
                    <path d="M113.987,57.83 C113.971,57.761 114.059,57.754 114.11,57.723 C114.232,57.814 114.422,58.306 114.202,58.377 C114.245,58.291 114.241,57.715 113.987,57.83" id="Fill-168" fill="#E5785E"></path>
                    <path d="M75.732,102.572 C75.443,102.313 76.134,101.671 76.309,101.296 C76.14,101.735 75.813,102.08 75.644,102.518 C75.688,102.511 75.729,102.507 75.732,102.572" id="Fill-169" fill="#E5785E"></path>
                    <path d="M94.193,89.506 C94.124,89.524 94.094,89.469 94.034,89.471 C94.003,89.374 94.219,89.338 94.069,89.312 C94.046,89.14 94.333,89.251 94.369,89.31 C94.329,89.385 94.187,89.403 94.193,89.506" id="Fill-170" fill="#E5785E"></path>
                    <path d="M118.632,77.468 C118.366,77.41 118.102,77.353 117.836,77.295 C117.963,77.188 118.474,77.293 118.685,77.38 C118.621,77.382 118.624,77.424 118.632,77.468" id="Fill-171" fill="#E5785E"></path>
                    <path d="M104.669,72.843 C103.996,72.714 103.873,72.922 104.617,72.932 C104.762,72.955 104.905,72.984 105.076,72.965 C107.52,73.354 110.285,73.74 112.73,73.789 C110.442,73.138 108.096,72.583 105.27,72.84 C105.111,72.769 104.9,72.791 104.669,72.843 M95.67,68.228 C96.261,69.086 97.502,69.023 98.484,69.238 C99.509,69.461 100.566,69.831 101.49,69.823 C99.542,69.368 97.808,68.027 95.67,68.228 M91.327,88.584 C92.218,88.732 93.238,89.199 94.033,89.169 C93.135,89.034 92.095,88.603 91.327,88.584 M77.481,89.418 C76.959,87.506 76.138,86.097 75.301,84.713 C75.433,84.448 75.975,85.173 76.276,85.29 C75.536,83.743 74.518,82.666 73.623,81.384 C79.209,82.429 84.238,84.415 89.582,85.872 C88.285,85.245 86.822,84.833 85.351,84.324 C83.928,83.831 82.455,83.178 80.979,82.811 C79.637,82.476 78.248,82.337 76.929,81.966 C75.62,81.598 74.392,81.161 73.107,80.839 C71.322,78.699 69.039,76.861 67.212,75.128 C83.262,69.954 99.454,64.865 114.099,58.855 C114.538,58.626 114.771,60.311 114.976,61.113 C116.336,66.432 117.841,72.317 119.144,77.412 C118.986,77.409 118.898,77.288 118.685,77.38 C118.474,77.293 117.962,77.188 117.836,77.295 C118.102,77.353 118.366,77.41 118.632,77.468 C118.814,77.533 119.047,77.509 119.198,77.624 C120.502,82.729 121.808,87.833 123.114,92.937 C122.895,93.785 122.503,94.532 122.314,95.397 C115.858,93.118 109.532,90.867 103.058,88.593 C100.919,87.842 98.812,86.85 96.476,86.667 C96.837,87.41 97.889,87.528 98.707,87.75 C99.581,87.989 100.477,88.159 101.219,88.46 C100.925,88.685 100.535,88.203 100.017,88.467 C99.858,89.209 100.659,89.386 101.119,89.539 C107.741,91.739 114.385,93.802 121.046,96.323 C121.711,96.574 123.737,97.17 123.934,97.615 C124.128,98.057 123.874,98.327 123.586,98.606 C113.908,95.808 104.409,91.833 94.37,89.31 C94.334,89.251 94.046,89.14 94.069,89.312 C94.219,89.338 94.003,89.374 94.034,89.471 C94.095,89.469 94.123,89.524 94.193,89.506 C103.781,92.422 113.554,95.564 122.581,99.088 C121.15,99.324 119.829,98.639 118.602,98.225 C114.912,96.985 111.275,95.667 107.225,94.895 C107.074,94.779 106.839,94.803 106.658,94.74 C106.582,94.907 107.102,94.928 107.26,95.036 C109.638,95.805 112.047,96.524 114.445,97.259 C114.676,97.415 114.549,97.364 114.535,97.612 C116.662,98.064 118.621,98.799 120.692,99.346 C120.412,99.544 119.77,99.49 119.386,99.529 C119.353,99.757 120.27,99.784 120.254,99.983 C111.802,102.145 103.204,104.343 94.567,106.552 C93.324,106.869 91.944,107.45 90.898,107.49 C90.369,107.509 89.64,107.072 89.004,106.846 C84.646,105.306 80.051,103.853 75.732,102.573 C75.73,102.507 75.688,102.511 75.643,102.518 C75.813,102.08 76.139,101.735 76.309,101.296 C77.698,98.389 78.776,95.295 77.897,91.04 C77.917,90.632 77.695,89.765 77.481,89.418" id="Fill-172" fill="#D7252D"></path>
                    <path d="M94.033,89.169 C93.239,89.199 92.218,88.731 91.327,88.584 C92.095,88.603 93.136,89.034 94.033,89.169" id="Fill-173" fill="#E5785E"></path>
                    <path d="M107.26,95.036 C107.103,94.928 106.583,94.906 106.658,94.739 C106.839,94.803 107.073,94.779 107.224,94.895 C107.13,94.952 107.247,94.954 107.26,95.036" id="Fill-174" fill="#E5785E"></path>
                    <path d="M38.658,90.473 C38.485,90.527 38.515,90.417 38.64,90.403 C38.839,90.571 39.137,90.575 39.383,90.664 C39.278,90.77 38.83,90.589 38.658,90.473" id="Fill-175" fill="#E5785E"></path>
                    <path d="M51.767,94.113 C51.953,94.216 52.418,94.23 52.317,94.498 C52.26,94.527 52.243,94.489 52.228,94.447 C52.347,94.304 51.846,94.357 51.785,94.185 C51.779,94.16 51.773,94.137 51.767,94.113" id="Fill-176" fill="#E5785E"></path>
                    <path d="M51.112,93.905 C51.387,93.879 51.541,94.058 51.767,94.113 C51.773,94.137 51.779,94.16 51.785,94.185 C51.514,94.237 51.385,94.049 51.148,94.046 C51.089,93.994 51.03,93.941 51.112,93.905" id="Fill-177" fill="#F0C7B3"></path>
                    <path d="M49.184,93.421 C48.765,93.32 48.388,93.148 47.963,93.056 C48.26,92.961 48.859,93.227 49.237,93.331 C49.174,93.334 49.177,93.376 49.184,93.421" id="Fill-178" fill="#E5785E"></path>
                    <path d="M45.592,92.309 C40.808,90.649 35.792,89.383 30.924,87.866 C35.683,86.116 40.386,84.334 45.134,82.577 C49.855,86.499 55.092,89.547 57.911,96.678 C57.653,96.801 57.072,96.464 56.601,96.261 C55.301,95.699 53.849,94.887 52.458,94.463 C52.411,94.475 52.363,94.487 52.317,94.498 C52.418,94.23 51.953,94.217 51.767,94.113 C51.541,94.058 51.387,93.879 51.112,93.905 C50.537,93.63 49.906,93.447 49.237,93.331 C48.859,93.227 48.26,92.961 47.963,93.056 C48.387,93.148 48.765,93.32 49.184,93.421 C49.831,93.641 50.506,93.818 51.148,94.046 C51.385,94.049 51.514,94.237 51.785,94.185 C51.846,94.357 52.347,94.304 52.229,94.447 C48.925,93.689 45.767,92.687 42.586,91.725 C43.472,91.711 44.564,92.226 45.539,92.398 C45.92,92.497 46.311,92.578 46.672,92.711 C46.595,92.499 45.938,92.4 45.592,92.309" id="Fill-179" fill="#D7252D"></path>
                    <path d="M45.592,92.309 C45.938,92.4 46.595,92.499 46.672,92.711 C46.311,92.578 45.92,92.497 45.539,92.398 C45.511,92.341 45.55,92.324 45.592,92.309" id="Fill-180" fill="#F0C7B3"></path>
                    <path d="M44.857,106.783 C45.065,106.834 45.244,106.936 45.441,107.009 C45.382,107.099 44.971,106.931 44.804,106.869 C44.868,106.867 44.864,106.825 44.857,106.783" id="Fill-181" fill="#E5785E"></path>
                    <path d="M30.737,102.723 C30.063,102.549 29.412,102.333 28.72,102.187 C29.282,102.149 30.142,102.481 30.791,102.635 C30.749,102.65 30.709,102.666 30.737,102.723" id="Fill-182" fill="#E5785E"></path>
                    <path d="M104.617,72.932 C103.873,72.922 103.996,72.714 104.669,72.843 C104.605,72.847 104.61,72.887 104.617,72.932" id="Fill-183" fill="#E5785E"></path>
                    <path d="M52.743,98.224 C52.117,98.135 51.434,97.607 50.885,97.722 C51.504,97.824 52.239,98.266 52.743,98.224 M47.894,96.608 C47.41,96.449 46.792,95.973 46.285,96.192 C46.816,96.339 47.306,96.555 47.842,96.696 C48.629,96.95 49.387,97.253 50.213,97.443 C50.357,97.541 50.753,97.738 50.85,97.58 C50.61,97.547 50.417,97.436 50.195,97.373 C49.42,97.129 48.703,96.791 47.894,96.608 M31.075,102.864 C30.402,102.646 29.67,102.754 28.971,102.573 C28.438,102.437 28.021,102.002 27.5,101.821 C24.739,100.872 21.65,100.836 18.711,100.084 C18.158,97.92 17.604,95.756 17.051,93.593 C19.151,92.619 21.158,91.597 23.378,90.697 C23.336,90.832 23.097,90.85 22.99,90.947 C24.945,90.308 27.209,89.336 29.213,88.528 C34.055,90.113 38.97,91.178 43.74,92.706 C48.484,94.229 53.04,96.367 58.056,97.242 C58.031,97.567 58.224,98.02 58.185,98.335 C55.113,97.627 51.968,97.041 48.777,96.532 C48.354,96.336 47.8,96.364 47.345,96.221 C47.743,96.459 48.291,96.442 48.724,96.619 C51.993,97.368 55.161,98.285 58.436,99.025 C58.215,103.842 54.396,106.529 50.24,109.014 C47.744,108.308 45.493,107.189 42.983,106.509 C43.491,106.392 44.192,106.826 44.805,106.869 C44.971,106.931 45.383,107.099 45.442,107.009 C45.244,106.936 45.065,106.834 44.857,106.783 C40.457,105.213 35.891,103.929 31.268,102.738 C31.077,102.756 31.002,102.581 30.791,102.635 C30.142,102.481 29.283,102.149 28.721,102.187 C29.412,102.333 30.063,102.549 30.738,102.723 C30.852,102.732 30.943,102.781 31.056,102.792 C31.062,102.816 31.069,102.838 31.075,102.864" id="Fill-184" fill="#D7252D"></path>
                    <path d="M50.885,97.722 C51.434,97.607 52.117,98.135 52.743,98.224 C52.239,98.266 51.504,97.824 50.885,97.722" id="Fill-185" fill="#E5785E"></path>
                    <path d="M50.195,97.373 C50.417,97.436 50.61,97.547 50.85,97.58 C50.753,97.738 50.357,97.541 50.213,97.443 C50.207,97.419 50.201,97.394 50.195,97.373" id="Fill-186" fill="#E5785E"></path>
                    <path d="M47.894,96.608 C48.703,96.791 49.42,97.128 50.195,97.373 C50.201,97.395 50.207,97.419 50.213,97.443 C49.387,97.253 48.628,96.95 47.841,96.696 C47.834,96.652 47.83,96.61 47.894,96.608" id="Fill-187" fill="#F0C7B3"></path>
                    <path d="M47.841,96.696 C47.305,96.555 46.816,96.339 46.284,96.192 C46.793,95.973 47.409,96.449 47.895,96.608 C47.83,96.61 47.834,96.652 47.841,96.696" id="Fill-188" fill="#E5785E"></path>
                    <path d="M60.985,103.409 C61.208,103.002 61.397,102.576 61.65,102.187 C61.484,102.628 61.274,103.042 60.985,103.409" id="Fill-189" fill="#F0C7B3"></path>
                    <path d="M76.477,103.132 C76.222,103.256 75.712,102.944 75.31,102.979 C75.466,102.432 76.091,103.123 76.477,103.132" id="Fill-190" fill="#D7252D"></path>
                    <path d="M80.244,107.281 C80.086,107.173 79.566,107.152 79.642,106.985 C79.815,107.128 80.123,107.048 80.297,107.193 C80.233,107.195 80.237,107.238 80.244,107.281" id="Fill-191" fill="#E5785E"></path>
                    <path d="M48.292,111.692 C48.408,111.343 49.083,111.744 48.47,111.797 C48.44,111.68 48.655,111.706 48.646,111.602 C48.527,111.631 48.411,111.661 48.292,111.692" id="Fill-192" fill="#E5785E"></path>
                    <path d="M58.965,9.65 C52.132,11.447 45.063,13.104 38.378,14.989 C38.331,15.002 38.284,15.012 38.236,15.025 C44.736,13.064 52.192,11.306 58.965,9.65" id="Fill-193" fill="#F0C7B3"></path>
                    <path d="M89.38,1.873 C79.983,4.326 70.349,6.639 61.1,9.179 C61.053,9.192 61.006,9.203 60.959,9.215 C70.023,6.599 80.041,4.185 89.38,1.873" id="Fill-194" fill="#F0C7B3"></path>
                    <path d="M94.62,0.609 C93.813,0.69 92.543,1.013 91.796,1.33 C91.758,1.353 91.682,1.251 91.638,1.296 C92.208,0.707 94.366,0.77 95.29,0.288 C95.141,0.439 94.896,0.533 94.62,0.609" id="Fill-195" fill="#F0C7B3"></path>
                    <path d="M85.851,6.008 C86.062,5.822 86.866,5.377 87.279,5.417 C87.162,5.405 86.389,5.906 85.851,6.008" id="Fill-196" fill="#E5785E"></path>
                    <path d="M98.384,4.157 C98.035,3.989 98.78,3.912 99.124,3.818 C99.542,3.7 100.058,3.585 100.323,3.511 C100.384,3.745 100.444,3.982 100.504,4.217 C100.394,4.25 100.226,4.251 100.24,4.36 C100.099,4.394 99.957,4.43 99.816,4.468 C99.787,4.35 100.002,4.377 99.992,4.271 C100.134,4.236 100.274,4.199 100.415,4.163 C100.368,3.975 100.319,3.786 100.271,3.598 C99.672,3.803 98.837,3.866 98.384,4.157" id="Fill-197" fill="#F0C7B3"></path>
                    <path d="M43.743,20.684 C43.719,20.418 42.669,20.478 42.645,20.213 C43.167,20.309 43.661,20.451 44.166,20.576 C44.203,20.805 43.829,20.813 43.743,20.684" id="Fill-198" fill="#E5785E"></path>
                    <path d="M74.212,13.119 C74.482,13.172 75.05,13.25 75.044,13.432 C74.73,13.39 74.473,13.25 74.16,13.207 C74.13,13.15 74.17,13.134 74.212,13.119" id="Fill-199" fill="#F0C7B3"></path>
                    <path d="M81.506,12.833 C81.909,12.827 82.214,12.986 82.55,13.093 C82.557,13.136 82.56,13.179 82.497,13.181 C82.156,13.115 81.843,13.006 81.525,12.903 C81.519,12.88 81.512,12.856 81.506,12.833" id="Fill-200" fill="#F0C7B3"></path>
                    <path d="M93.21,11.268 C93.679,11.166 93.948,10.948 94.462,10.873 C94.468,10.896 94.475,10.92 94.481,10.943 C94.438,10.958 94.399,10.975 94.427,11.033 C94.099,11.116 93.77,11.2 93.439,11.285 C93.341,11.316 93.242,11.348 93.21,11.268" id="Fill-201" fill="#F0C7B3"></path>
                    <path d="M65.538,19.772 C65.614,19.672 66.026,19.469 66.084,19.557 C66.019,19.678 65.762,19.686 65.697,19.806 C65.677,19.738 65.597,19.774 65.538,19.772" id="Fill-202" fill="#E5785E"></path>
                    <path d="M77.344,17.43 C76.91,17.252 76.362,17.268 75.963,17.032 C76.415,17.178 76.968,17.156 77.396,17.342 C77.332,17.345 77.337,17.387 77.344,17.43" id="Fill-203" fill="#F0C7B3"></path>
                    <path d="M5.696,41.538 C5.676,41.47 5.595,41.506 5.537,41.504 C5.506,41.148 5.999,41.126 6.259,41.094 C6.338,41.163 5.758,41.353 5.696,41.538" id="Fill-204" fill="#F0C7B3"></path>
                    <path d="M62.001,29.171 C62.405,29.131 62.711,29.254 63.027,29.361 C62.964,29.363 62.967,29.404 62.976,29.449 C62.604,29.467 62.345,29.301 62.02,29.242 C62.014,29.219 62.007,29.195 62.001,29.171" id="Fill-205" fill="#F0C7B3"></path>
                    <path d="M29.099,76.904 C30.367,76.338 31.72,75.824 33.135,75.346 C33.248,75.358 33.479,75.171 33.505,75.326 C32.146,75.878 30.704,76.379 29.328,76.92 C29.295,76.84 29.184,76.894 29.099,76.904" id="Fill-206" fill="#F0C7B3"></path>
                    <path d="M15.983,82.363 C20.183,80.441 24.571,78.632 29.099,76.904 C29.184,76.894 29.295,76.84 29.327,76.92 C24.775,78.653 20.36,80.466 16.144,82.397 C16.113,82.345 16.063,82.33 15.983,82.363" id="Fill-207" fill="#E5785E"></path>
                    <path d="M105.161,59.185 C103.645,59.904 101.852,60.457 100.065,61.014 C101.714,60.375 103.451,59.789 105.161,59.185" id="Fill-208" fill="#E5785E"></path>
                    <path d="M68.51,73.442 C68.936,73.336 69.206,73.138 69.692,73.066 C69.849,73.071 70.133,72.86 70.203,73.01 C69.811,73.197 69.316,73.323 68.811,73.442 C68.716,73.466 68.622,73.49 68.528,73.514 C68.523,73.491 68.516,73.467 68.51,73.442" id="Fill-209" fill="#F0C7B3"></path>
                    <path d="M66.094,74.287 C66.902,74.007 67.725,73.737 68.51,73.442 C68.516,73.467 68.522,73.491 68.528,73.514 C68.622,73.49 68.716,73.466 68.81,73.442 C68.039,73.822 66.882,73.974 66.2,74.408 C66.132,74.425 66.124,74.338 66.094,74.287" id="Fill-210" fill="#E5785E"></path>
                    <path d="M34.127,85.693 C34.866,85.352 35.704,85.072 36.524,84.779 C36.604,84.745 36.654,84.762 36.684,84.813 C35.885,85.098 35.08,85.38 34.356,85.709 C34.324,85.63 34.213,85.681 34.127,85.693" id="Fill-211" fill="#E5785E"></path>
                    <path d="M104.669,72.843 C104.9,72.791 105.111,72.769 105.27,72.84 C105.168,72.86 105.067,72.879 105.076,72.965 C104.905,72.984 104.762,72.955 104.617,72.932 C104.61,72.887 104.606,72.847 104.669,72.843" id="Fill-212" fill="#F0C7B3"></path>
                    <path d="M48.724,96.62 C48.291,96.442 47.742,96.459 47.344,96.221 C47.799,96.364 48.354,96.336 48.777,96.532 C48.713,96.534 48.717,96.577 48.724,96.62" id="Fill-213" fill="#F0C7B3"></path>
                    <path d="M30.791,102.635 C31.001,102.581 31.078,102.756 31.269,102.738 C31.269,102.798 31.214,102.826 31.233,102.897 C31.153,102.93 31.104,102.913 31.075,102.865 C31.068,102.838 31.062,102.816 31.057,102.792 C30.942,102.782 30.852,102.732 30.737,102.723 C30.709,102.666 30.749,102.65 30.791,102.635" id="Fill-214" fill="#F0C7B3"></path>
                    <path d="M100.451,4.304 C100.601,4.254 100.547,4.547 100.612,4.638 C100.373,4.668 99.669,4.956 99.748,4.784 C100.014,4.644 100.704,4.755 100.451,4.304" id="Fill-215" fill="#F0C7B3"></path>
                    <path d="M31.298,55.517 C31.448,56.104 31.599,56.694 31.749,57.281 C31.567,57.32 31.549,57.079 31.5,56.894 C31.637,56.556 31.161,55.855 31.298,55.517" id="Fill-216" fill="#F0C7B3"></path>
                    <path d="M61.014,95.583 C61.258,96.048 61.511,97.033 61.519,97.559 C61.351,96.901 61.183,96.241 61.014,95.583" id="Fill-217" fill="#F0C7B3"></path>
                    <g id="Group-220" transform="translate(97.000000, 66.000000)" fill="#174489">
                        <path d="M0.209,-0.405 L12.021,-0.405 L12.021,17.47 L12.146,17.47 C13.095,15.954 14.168,14.501 15.179,13.112 L24.526,-0.405 L39.623,-0.405 L24.653,17.533 L40.317,42.166 L26.232,42.166 L16,24.607 L12.021,29.344 L12.021,42.166 L0.209,42.166 L0.209,-0.405" id="Fill-218"></path>
                    </g>
                    <path d="M141.422,65.595 L153.359,65.595 L153.359,108.166 L141.422,108.166 L141.422,65.595 L141.422,65.595 Z" id="Fill-221" fill="#174489"></path>
                    <path d="M196.877,106.903 C195.108,107.787 190.561,108.924 184.75,108.924 C167.507,108.924 159.801,99.008 159.801,87.575 C159.801,72.796 171.423,64.837 185.381,64.837 C190.876,64.837 195.487,65.847 197.572,66.984 L195.108,76.206 C192.962,75.323 189.803,74.438 185.824,74.438 C178.687,74.438 172.37,78.29 172.37,86.754 C172.37,94.081 177.361,99.198 186.14,99.198 C189.424,99.198 193.024,98.565 195.045,97.744 L196.877,106.903" id="Fill-222" fill="#174489"></path>
                    <path d="M203.635,65.595 L215.446,65.595 L215.446,83.47 L215.573,83.47 C216.52,81.954 217.594,80.501 218.605,79.112 L227.952,65.595 L243.049,65.595 L228.079,83.533 L243.743,108.166 L229.658,108.166 L219.426,90.607 L215.446,95.344 L215.446,108.166 L203.635,108.166 L203.635,65.595" id="Fill-223" fill="#174489"></path>
                    <path d="M277.092,91.301 L259.785,91.301 L259.785,98.565 L279.112,98.565 L279.112,108.166 L247.849,108.166 L247.849,65.595 L278.165,65.595 L278.165,75.196 L259.785,75.196 L259.785,81.701 L277.092,81.701 L277.092,91.301" id="Fill-224" fill="#174489"></path>
                    <path d="M297.492,83.911 L301.029,83.911 C305.704,83.911 308.482,82.018 308.482,78.796 C308.482,75.574 306.082,73.933 302.04,73.933 C299.388,73.933 298.124,74.059 297.492,74.186 L297.492,83.911 L297.492,83.911 Z M285.682,66.162 C289.028,65.658 294.271,65.216 300.714,65.216 C307.851,65.216 312.589,66.227 315.872,68.563 C318.589,70.522 320.294,73.616 320.294,77.911 C320.294,83.596 315.683,87.197 312.715,88.144 L312.715,88.396 C315.557,89.596 317.136,92.375 318.337,95.911 C319.788,100.271 321.241,106.524 322.063,108.165 L309.936,108.165 C309.24,106.902 308.104,103.935 306.65,98.44 C305.324,93.323 303.618,92.313 299.641,92.313 L297.492,92.313 L297.492,108.165 L285.682,108.165 L285.682,66.162 L285.682,66.162 Z" id="Fill-225" fill="#174489"></path>
                    <path d="M341.958,65.595 L345.052,65.595 L345.052,105.577 L366.148,105.577 L366.148,108.166 L341.958,108.166 L341.958,65.595" id="Fill-226" fill="#272626"></path>
                    <path d="M376.696,65.595 L379.79,65.595 L379.79,108.166 L376.696,108.166 L376.696,65.595 L376.696,65.595 Z" id="Fill-227" fill="#272626"></path>
                    <path d="M428.992,106.018 C426.719,106.903 421.666,108.607 414.718,108.607 C408.213,108.607 402.465,106.965 397.728,102.544 C393.938,99.008 391.538,93.26 391.538,86.818 C391.538,76.838 399.117,65.153 416.233,65.153 C421.54,65.153 425.835,66.479 427.603,67.3 L426.592,69.827 C424.003,68.626 420.719,67.742 416.107,67.742 C402.148,67.742 394.759,76.396 394.759,86.944 C394.759,97.996 402.274,106.018 415.286,106.018 C420.528,106.018 423.939,105.26 425.897,104.25 L425.897,89.66 L414.907,89.66 L414.907,87.133 L428.992,87.133 L428.992,106.018" id="Fill-228" fill="#272626"></path>
                    <path d="M465.688,90.607 L459.688,75.638 C458.552,72.796 457.982,70.964 457.352,68.88 L457.225,68.88 C456.594,71.027 455.898,72.922 454.888,75.449 L448.824,90.607 L465.688,90.607 L465.688,90.607 Z M447.751,93.198 L441.876,108.166 L438.654,108.166 L455.835,65.595 L458.867,65.595 L475.921,108.166 L472.7,108.166 L466.699,93.198 L447.751,93.198 L447.751,93.198 Z" id="Fill-229" fill="#272626"></path>
                    <path d="M124.524,28.204 C124.789,28.571 124.843,29.146 125.028,29.59 C126.923,29.3 129.354,29.546 131.458,29.464 C130.409,23.034 124.571,21.392 118.223,20.263 C123.517,19.969 129.356,20.221 134.86,20.137 L134.86,54.548 L124.776,54.548 C127.894,52.958 130.974,51.333 131.709,47.363 C131.919,47.022 131.919,45.814 131.709,45.472 C131.608,44.187 131.103,43.306 130.449,42.574 C130.095,41.876 129.492,41.429 128.937,40.935 C125.194,37.524 117.587,36.211 111.668,34.506 C109.545,33.895 107.274,33.328 105.87,32.49 C104.589,31.725 103.106,30.179 103.979,28.33 C104.406,27.834 104.87,27.371 105.365,26.943 C109.423,24.166 118.203,24.036 122.634,26.565 C123.281,27.095 124.049,27.503 124.524,28.204" id="Fill-1430" fill="#272626"></path>
                    <path d="M141.415,20.137 L141.415,50.263 C141.205,40.515 141.205,29.885 141.415,20.137" id="Fill-1431" fill="#272626"></path>
                    <path d="M141.415,20.137 L166.247,20.137 L166.247,54.548 L162.97,54.548 C162.886,53.161 163.137,51.44 162.843,50.263 L141.415,50.263 L141.415,20.137" id="Fill-1432" fill="#272626"></path>
                    <path d="M172.927,20.137 L176.204,20.137 L176.204,54.548 L172.801,54.548 L172.801,20.514 C172.79,20.337 172.78,20.158 172.927,20.137" id="Fill-1433" fill="#272626"></path>
                    <path d="M205.07,26.943 C201.057,23.519 195.831,21.308 189.439,20.263 C197.297,19.969 205.7,20.22 213.766,20.136 L213.766,54.548 L188.683,54.548 C194.799,53.353 200.306,51.55 204.313,48.245 C205.189,47.694 205.939,47.015 206.583,46.228 C208.145,44.564 210.146,41.982 210.489,38.917 C210.962,34.7 209.317,31.462 207.338,29.212 C207.301,28.955 206.997,28.965 206.96,28.708 C206.592,28.235 206.173,27.815 205.699,27.447 C205.407,27.362 205.362,27.028 205.07,26.943" id="Fill-1434" fill="#272626"></path>
                    <path d="M242.002,20.137 C241.918,21.566 242.169,23.329 241.876,24.549 C241.959,23.119 241.708,21.355 242.002,20.137" id="Fill-1435" fill="#272626"></path>
                    <path d="M242.002,20.137 L245.279,20.137 L245.279,54.548 L241.876,54.548 L241.876,50.263 C234.942,49.968 227.464,50.219 220.321,50.136 L220.321,40.556 L242.002,40.556 C241.918,39.001 242.17,37.112 241.876,35.766 L220.321,35.766 L220.321,24.549 L241.876,24.549 C242.169,23.329 241.918,21.566 242.002,20.137" id="Fill-1436" fill="#272626"></path>
                    <path d="M245.279,20.137 C245.489,31.313 245.489,43.372 245.279,54.548 L245.279,20.137" id="Fill-1437" fill="#272626"></path>
                    <path d="M251.833,24.422 C254.438,24.213 257.926,24.213 260.531,24.422 L251.833,24.422" id="Fill-1438" fill="#272626"></path>
                    <path d="M199.02,45.472 C194.83,48.257 189.568,49.97 182.758,50.136 L182.758,24.422 C189.408,24.538 194.453,26.259 198.642,28.834 C199.933,29.812 201.119,30.895 202.17,32.111 C202.963,33.418 203.807,34.677 203.936,36.65 L203.936,38.035 C203.803,39.878 203.027,41.077 202.296,42.322 C201.354,43.522 200.225,44.534 199.02,45.472" id="Fill-1439" fill="#272626"></path>
                    <path d="M251.833,24.422 L260.531,24.422 C265.164,24.926 270.655,26.409 269.354,31.607 C268.905,32.292 268.324,32.846 267.716,33.372 C264.306,36.011 257.92,35.677 251.833,35.641 L251.833,24.422" id="Fill-1440" fill="#272626"></path>
                    <path d="M220.321,24.549 L220.321,35.766 C220.111,32.322 220.111,27.993 220.321,24.549" id="Fill-1441" fill="#272626"></path>
                    <path d="M113.181,51.649 C108.967,50.988 104.633,50.449 103.727,46.481 L97.677,46.481 L97.677,31.986 C101.215,38.534 112.167,39.098 120.366,42.07 C122.586,42.874 125.244,44.168 125.282,46.355 C125.348,50.234 119.233,51.152 115.702,51.649 L113.181,51.649" id="Fill-1442" fill="#272626"></path>
                    <path d="M275.53,32.994 C275.824,37.826 275.572,43.203 275.657,48.245 C271.132,45.543 266.38,43.069 262.044,40.179 C268.327,39.572 273.096,37.449 275.53,32.994" id="Fill-1443" fill="#272626"></path>
                    <path d="M241.876,35.767 C242.17,37.112 241.918,39.001 242.002,40.556 L220.321,40.556 L220.321,40.431 L239.229,40.431 C239.701,40.431 241.735,40.572 241.876,40.431 C242.442,39.863 241.438,36.473 241.876,35.767" id="Fill-1444" fill="#272626"></path>
                    <path d="M203.936,36.65 C204.145,36.825 204.145,37.859 203.936,38.035 L203.936,36.65" id="Fill-1445" fill="#272626"></path>
                    <path d="M220.321,40.431 L220.321,50.136 C220.111,47.195 220.111,43.372 220.321,40.431" id="Fill-1446" fill="#272626"></path>
                    <path d="M251.833,40.556 C251.94,40.534 251.952,40.606 251.96,40.683 C259.743,45.143 268.171,49.828 275.53,54.548 L251.833,54.548 L251.833,40.556" id="Fill-1447" fill="#272626"></path>
                    <path d="M131.709,45.472 C131.918,45.814 131.918,47.022 131.709,47.363 L131.709,45.472" id="Fill-1448" fill="#272626"></path>
                    <path d="M162.843,50.263 C163.136,51.44 162.885,53.161 162.969,54.548 C162.676,53.37 162.926,51.65 162.843,50.263" id="Fill-1449" fill="#272626"></path>
                    <path d="M113.181,51.649 L115.702,51.649 C115.152,51.859 113.729,51.859 113.181,51.649" id="Fill-1450" fill="#272626"></path>
                    <path d="M122.634,26.565 C123.504,26.871 124.116,27.436 124.524,28.204 C124.049,27.503 123.281,27.094 122.634,26.565" id="Fill-1451" fill="#272626"></path>
                    <path d="M103.979,28.33 C104.284,27.711 104.747,27.248 105.365,26.943 C104.869,27.372 104.407,27.834 103.979,28.33" id="Fill-1452" fill="#272626"></path>
                    <path d="M128.937,40.935 C129.493,41.429 130.096,41.876 130.45,42.574 C129.888,42.083 129.446,41.475 128.937,40.935" id="Fill-1453" fill="#272626"></path>
                    <path d="M205.07,26.943 C205.362,27.028 205.407,27.362 205.699,27.447 C206.067,27.92 206.487,28.34 206.96,28.708 C206.997,28.965 207.301,28.955 207.338,29.212 C206.529,28.508 205.773,27.752 205.07,26.943" id="Fill-1454" fill="#272626"></path>
                    <path d="M204.313,48.245 C205.013,47.516 205.786,46.86 206.583,46.228 C205.939,47.015 205.189,47.693 204.313,48.245" id="Fill-1455" fill="#272626"></path>
                    <path d="M206.96,28.708 C206.487,28.34 206.067,27.92 205.699,27.448 C206.173,27.815 206.593,28.235 206.96,28.708" id="Fill-1456" fill="#272626"></path>
                    <path d="M199.02,45.472 C200.225,44.534 201.354,43.522 202.296,42.322 C201.494,43.66 200.387,44.698 199.02,45.472" id="Fill-1457" fill="#272626"></path>
                    <path d="M202.171,32.111 C201.118,30.895 199.933,29.812 198.642,28.834 C200.08,29.663 201.322,30.691 202.171,32.111" id="Fill-1458" fill="#272626"></path>
                    <path d="M267.716,33.372 C268.324,32.846 268.904,32.292 269.354,31.607 C269.05,32.437 268.427,32.949 267.716,33.372" id="Fill-1459" fill="#272626"></path>
                </g>
            </g>
        </g>
    </g>
</svg>