<?xml version="1.0" encoding="UTF-8" standalone="no"?>
<svg width="233px" height="96px" viewBox="0 0 233 96" version="1.1" xmlns="http://www.w3.org/2000/svg" xmlns:xlink="http://www.w3.org/1999/xlink" xmlns:sketch="http://www.bohemiancoding.com/sketch/ns">
    <!-- Generator: Sketch 3.2 (9961) - http://www.bohemiancoding.com/sketch -->
    <title>Logo_final</title>
    <desc>Created with Sketch.</desc>
    <defs></defs>
    <g id="Page-1" stroke="none" stroke-width="1" fill="none" fill-rule="evenodd" sketch:type="MSPage">
        <g id="Logo_final" sketch:type="MSLayerGroup">
            <path d="M124.974465,13.0619147 L119.522629,26.727128 L113.88148,13.0619147 L110.132547,13.0619147 L109.71615,32.8592986 L113.540627,32.8592986 L113.5024,21.427109 L118.197896,32.8592986 L120.582961,32.8592986 L125.276637,21.2382938 L125.35309,32.8592986 L129.138885,32.8592986 L128.609629,13.0619147 L124.974465,13.0619147" id="Fill-1" fill="#122C3D" sketch:type="MSShapeGroup"></path>
            <path d="M136.864291,13.0619147 L133.152674,13.0619147 L133.152674,32.8592986 L144.020395,32.8592986 L144.020395,29.5279621 L136.864291,29.491109 L136.864291,13.0619147" id="Fill-2" fill="#122C3D" sketch:type="MSShapeGroup"></path>
            <path d="M155.415096,19.8019336 C155.415096,20.5189763 155.149785,21.9344076 154.505395,22.6277915 C153.862824,23.3193555 153.294432,23.4335545 152.574498,23.5468436 C151.85502,23.6610427 150.416518,23.5468436 150.416518,23.5468436 L150.416518,16.127545 C150.416518,16.127545 152.953123,15.7499147 154.203223,16.7344834 C155.452412,17.7181422 155.415096,19.085346 155.415096,19.8019336 L155.415096,19.8019336 Z M151.779021,12.8348815 C147.19866,12.7215924 146.592496,13.0619147 146.592496,13.0619147 L146.592496,32.8592986 L150.378291,32.8592986 L150.378291,26.8786351 C150.378291,26.8786351 151.589709,27.0301422 153.558832,26.6511469 C155.527955,26.2721517 159.162209,24.6824645 159.351977,20.0266919 C159.541289,15.3713744 156.360748,12.9481706 151.779021,12.8348815 L151.779021,12.8348815 Z" id="Fill-3" fill="#122C3D" sketch:type="MSShapeGroup"></path>
            <path d="M92.9947598,22.8939526 C92.9947598,23.8316588 92.2352344,24.5901043 91.2991387,24.5901043 C91.1662559,24.5901043 91.0383789,24.5719052 90.9136875,24.5427867 L90.9136875,28.4241896 C91.0502109,28.4337441 91.1858242,28.4451185 91.324623,28.4451185 C94.4109629,28.4451185 96.9134375,25.9468436 96.9134375,22.8648341 C96.9134375,19.7837346 94.4109629,17.2845498 91.324623,17.2845498 C88.2378281,17.2845498 85.7348984,19.7837346 85.7348984,22.8648341 L85.7348984,31.986654 C86.8989883,32.698237 88.2087031,33.1937062 89.6085234,33.4193744 L89.6085234,22.8648341 L89.6030625,22.8648341 L89.6030625,22.7647393 L89.6158047,22.7647393 C89.6836113,21.8907299 90.4062754,21.2005308 91.2991387,21.2005308 C92.2352344,21.2005308 92.9947598,21.9598863 92.9947598,22.8939526" id="Fill-4" fill="#9B896C" sketch:type="MSShapeGroup"></path>
            <path d="M91.2904922,12.0878104 C85.3066699,12.0878104 80.4559922,16.9374028 80.4559922,22.9194313 C80.4559922,26.2971754 82.0037129,29.3118483 84.4270039,31.2982749 L84.4270039,23.2633934 C84.4169922,23.1237156 84.4110762,22.9849479 84.4110762,22.8429953 C84.4110762,19.0644171 87.4955957,16.0001517 91.2995937,16.0001517 C95.104502,16.0001517 98.1881113,19.0644171 98.1881113,22.8429953 C98.1881113,26.6220284 95.104502,29.6858389 91.2995937,29.6858389 C91.1589746,29.6858389 91.021541,29.6735545 90.8827422,29.66491 L90.8827422,33.7410427 C91.0183555,33.7474123 91.1539687,33.7524171 91.2904922,33.7524171 C97.2747695,33.7524171 102.125447,28.9028246 102.125447,22.9194313 C102.125447,16.9374028 97.2747695,12.0878104 91.2904922,12.0878104" id="Fill-5" fill="#9B896C" sketch:type="MSShapeGroup"></path>
            <path d="M41.4380488,46.4139526 L43.8322148,46.4139526 L43.8322148,55.4015545 L53.2177461,46.4139526 L56.3718926,46.4139526 L45.0932363,57.159128 L57.248373,70.3639052 L54.1238066,70.3639052 L43.8322148,59.2078863 L43.8322148,70.3639052 L41.4380488,70.3639052 L41.4380488,46.4139526" id="Fill-6" fill="#343433" sketch:type="MSShapeGroup"></path>
            <path d="M41.4380488,46.4139526 L43.8322148,46.4139526 L43.8322148,55.4015545 L53.2177461,46.4139526 L56.3718926,46.4139526 L45.0932363,57.159128 L57.248373,70.3639052 L54.1238066,70.3639052 L43.8322148,59.2078863 L43.8322148,70.3639052 L41.4380488,70.3639052 L41.4380488,46.4139526" id="Stroke-7" stroke="#343433" stroke-width="0.5" sketch:type="MSShapeGroup"></path>
            <path d="M41.4380488,46.4139526 L43.8322148,46.4139526 L43.8322148,55.4015545 L53.2177461,46.4139526 L56.3718926,46.4139526 L45.0932363,57.159128 L57.248373,70.3639052 L54.1238066,70.3639052 L43.8322148,59.2078863 L43.8322148,70.3639052 L41.4380488,70.3639052 L41.4380488,46.4139526" id="Fill-8" fill="#343433" sketch:type="MSShapeGroup"></path>
            <path d="M41.4380488,46.4139526 L43.8322148,46.4139526 L43.8322148,55.4015545 L53.2177461,46.4139526 L56.3718926,46.4139526 L45.0932363,57.159128 L57.248373,70.3639052 L54.1238066,70.3639052 L43.8322148,59.2078863 L43.8322148,70.3639052 L41.4380488,70.3639052 L41.4380488,46.4139526 L41.4380488,46.4139526 Z" id="Stroke-9" stroke="#343433" stroke-width="1.81990521" sketch:type="MSShapeGroup"></path>
            <path d="M60.416627,46.4139526 L62.7639199,46.4139526 L62.7639199,70.3639052 L60.416627,70.3639052 L60.416627,46.4139526 Z" id="Fill-10" fill="#343433" sketch:type="MSShapeGroup"></path>
            <path d="M60.416627,46.4139526 L62.7639199,46.4139526 L62.7639199,70.3639052 L60.416627,70.3639052 L60.416627,46.4139526 Z" id="Stroke-11" stroke="#343433" stroke-width="0.5" sketch:type="MSShapeGroup"></path>
            <path d="M60.416627,46.4139526 L62.7639199,46.4139526 L62.7639199,70.3639052 L60.416627,70.3639052 L60.416627,46.4139526 Z" id="Fill-12" fill="#343433" sketch:type="MSShapeGroup"></path>
            <path d="M60.416627,46.4139526 L62.7639199,46.4139526 L62.7639199,70.3639052 L60.416627,70.3639052 L60.416627,46.4139526 Z" id="Stroke-13" stroke="#343433" stroke-width="1.81990521" sketch:type="MSShapeGroup"></path>
            <path d="M90.013543,50.8577062 L88.1590996,52.3068057 C87.1397246,50.9505213 85.9137441,49.9227299 84.479793,49.2220664 C83.0508477,48.5232227 81.4762773,48.172891 79.7633633,48.172891 C77.8902617,48.172891 76.1541387,48.6296872 74.5595449,49.5487393 C72.9617656,50.4650616 71.7262285,51.6971374 70.8479277,53.242237 C69.9691719,54.7891564 69.5322969,56.5294408 69.5322969,58.4612701 C69.5322969,61.3813081 70.5152656,63.8172512 72.4784727,65.7713744 C74.4384941,67.7254976 76.9195801,68.7018768 79.907168,68.7018768 C83.1978379,68.7018768 85.9460547,67.3888152 88.1590996,64.7626919 L90.013543,66.1954123 C88.8408066,67.7145782 87.3831914,68.889327 85.6297754,69.7201137 C83.8827305,70.5499905 81.9231641,70.9658389 79.7633633,70.9658389 C75.6576484,70.9658389 72.4138516,69.5713365 70.0415293,66.7809668 C68.0519277,64.4269194 67.057582,61.5814976 67.057582,58.2501611 C67.057582,54.7436588 68.2635391,51.7945024 70.6718125,49.400872 C73.0855469,47.0076967 76.1008945,45.811564 79.732418,45.811564 C81.9231641,45.811564 83.9018437,46.252891 85.6702773,47.1387299 C87.4364355,48.0222938 88.8844941,49.2621043 90.013543,50.8577062" id="Fill-14" fill="#343433" sketch:type="MSShapeGroup"></path>
            <path d="M90.013543,50.8577062 L88.1590996,52.3068057 C87.1397246,50.9505213 85.9137441,49.9227299 84.479793,49.2220664 C83.0508477,48.5232227 81.4762773,48.172891 79.7633633,48.172891 C77.8902617,48.172891 76.1541387,48.6296872 74.5595449,49.5487393 C72.9617656,50.4650616 71.7262285,51.6971374 70.8479277,53.242237 C69.9691719,54.7891564 69.5322969,56.5294408 69.5322969,58.4612701 C69.5322969,61.3813081 70.5152656,63.8172512 72.4784727,65.7713744 C74.4384941,67.7254976 76.9195801,68.7018768 79.907168,68.7018768 C83.1978379,68.7018768 85.9460547,67.3888152 88.1590996,64.7626919 L90.013543,66.1954123 C88.8408066,67.7145782 87.3831914,68.889327 85.6297754,69.7201137 C83.8827305,70.5499905 81.9231641,70.9658389 79.7633633,70.9658389 C75.6576484,70.9658389 72.4138516,69.5713365 70.0415293,66.7809668 C68.0519277,64.4269194 67.057582,61.5814976 67.057582,58.2501611 C67.057582,54.7436588 68.2635391,51.7945024 70.6718125,49.400872 C73.0855469,47.0076967 76.1008945,45.811564 79.732418,45.811564 C81.9231641,45.811564 83.9018437,46.252891 85.6702773,47.1387299 C87.4364355,48.0222938 88.8844941,49.2621043 90.013543,50.8577062" id="Stroke-15" stroke="#343433" stroke-width="0.5" sketch:type="MSShapeGroup"></path>
            <path d="M90.013543,50.8577062 L88.1590996,52.3068057 C87.1397246,50.9505213 85.9137441,49.9227299 84.479793,49.2220664 C83.0508477,48.5232227 81.4762773,48.172891 79.7633633,48.172891 C77.8902617,48.172891 76.1541387,48.6296872 74.5595449,49.5487393 C72.9617656,50.4650616 71.7262285,51.6971374 70.8479277,53.242237 C69.9691719,54.7891564 69.5322969,56.5294408 69.5322969,58.4612701 C69.5322969,61.3813081 70.5152656,63.8172512 72.4784727,65.7713744 C74.4384941,67.7254976 76.9195801,68.7018768 79.907168,68.7018768 C83.1978379,68.7018768 85.9460547,67.3888152 88.1590996,64.7626919 L90.013543,66.1954123 C88.8408066,67.7145782 87.3831914,68.889327 85.6297754,69.7201137 C83.8827305,70.5499905 81.9231641,70.9658389 79.7633633,70.9658389 C75.6576484,70.9658389 72.4138516,69.5713365 70.0415293,66.7809668 C68.0519277,64.4269194 67.057582,61.5814976 67.057582,58.2501611 C67.057582,54.7436588 68.2635391,51.7945024 70.6718125,49.400872 C73.0855469,47.0076967 76.1008945,45.811564 79.732418,45.811564 C81.9231641,45.811564 83.9018437,46.252891 85.6702773,47.1387299 C87.4364355,48.0222938 88.8844941,49.2621043 90.013543,50.8577062" id="Fill-16" fill="#343433" sketch:type="MSShapeGroup"></path>
            <path d="M90.013543,50.8577062 L88.1590996,52.3068057 C87.1397246,50.9505213 85.9137441,49.9227299 84.479793,49.2220664 C83.0508477,48.5232227 81.4762773,48.172891 79.7633633,48.172891 C77.8902617,48.172891 76.1541387,48.6296872 74.5595449,49.5487393 C72.9617656,50.4650616 71.7262285,51.6971374 70.8479277,53.242237 C69.9691719,54.7891564 69.5322969,56.5294408 69.5322969,58.4612701 C69.5322969,61.3813081 70.5152656,63.8172512 72.4784727,65.7713744 C74.4384941,67.7254976 76.9195801,68.7018768 79.907168,68.7018768 C83.1978379,68.7018768 85.9460547,67.3888152 88.1590996,64.7626919 L90.013543,66.1954123 C88.8408066,67.7145782 87.3831914,68.889327 85.6297754,69.7201137 C83.8827305,70.5499905 81.9231641,70.9658389 79.7633633,70.9658389 C75.6576484,70.9658389 72.4138516,69.5713365 70.0415293,66.7809668 C68.0519277,64.4269194 67.057582,61.5814976 67.057582,58.2501611 C67.057582,54.7436588 68.2635391,51.7945024 70.6718125,49.400872 C73.0855469,47.0076967 76.1008945,45.811564 79.732418,45.811564 C81.9231641,45.811564 83.9018437,46.252891 85.6702773,47.1387299 C87.4364355,48.0222938 88.8844941,49.2621043 90.013543,50.8577062 L90.013543,50.8577062 Z" id="Stroke-17" stroke="#343433" stroke-width="1.81990521" sketch:type="MSShapeGroup"></path>
            <path d="M94.7217812,46.4139526 L97.114582,46.4139526 L97.114582,55.4015545 L106.502844,46.4139526 L109.65335,46.4139526 L98.3765137,57.159128 L110.53074,70.3639052 L107.406174,70.3639052 L97.114582,59.2078863 L97.114582,70.3639052 L94.7217812,70.3639052 L94.7217812,46.4139526" id="Fill-18" fill="#343433" sketch:type="MSShapeGroup"></path>
            <path d="M94.7217812,46.4139526 L97.114582,46.4139526 L97.114582,55.4015545 L106.502844,46.4139526 L109.65335,46.4139526 L98.3765137,57.159128 L110.53074,70.3639052 L107.406174,70.3639052 L97.114582,59.2078863 L97.114582,70.3639052 L94.7217812,70.3639052 L94.7217812,46.4139526" id="Stroke-19" stroke="#343433" stroke-width="0.5" sketch:type="MSShapeGroup"></path>
            <path d="M94.7217812,46.4139526 L97.114582,46.4139526 L97.114582,55.4015545 L106.502844,46.4139526 L109.65335,46.4139526 L98.3765137,57.159128 L110.53074,70.3639052 L107.406174,70.3639052 L97.114582,59.2078863 L97.114582,70.3639052 L94.7217812,70.3639052 L94.7217812,46.4139526" id="Fill-20" fill="#343433" sketch:type="MSShapeGroup"></path>
            <path d="M94.7217812,46.4139526 L97.114582,46.4139526 L97.114582,55.4015545 L106.502844,46.4139526 L109.65335,46.4139526 L98.3765137,57.159128 L110.53074,70.3639052 L107.406174,70.3639052 L97.114582,59.2078863 L97.114582,70.3639052 L94.7217812,70.3639052 L94.7217812,46.4139526 L94.7217812,46.4139526 Z" id="Stroke-21" stroke="#343433" stroke-width="1.81990521" sketch:type="MSShapeGroup"></path>
            <path d="M114.054865,46.4139526 L127.509705,46.4139526 L127.509705,48.7579905 L116.397607,48.7579905 L116.397607,56.2632796 L127.413229,56.2632796 L127.413229,58.6082275 L116.397607,58.6082275 L116.397607,68.0189573 L127.413229,68.0189573 L127.413229,70.3639052 L114.054865,70.3639052 L114.054865,46.4139526" id="Fill-22" fill="#343433" sketch:type="MSShapeGroup"></path>
            <path d="M114.054865,46.4139526 L127.509705,46.4139526 L127.509705,48.7579905 L116.397607,48.7579905 L116.397607,56.2632796 L127.413229,56.2632796 L127.413229,58.6082275 L116.397607,58.6082275 L116.397607,68.0189573 L127.413229,68.0189573 L127.413229,70.3639052 L114.054865,70.3639052 L114.054865,46.4139526" id="Stroke-23" stroke="#343433" stroke-width="0.5" sketch:type="MSShapeGroup"></path>
            <path d="M114.054865,46.4139526 L127.509705,46.4139526 L127.509705,48.7579905 L116.397607,48.7579905 L116.397607,56.2632796 L127.413229,56.2632796 L127.413229,58.6082275 L116.397607,58.6082275 L116.397607,68.0189573 L127.413229,68.0189573 L127.413229,70.3639052 L114.054865,70.3639052 L114.054865,46.4139526" id="Fill-24" fill="#343433" sketch:type="MSShapeGroup"></path>
            <path d="M114.054865,46.4139526 L127.509705,46.4139526 L127.509705,48.7579905 L116.397607,48.7579905 L116.397607,56.2632796 L127.413229,56.2632796 L127.413229,58.6082275 L116.397607,58.6082275 L116.397607,68.0189573 L127.413229,68.0189573 L127.413229,70.3639052 L114.054865,70.3639052 L114.054865,46.4139526 L114.054865,46.4139526 Z" id="Stroke-25" stroke="#343433" stroke-width="1.81990521" sketch:type="MSShapeGroup"></path>
            <path d="M131.691873,46.4139526 L136.367346,46.4139526 C138.977219,46.4139526 140.744287,46.521782 141.668096,46.7397156 C143.062455,47.0645687 144.194234,47.7638673 145.069805,48.8344265 C145.939914,49.9049858 146.377244,51.2221422 146.377244,52.7872607 C146.377244,54.0925877 146.075982,55.2373081 145.4771,56.2259716 C144.875486,57.216 144.016299,57.9635261 142.897717,58.4676398 C141.77959,58.9735735 140.237785,59.232 138.268207,59.2424645 L146.713547,70.3639052 L143.811514,70.3639052 L135.366629,59.2424645 L134.038711,59.2424645 L134.038711,70.3639052 L131.691873,70.3639052 L131.691873,46.4139526 L131.691873,46.4139526 Z M134.038711,48.7579905 L134.038711,56.8975166 L138.084355,56.9316398 C139.648914,56.9316398 140.807543,56.7792227 141.561152,56.4752986 C142.313852,56.1722844 142.897717,55.6863697 143.320029,55.0184645 C143.738701,54.3510142 143.951678,53.6048531 143.951678,52.7795261 C143.951678,51.9760379 143.738701,51.2467109 143.313203,50.5901801 C142.88725,49.9322844 142.328869,49.4632038 141.633055,49.1811185 C140.939971,48.8985782 139.791354,48.7579905 138.178102,48.7579905 L134.038711,48.7579905 L134.038711,48.7579905 Z" id="Fill-26" fill="#343433" sketch:type="MSShapeGroup"></path>
            <path d="M131.691873,46.4139526 L136.367346,46.4139526 C138.977219,46.4139526 140.744287,46.521782 141.668096,46.7397156 C143.062455,47.0645687 144.194234,47.7638673 145.069805,48.8344265 C145.939914,49.9049858 146.377244,51.2221422 146.377244,52.7872607 C146.377244,54.0925877 146.075982,55.2373081 145.4771,56.2259716 C144.875486,57.216 144.016299,57.9635261 142.897717,58.4676398 C141.77959,58.9735735 140.237785,59.232 138.268207,59.2424645 L146.713547,70.3639052 L143.811514,70.3639052 L135.366629,59.2424645 L134.038711,59.2424645 L134.038711,70.3639052 L131.691873,70.3639052 L131.691873,46.4139526 L131.691873,46.4139526 Z M134.038711,48.7579905 L134.038711,56.8975166 L138.084355,56.9316398 C139.648914,56.9316398 140.807543,56.7792227 141.561152,56.4752986 C142.313852,56.1722844 142.897717,55.6863697 143.320029,55.0184645 C143.738701,54.3510142 143.951678,53.6048531 143.951678,52.7795261 C143.951678,51.9760379 143.738701,51.2467109 143.313203,50.5901801 C142.88725,49.9322844 142.328869,49.4632038 141.633055,49.1811185 C140.939971,48.8985782 139.791354,48.7579905 138.178102,48.7579905 L134.038711,48.7579905 L134.038711,48.7579905 Z" id="Stroke-27" stroke="#343433" stroke-width="0.5" sketch:type="MSShapeGroup"></path>
            <path d="M131.691873,46.4139526 L136.367346,46.4139526 C138.977219,46.4139526 140.744287,46.521782 141.668096,46.7397156 C143.062455,47.0645687 144.194234,47.7638673 145.069805,48.8344265 C145.939914,49.9049858 146.377244,51.2221422 146.377244,52.7872607 C146.377244,54.0925877 146.075982,55.2373081 145.4771,56.2259716 C144.875486,57.216 144.016299,57.9635261 142.897717,58.4676398 C141.77959,58.9735735 140.237785,59.232 138.268207,59.2424645 L146.713547,70.3639052 L143.811514,70.3639052 L135.366629,59.2424645 L134.038711,59.2424645 L134.038711,70.3639052 L131.691873,70.3639052 L131.691873,46.4139526 L131.691873,46.4139526 Z M134.038711,48.7579905 L134.038711,56.8975166 L138.084355,56.9316398 C139.648914,56.9316398 140.807543,56.7792227 141.561152,56.4752986 C142.313852,56.1722844 142.897717,55.6863697 143.320029,55.0184645 C143.738701,54.3510142 143.951678,53.6048531 143.951678,52.7795261 C143.951678,51.9760379 143.738701,51.2467109 143.313203,50.5901801 C142.88725,49.9322844 142.328869,49.4632038 141.633055,49.1811185 C140.939971,48.8985782 139.791354,48.7579905 138.178102,48.7579905 L134.038711,48.7579905 L134.038711,48.7579905 Z" id="Fill-28" fill="#343433" sketch:type="MSShapeGroup"></path>
            <path d="M131.691873,46.4139526 L136.367346,46.4139526 C138.977219,46.4139526 140.744287,46.521782 141.668096,46.7397156 C143.062455,47.0645687 144.194234,47.7638673 145.069805,48.8344265 C145.939914,49.9049858 146.377244,51.2221422 146.377244,52.7872607 C146.377244,54.0925877 146.075982,55.2373081 145.4771,56.2259716 C144.875486,57.216 144.016299,57.9635261 142.897717,58.4676398 C141.77959,58.9735735 140.237785,59.232 138.268207,59.2424645 L146.713547,70.3639052 L143.811514,70.3639052 L135.366629,59.2424645 L134.038711,59.2424645 L134.038711,70.3639052 L131.691873,70.3639052 L131.691873,46.4139526 L131.691873,46.4139526 Z M134.038711,48.7579905 L134.038711,56.8975166 L138.084355,56.9316398 C139.648914,56.9316398 140.807543,56.7792227 141.561152,56.4752986 C142.313852,56.1722844 142.897717,55.6863697 143.320029,55.0184645 C143.738701,54.3510142 143.951678,53.6048531 143.951678,52.7795261 C143.951678,51.9760379 143.738701,51.2467109 143.313203,50.5901801 C142.88725,49.9322844 142.328869,49.4632038 141.633055,49.1811185 C140.939971,48.8985782 139.791354,48.7579905 138.178102,48.7579905 L134.038711,48.7579905 L134.038711,48.7579905 Z" id="Stroke-29" stroke="#343433" stroke-width="1.81990521" sketch:type="MSShapeGroup"></path>
            <path d="M151.405402,46.4139526 L153.75224,46.4139526 L153.75224,68.0512607 L162.788271,68.0512607 L162.788271,70.3639052 L151.405402,70.3639052 L151.405402,46.4139526" id="Fill-30" fill="#343433" sketch:type="MSShapeGroup"></path>
            <path d="M151.405402,46.4139526 L153.75224,46.4139526 L153.75224,68.0512607 L162.788271,68.0512607 L162.788271,70.3639052 L151.405402,70.3639052 L151.405402,46.4139526" id="Stroke-31" stroke="#343433" stroke-width="0.5" sketch:type="MSShapeGroup"></path>
            <path d="M151.405402,46.4139526 L153.75224,46.4139526 L153.75224,68.0512607 L162.788271,68.0512607 L162.788271,70.3639052 L151.405402,70.3639052 L151.405402,46.4139526" id="Fill-32" fill="#343433" sketch:type="MSShapeGroup"></path>
            <path d="M151.405402,46.4139526 L153.75224,46.4139526 L153.75224,68.0512607 L162.788271,68.0512607 L162.788271,70.3639052 L151.405402,70.3639052 L151.405402,46.4139526 L151.405402,46.4139526 Z" id="Stroke-33" stroke="#343433" stroke-width="1.81990521" sketch:type="MSShapeGroup"></path>
            <path d="M166.170412,46.4139526 L168.51998,46.4139526 L168.51998,70.3639052 L166.170412,70.3639052 L166.170412,46.4139526 Z" id="Fill-34" fill="#343433" sketch:type="MSShapeGroup"></path>
            <path d="M166.170412,46.4139526 L168.51998,46.4139526 L168.51998,70.3639052 L166.170412,70.3639052 L166.170412,46.4139526 Z" id="Stroke-35" stroke="#343433" stroke-width="0.5" sketch:type="MSShapeGroup"></path>
            <path d="M166.170412,46.4139526 L168.51998,46.4139526 L168.51998,70.3639052 L166.170412,70.3639052 L166.170412,46.4139526 Z" id="Fill-36" fill="#343433" sketch:type="MSShapeGroup"></path>
            <path d="M166.170412,46.4139526 L168.51998,46.4139526 L168.51998,70.3639052 L166.170412,70.3639052 L166.170412,46.4139526 Z" id="Stroke-37" stroke="#343433" stroke-width="1.81990521" sketch:type="MSShapeGroup"></path>
            <path d="M196.548697,50.4350332 L194.72884,52.1921517 C193.42049,50.880455 191.986994,49.8831469 190.428352,49.2052322 C188.868799,48.5277725 187.351113,48.1888152 185.870744,48.1888152 C184.029498,48.1888152 182.276082,48.6497062 180.610041,49.5723981 C178.943545,50.4946351 177.653398,51.7453649 176.739602,53.3241327 C175.823529,54.9038104 175.366176,56.5722085 175.366176,58.3320569 C175.366176,60.1323981 175.840367,61.8458389 176.787385,63.4678294 C177.736223,65.0911848 179.044572,66.3660284 180.712889,67.2928152 C182.38348,68.2218768 184.215625,68.6854976 186.203861,68.6854976 C188.622602,68.6854976 190.665447,67.9921137 192.336039,66.6017062 C194.004355,65.2122085 194.994605,63.4109573 195.305424,61.1965877 L187.817568,61.1965877 L187.817568,58.8843981 L197.939871,58.8843981 C197.918482,62.5860853 196.839492,65.5252322 194.706996,67.7004739 C192.57177,69.8766256 189.71843,70.9658389 186.142881,70.9658389 C181.80098,70.9658389 178.36241,69.4566825 175.82808,66.4379147 C173.883986,64.1170806 172.909209,61.4304455 172.909209,58.3802844 C172.909209,56.1113175 173.46941,54.0002275 174.585717,52.0465592 C175.700203,50.092436 177.234727,48.5637156 179.183826,47.4640379 C181.13065,46.3620853 183.334594,45.811564 185.791561,45.811564 C187.779797,45.811564 189.656084,46.1778199 191.410865,46.9107867 C193.167467,47.6428436 194.879016,48.8175924 196.548697,50.4350332" id="Fill-38" fill="#343433" sketch:type="MSShapeGroup"></path>
            <path d="M196.548697,50.4350332 L194.72884,52.1921517 C193.42049,50.880455 191.986994,49.8831469 190.428352,49.2052322 C188.868799,48.5277725 187.351113,48.1888152 185.870744,48.1888152 C184.029498,48.1888152 182.276082,48.6497062 180.610041,49.5723981 C178.943545,50.4946351 177.653398,51.7453649 176.739602,53.3241327 C175.823529,54.9038104 175.366176,56.5722085 175.366176,58.3320569 C175.366176,60.1323981 175.840367,61.8458389 176.787385,63.4678294 C177.736223,65.0911848 179.044572,66.3660284 180.712889,67.2928152 C182.38348,68.2218768 184.215625,68.6854976 186.203861,68.6854976 C188.622602,68.6854976 190.665447,67.9921137 192.336039,66.6017062 C194.004355,65.2122085 194.994605,63.4109573 195.305424,61.1965877 L187.817568,61.1965877 L187.817568,58.8843981 L197.939871,58.8843981 C197.918482,62.5860853 196.839492,65.5252322 194.706996,67.7004739 C192.57177,69.8766256 189.71843,70.9658389 186.142881,70.9658389 C181.80098,70.9658389 178.36241,69.4566825 175.82808,66.4379147 C173.883986,64.1170806 172.909209,61.4304455 172.909209,58.3802844 C172.909209,56.1113175 173.46941,54.0002275 174.585717,52.0465592 C175.700203,50.092436 177.234727,48.5637156 179.183826,47.4640379 C181.13065,46.3620853 183.334594,45.811564 185.791561,45.811564 C187.779797,45.811564 189.656084,46.1778199 191.410865,46.9107867 C193.167467,47.6428436 194.879016,48.8175924 196.548697,50.4350332" id="Stroke-39" stroke="#343433" stroke-width="0.5" sketch:type="MSShapeGroup"></path>
            <path d="M196.548697,50.4350332 L194.72884,52.1921517 C193.42049,50.880455 191.986994,49.8831469 190.428352,49.2052322 C188.868799,48.5277725 187.351113,48.1888152 185.870744,48.1888152 C184.029498,48.1888152 182.276082,48.6497062 180.610041,49.5723981 C178.943545,50.4946351 177.653398,51.7453649 176.739602,53.3241327 C175.823529,54.9038104 175.366176,56.5722085 175.366176,58.3320569 C175.366176,60.1323981 175.840367,61.8458389 176.787385,63.4678294 C177.736223,65.0911848 179.044572,66.3660284 180.712889,67.2928152 C182.38348,68.2218768 184.215625,68.6854976 186.203861,68.6854976 C188.622602,68.6854976 190.665447,67.9921137 192.336039,66.6017062 C194.004355,65.2122085 194.994605,63.4109573 195.305424,61.1965877 L187.817568,61.1965877 L187.817568,58.8843981 L197.939871,58.8843981 C197.918482,62.5860853 196.839492,65.5252322 194.706996,67.7004739 C192.57177,69.8766256 189.71843,70.9658389 186.142881,70.9658389 C181.80098,70.9658389 178.36241,69.4566825 175.82808,66.4379147 C173.883986,64.1170806 172.909209,61.4304455 172.909209,58.3802844 C172.909209,56.1113175 173.46941,54.0002275 174.585717,52.0465592 C175.700203,50.092436 177.234727,48.5637156 179.183826,47.4640379 C181.13065,46.3620853 183.334594,45.811564 185.791561,45.811564 C187.779797,45.811564 189.656084,46.1778199 191.410865,46.9107867 C193.167467,47.6428436 194.879016,48.8175924 196.548697,50.4350332" id="Fill-40" fill="#343433" sketch:type="MSShapeGroup"></path>
            <path d="M196.548697,50.4350332 L194.72884,52.1921517 C193.42049,50.880455 191.986994,49.8831469 190.428352,49.2052322 C188.868799,48.5277725 187.351113,48.1888152 185.870744,48.1888152 C184.029498,48.1888152 182.276082,48.6497062 180.610041,49.5723981 C178.943545,50.4946351 177.653398,51.7453649 176.739602,53.3241327 C175.823529,54.9038104 175.366176,56.5722085 175.366176,58.3320569 C175.366176,60.1323981 175.840367,61.8458389 176.787385,63.4678294 C177.736223,65.0911848 179.044572,66.3660284 180.712889,67.2928152 C182.38348,68.2218768 184.215625,68.6854976 186.203861,68.6854976 C188.622602,68.6854976 190.665447,67.9921137 192.336039,66.6017062 C194.004355,65.2122085 194.994605,63.4109573 195.305424,61.1965877 L187.817568,61.1965877 L187.817568,58.8843981 L197.939871,58.8843981 C197.918482,62.5860853 196.839492,65.5252322 194.706996,67.7004739 C192.57177,69.8766256 189.71843,70.9658389 186.142881,70.9658389 C181.80098,70.9658389 178.36241,69.4566825 175.82808,66.4379147 C173.883986,64.1170806 172.909209,61.4304455 172.909209,58.3802844 C172.909209,56.1113175 173.46941,54.0002275 174.585717,52.0465592 C175.700203,50.092436 177.234727,48.5637156 179.183826,47.4640379 C181.13065,46.3620853 183.334594,45.811564 185.791561,45.811564 C187.779797,45.811564 189.656084,46.1778199 191.410865,46.9107867 C193.167467,47.6428436 194.879016,48.8175924 196.548697,50.4350332 L196.548697,50.4350332 Z" id="Stroke-41" stroke="#343433" stroke-width="1.81990521" sketch:type="MSShapeGroup"></path>
            <path d="M212.00133,46.4139526 L222.95233,70.3639052 L220.41891,70.3639052 L216.724586,62.4832607 L206.609109,62.4832607 L202.948916,70.3639052 L200.334037,70.3639052 L211.427932,46.4139526 L212.00133,46.4139526 L212.00133,46.4139526 Z M211.702344,51.5019526 L207.683094,60.1706161 L215.709762,60.1706161 L211.702344,51.5019526 L211.702344,51.5019526 Z" id="Fill-42" fill="#343433" sketch:type="MSShapeGroup"></path>
            <path d="M212.00133,46.4139526 L222.95233,70.3639052 L220.41891,70.3639052 L216.724586,62.4832607 L206.609109,62.4832607 L202.948916,70.3639052 L200.334037,70.3639052 L211.427932,46.4139526 L212.00133,46.4139526 L212.00133,46.4139526 Z M211.702344,51.5019526 L207.683094,60.1706161 L215.709762,60.1706161 L211.702344,51.5019526 L211.702344,51.5019526 Z" id="Stroke-43" stroke="#343433" stroke-width="0.5" sketch:type="MSShapeGroup"></path>
            <path d="M212.00133,46.4139526 L222.95233,70.3639052 L220.41891,70.3639052 L216.724586,62.4832607 L206.609109,62.4832607 L202.948916,70.3639052 L200.334037,70.3639052 L211.427932,46.4139526 L212.00133,46.4139526 L212.00133,46.4139526 Z M211.702344,51.5019526 L207.683094,60.1706161 L215.709762,60.1706161 L211.702344,51.5019526 L211.702344,51.5019526 Z" id="Fill-44" fill="#343433" sketch:type="MSShapeGroup"></path>
            <path d="M212.00133,46.4139526 L222.95233,70.3639052 L220.41891,70.3639052 L216.724586,62.4832607 L206.609109,62.4832607 L202.948916,70.3639052 L200.334037,70.3639052 L211.427932,46.4139526 L212.00133,46.4139526 L212.00133,46.4139526 Z M211.702344,51.5019526 L207.683094,60.1706161 L215.709762,60.1706161 L211.702344,51.5019526 L211.702344,51.5019526 Z" id="Stroke-45" stroke="#343433" stroke-width="1.81990521" sketch:type="MSShapeGroup"></path>
            <path d="M51.620877,75.4200569 L53.3378867,75.4200569 C54.3226758,75.4200569 54.9866348,75.4628246 55.3311289,75.5488152 C55.8221582,75.6693839 56.2262676,75.9191659 56.5379961,76.2954313 C56.8515449,76.6721517 57.0067266,77.145782 57.0067266,77.7158673 C57.0067266,78.2895924 56.8542754,78.7645877 56.5502832,79.1372133 C56.2440156,79.5107488 55.8257988,79.7618957 55.2888066,79.8901991 C54.8978945,79.9843791 54.1670391,80.0303318 53.0980605,80.0303318 L52.4837051,80.0303318 L52.4837051,84.0368531 L51.620877,84.0368531 L51.620877,75.4200569 L51.620877,75.4200569 Z M52.4837051,76.2640379 L52.4837051,79.1868057 L53.9417754,79.2054597 C54.5315566,79.2054597 54.9625156,79.1504076 55.2369277,79.0439431 C55.5099746,78.9356588 55.7252266,78.7618578 55.8826836,78.5234502 C56.0374102,78.2845877 56.1161387,78.0152417 56.1161387,77.7199621 C56.1161387,77.4310521 56.0374102,77.1671659 55.8826836,76.9264834 C55.7252266,76.6876209 55.5199863,76.5170047 55.2646875,76.415545 C55.0071133,76.3140853 54.5879863,76.2640379 54.0054863,76.2640379 L52.4837051,76.2640379 L52.4837051,76.2640379 Z" id="Fill-46" fill="#343433" sketch:type="MSShapeGroup"></path>
            <path d="M51.620877,75.4200569 L53.3378867,75.4200569 C54.3226758,75.4200569 54.9866348,75.4628246 55.3311289,75.5488152 C55.8221582,75.6693839 56.2262676,75.9191659 56.5379961,76.2954313 C56.8515449,76.6721517 57.0067266,77.145782 57.0067266,77.7158673 C57.0067266,78.2895924 56.8542754,78.7645877 56.5502832,79.1372133 C56.2440156,79.5107488 55.8257988,79.7618957 55.2888066,79.8901991 C54.8978945,79.9843791 54.1670391,80.0303318 53.0980605,80.0303318 L52.4837051,80.0303318 L52.4837051,84.0368531 L51.620877,84.0368531 L51.620877,75.4200569 L51.620877,75.4200569 Z M52.4837051,76.2640379 L52.4837051,79.1868057 L53.9417754,79.2054597 C54.5315566,79.2054597 54.9625156,79.1504076 55.2369277,79.0439431 C55.5099746,78.9356588 55.7252266,78.7618578 55.8826836,78.5234502 C56.0374102,78.2845877 56.1161387,78.0152417 56.1161387,77.7199621 C56.1161387,77.4310521 56.0374102,77.1671659 55.8826836,76.9264834 C55.7252266,76.6876209 55.5199863,76.5170047 55.2646875,76.415545 C55.0071133,76.3140853 54.5879863,76.2640379 54.0054863,76.2640379 L52.4837051,76.2640379 L52.4837051,76.2640379 Z" id="Stroke-47" stroke="#343433" stroke-width="0.5" sketch:type="MSShapeGroup"></path>
            <path d="M74.1895664,75.4200569 L78.2129121,84.0368531 L77.2790918,84.0368531 L75.9247793,81.2018957 L72.2099766,81.2018957 L70.8674961,84.0368531 L69.9063711,84.0368531 L73.9788652,75.4200569 L74.1895664,75.4200569 L74.1895664,75.4200569 Z M74.0817129,77.2504265 L72.6036191,80.370654 L75.5507051,80.370654 L74.0817129,77.2504265 L74.0817129,77.2504265 Z" id="Fill-48" fill="#343433" sketch:type="MSShapeGroup"></path>
            <path d="M74.1895664,75.4200569 L78.2129121,84.0368531 L77.2790918,84.0368531 L75.9247793,81.2018957 L72.2099766,81.2018957 L70.8674961,84.0368531 L69.9063711,84.0368531 L73.9788652,75.4200569 L74.1895664,75.4200569 L74.1895664,75.4200569 Z M74.0817129,77.2504265 L72.6036191,80.370654 L75.5507051,80.370654 L74.0817129,77.2504265 L74.0817129,77.2504265 Z" id="Stroke-49" stroke="#343433" stroke-width="0.5" sketch:type="MSShapeGroup"></path>
            <path d="M91.1125566,84.0368531 L91.1125566,75.4200569 L92.9019238,75.4200569 C94.1893398,75.4200569 95.1263457,75.5237915 95.7093008,75.7298957 C96.5443691,76.0233555 97.1983164,76.5301991 97.6697773,77.2549763 C98.139418,77.9761137 98.3742383,78.8364739 98.3742383,79.8374218 C98.3742383,80.7005118 98.1881113,81.4589573 97.8140371,82.1154882 C97.4413281,82.772019 96.9566699,83.2561137 96.362793,83.5682275 C95.7675508,83.8807962 94.9306621,84.0368531 93.8557676,84.0368531 L91.1125566,84.0368531 L91.1125566,84.0368531 Z M91.9394336,83.2219905 L92.937875,83.2219905 C94.1279043,83.2219905 94.9538711,83.1487393 95.4144102,82.9999621 C96.0633516,82.7893081 96.5730391,82.4112227 96.9439277,81.8625213 C97.3157266,81.3142749 97.5009434,80.6436398 97.5009434,79.8515261 C97.5009434,79.0202844 97.2997988,78.3100664 96.8975098,77.7204171 C96.4952207,77.1312227 95.9341094,76.7281137 95.2159961,76.5092701 C94.6767285,76.3459336 93.7879609,76.2640379 92.5487832,76.2640379 L91.9394336,76.2640379 L91.9394336,83.2219905 L91.9394336,83.2219905 Z" id="Fill-50" fill="#343433" sketch:type="MSShapeGroup"></path>
            <path d="M91.1125566,84.0368531 L91.1125566,75.4200569 L92.9019238,75.4200569 C94.1893398,75.4200569 95.1263457,75.5237915 95.7093008,75.7298957 C96.5443691,76.0233555 97.1983164,76.5301991 97.6697773,77.2549763 C98.139418,77.9761137 98.3742383,78.8364739 98.3742383,79.8374218 C98.3742383,80.7005118 98.1881113,81.4589573 97.8140371,82.1154882 C97.4413281,82.772019 96.9566699,83.2561137 96.362793,83.5682275 C95.7675508,83.8807962 94.9306621,84.0368531 93.8557676,84.0368531 L91.1125566,84.0368531 L91.1125566,84.0368531 Z M91.9394336,83.2219905 L92.937875,83.2219905 C94.1279043,83.2219905 94.9538711,83.1487393 95.4144102,82.9999621 C96.0633516,82.7893081 96.5730391,82.4112227 96.9439277,81.8625213 C97.3157266,81.3142749 97.5009434,80.6436398 97.5009434,79.8515261 C97.5009434,79.0202844 97.2997988,78.3100664 96.8975098,77.7204171 C96.4952207,77.1312227 95.9341094,76.7281137 95.2159961,76.5092701 C94.6767285,76.3459336 93.7879609,76.2640379 92.5487832,76.2640379 L91.9394336,76.2640379 L91.9394336,83.2219905 L91.9394336,83.2219905 Z" id="Stroke-51" stroke="#343433" stroke-width="0.5" sketch:type="MSShapeGroup"></path>
            <path d="M111.274338,75.4200569 L116.215576,75.4200569 L116.215576,76.2640379 L112.134436,76.2640379 L112.134436,78.9638673 L116.178715,78.9638673 L116.178715,79.8078483 L112.134436,79.8078483 L112.134436,83.193327 L116.178715,83.193327 L116.178715,84.0368531 L111.274338,84.0368531 L111.274338,75.4200569" id="Fill-52" fill="#343433" sketch:type="MSShapeGroup"></path>
            <path d="M111.274338,75.4200569 L116.215576,75.4200569 L116.215576,76.2640379 L112.134436,76.2640379 L112.134436,78.9638673 L116.178715,78.9638673 L116.178715,79.8078483 L112.134436,79.8078483 L112.134436,83.193327 L116.178715,83.193327 L116.178715,84.0368531 L111.274338,84.0368531 L111.274338,75.4200569" id="Stroke-53" stroke="#343433" stroke-width="0.5" sketch:type="MSShapeGroup"></path>
            <path d="M129.115676,75.4200569 L130.830865,75.4200569 C131.79108,75.4200569 132.438656,75.4591848 132.777689,75.5374408 C133.289652,75.6543697 133.705594,75.9050616 134.027334,76.2908815 C134.347254,76.6762464 134.506986,77.1507867 134.506986,77.7135924 C134.506986,78.183128 134.396857,78.5953365 134.175689,78.9515829 C133.954066,79.3073744 133.640518,79.5749005 133.230947,79.756891 C132.819102,79.9393365 132.252984,80.0312417 131.53032,80.0353365 L134.631678,84.0368531 L133.564064,84.0368531 L130.463162,80.0353365 L129.977594,80.0353365 L129.977594,84.0368531 L129.115676,84.0368531 L129.115676,75.4200569 L129.115676,75.4200569 Z M129.977594,76.2640379 L129.977594,79.1936303 L131.462969,79.2054597 C132.036367,79.2054597 132.463686,79.1490427 132.740373,79.0393934 C133.015695,78.931109 133.230947,78.7563981 133.384764,78.5157156 C133.539035,78.2759431 133.615488,78.0065972 133.615488,77.7108626 C133.615488,77.4210427 133.538125,77.1589763 133.382943,76.9223886 C133.225486,76.6858009 133.020246,76.5174597 132.766768,76.415545 C132.511924,76.3140853 132.088701,76.2640379 131.496645,76.2640379 L129.977594,76.2640379 L129.977594,76.2640379 Z" id="Fill-54" fill="#343433" sketch:type="MSShapeGroup"></path>
            <path d="M129.115676,75.4200569 L130.830865,75.4200569 C131.79108,75.4200569 132.438656,75.4591848 132.777689,75.5374408 C133.289652,75.6543697 133.705594,75.9050616 134.027334,76.2908815 C134.347254,76.6762464 134.506986,77.1507867 134.506986,77.7135924 C134.506986,78.183128 134.396857,78.5953365 134.175689,78.9515829 C133.954066,79.3073744 133.640518,79.5749005 133.230947,79.756891 C132.819102,79.9393365 132.252984,80.0312417 131.53032,80.0353365 L134.631678,84.0368531 L133.564064,84.0368531 L130.463162,80.0353365 L129.977594,80.0353365 L129.977594,84.0368531 L129.115676,84.0368531 L129.115676,75.4200569 L129.115676,75.4200569 Z M129.977594,76.2640379 L129.977594,79.1936303 L131.462969,79.2054597 C132.036367,79.2054597 132.463686,79.1490427 132.740373,79.0393934 C133.015695,78.931109 133.230947,78.7563981 133.384764,78.5157156 C133.539035,78.2759431 133.615488,78.0065972 133.615488,77.7108626 C133.615488,77.4210427 133.538125,77.1589763 133.382943,76.9223886 C133.225486,76.6858009 133.020246,76.5174597 132.766768,76.415545 C132.511924,76.3140853 132.088701,76.2640379 131.496645,76.2640379 L129.977594,76.2640379 L129.977594,76.2640379 Z" id="Stroke-55" stroke="#343433" stroke-width="0.5" sketch:type="MSShapeGroup"></path>
            <path d="M147.531322,75.4200569 L149.232859,75.4200569 C149.915021,75.4200569 150.440637,75.5014976 150.80834,75.6634692 C151.174678,75.8240758 151.465473,76.0743128 151.678904,76.4096303 C151.890516,76.7454028 151.997004,77.1180284 151.997004,77.528872 C151.997004,77.9110521 151.903713,78.2604739 151.718496,78.5744076 C151.531004,78.8887962 151.256137,79.143128 150.89526,79.3392227 C151.343057,79.4916398 151.688461,79.6704455 151.929652,79.8751848 C152.170389,80.0794692 152.359701,80.3283412 152.493494,80.6195261 C152.626832,80.908891 152.695094,81.2246445 152.695094,81.5658768 C152.695094,82.2569858 152.44207,82.8407204 151.934658,83.3198104 C151.430887,83.7984455 150.752365,84.0368531 149.899549,84.0368531 L147.531322,84.0368531 L147.531322,75.4200569 L147.531322,75.4200569 Z M148.375947,76.2640379 L148.375947,79.0230142 L148.869252,79.0230142 C149.46859,79.0230142 149.908195,78.9670521 150.190799,78.855128 C150.471582,78.7445687 150.695025,78.5689479 150.860219,78.3287204 C151.024957,78.0880379 151.105506,77.8214218 151.105506,77.528872 C151.105506,77.1344076 150.967162,76.8245687 150.69275,76.5993555 C150.415607,76.3750521 149.976457,76.2640379 149.374844,76.2640379 L148.375947,76.2640379 L148.375947,76.2640379 Z M148.375947,79.8901991 L148.375947,83.193327 L149.444926,83.193327 C150.073389,83.193327 150.534838,83.1319052 150.830184,83.0095166 C151.123254,82.886218 151.358529,82.694218 151.537375,82.4316967 C151.7144,82.1700853 151.804051,81.88709 151.804051,81.5827109 C151.804051,81.2000758 151.678904,80.8661232 151.428611,80.5813081 C151.177408,80.2960379 150.835189,80.1003981 150.396494,79.9948436 C150.102969,79.9243223 149.591461,79.8901991 148.863336,79.8901991 L148.375947,79.8901991 L148.375947,79.8901991 Z" id="Fill-56" fill="#343433" sketch:type="MSShapeGroup"></path>
            <path d="M147.531322,75.4200569 L149.232859,75.4200569 C149.915021,75.4200569 150.440637,75.5014976 150.80834,75.6634692 C151.174678,75.8240758 151.465473,76.0743128 151.678904,76.4096303 C151.890516,76.7454028 151.997004,77.1180284 151.997004,77.528872 C151.997004,77.9110521 151.903713,78.2604739 151.718496,78.5744076 C151.531004,78.8887962 151.256137,79.143128 150.89526,79.3392227 C151.343057,79.4916398 151.688461,79.6704455 151.929652,79.8751848 C152.170389,80.0794692 152.359701,80.3283412 152.493494,80.6195261 C152.626832,80.908891 152.695094,81.2246445 152.695094,81.5658768 C152.695094,82.2569858 152.44207,82.8407204 151.934658,83.3198104 C151.430887,83.7984455 150.752365,84.0368531 149.899549,84.0368531 L147.531322,84.0368531 L147.531322,75.4200569 L147.531322,75.4200569 Z M148.375947,76.2640379 L148.375947,79.0230142 L148.869252,79.0230142 C149.46859,79.0230142 149.908195,78.9670521 150.190799,78.855128 C150.471582,78.7445687 150.695025,78.5689479 150.860219,78.3287204 C151.024957,78.0880379 151.105506,77.8214218 151.105506,77.528872 C151.105506,77.1344076 150.967162,76.8245687 150.69275,76.5993555 C150.415607,76.3750521 149.976457,76.2640379 149.374844,76.2640379 L148.375947,76.2640379 L148.375947,76.2640379 Z M148.375947,79.8901991 L148.375947,83.193327 L149.444926,83.193327 C150.073389,83.193327 150.534838,83.1319052 150.830184,83.0095166 C151.123254,82.886218 151.358529,82.694218 151.537375,82.4316967 C151.7144,82.1700853 151.804051,81.88709 151.804051,81.5827109 C151.804051,81.2000758 151.678904,80.8661232 151.428611,80.5813081 C151.177408,80.2960379 150.835189,80.1003981 150.396494,79.9948436 C150.102969,79.9243223 149.591461,79.8901991 148.863336,79.8901991 L148.375947,79.8901991 L148.375947,79.8901991 Z" id="Stroke-57" stroke="#343433" stroke-width="0.5" sketch:type="MSShapeGroup"></path>
            <path d="M170.083174,75.2030332 C171.388793,75.2030332 172.481436,75.6384455 173.361102,76.5092701 C174.241223,77.3805498 174.681283,78.4524739 174.681283,79.7259526 C174.681283,80.9871469 174.241223,82.0567962 173.364742,82.9349005 C172.486441,83.8157346 171.416553,84.2538768 170.153256,84.2538768 C168.873576,84.2538768 167.794586,83.8166445 166.916285,82.9408152 C166.037074,82.0668057 165.594738,81.0089858 165.594738,79.7659905 C165.594738,78.9392986 165.797248,78.1712986 166.198172,77.4651754 C166.598186,76.7567773 167.142004,76.2035261 167.836453,75.8031469 C168.527717,75.4041327 169.27632,75.2030332 170.083174,75.2030332 L170.083174,75.2030332 Z M170.12049,76.0406445 C169.483381,76.0406445 168.878127,76.2058009 168.306549,76.5397536 C167.734971,76.8718863 167.289449,77.3195829 166.968619,77.8819336 C166.647789,78.4438294 166.486236,79.0726066 166.486236,79.7641706 C166.486236,80.7883223 166.842562,81.6532322 167.552939,82.3579905 C168.262861,83.0632038 169.118863,83.4162654 170.12049,83.4162654 C170.79082,83.4162654 171.408361,83.2542938 171.977209,82.9294408 C172.546967,82.6059526 172.993398,82.1618957 173.311498,81.599545 C173.630508,81.0362844 173.787965,80.4106919 173.787965,79.7223128 C173.787965,79.0393934 173.630508,78.4197156 173.311498,77.8673744 C172.993398,77.3141232 172.542416,76.8718863 171.963102,76.5397536 C171.385152,76.2058009 170.770342,76.0406445 170.12049,76.0406445 L170.12049,76.0406445 Z" id="Fill-58" fill="#343433" sketch:type="MSShapeGroup"></path>
            <path d="M170.083174,75.2030332 C171.388793,75.2030332 172.481436,75.6384455 173.361102,76.5092701 C174.241223,77.3805498 174.681283,78.4524739 174.681283,79.7259526 C174.681283,80.9871469 174.241223,82.0567962 173.364742,82.9349005 C172.486441,83.8157346 171.416553,84.2538768 170.153256,84.2538768 C168.873576,84.2538768 167.794586,83.8166445 166.916285,82.9408152 C166.037074,82.0668057 165.594738,81.0089858 165.594738,79.7659905 C165.594738,78.9392986 165.797248,78.1712986 166.198172,77.4651754 C166.598186,76.7567773 167.142004,76.2035261 167.836453,75.8031469 C168.527717,75.4041327 169.27632,75.2030332 170.083174,75.2030332 L170.083174,75.2030332 Z M170.12049,76.0406445 C169.483381,76.0406445 168.878127,76.2058009 168.306549,76.5397536 C167.734971,76.8718863 167.289449,77.3195829 166.968619,77.8819336 C166.647789,78.4438294 166.486236,79.0726066 166.486236,79.7641706 C166.486236,80.7883223 166.842562,81.6532322 167.552939,82.3579905 C168.262861,83.0632038 169.118863,83.4162654 170.12049,83.4162654 C170.79082,83.4162654 171.408361,83.2542938 171.977209,82.9294408 C172.546967,82.6059526 172.993398,82.1618957 173.311498,81.599545 C173.630508,81.0362844 173.787965,80.4106919 173.787965,79.7223128 C173.787965,79.0393934 173.630508,78.4197156 173.311498,77.8673744 C172.993398,77.3141232 172.542416,76.8718863 171.963102,76.5397536 C171.385152,76.2058009 170.770342,76.0406445 170.12049,76.0406445 L170.12049,76.0406445 Z" id="Stroke-59" stroke="#343433" stroke-width="0.5" sketch:type="MSShapeGroup"></path>
            <path d="M187.580473,75.4200569 L189.298848,75.4200569 C190.254967,75.4200569 190.903908,75.4591848 191.242486,75.5374408 C191.755359,75.6543697 192.170391,75.9050616 192.491221,76.2908815 C192.812051,76.6762464 192.973148,77.1507867 192.973148,77.7135924 C192.973148,78.183128 192.862109,78.5953365 192.641396,78.9515829 C192.420229,79.3073744 192.10577,79.5749005 191.694834,79.756891 C191.286174,79.9393365 190.717326,80.0312417 189.997393,80.0353365 L193.094199,84.0368531 L192.031137,84.0368531 L188.930689,80.0353365 L188.441025,80.0353365 L188.441025,84.0368531 L187.580473,84.0368531 L187.580473,75.4200569 L187.580473,75.4200569 Z M188.441025,76.2640379 L188.441025,79.1936303 L189.928221,79.2054597 C190.502074,79.2054597 190.928027,79.1490427 191.202439,79.0393934 C191.480037,78.931109 191.694834,78.7563981 191.849561,78.5157156 C192.004287,78.2759431 192.08074,78.0065972 192.08074,77.7108626 C192.08074,77.4210427 192.003377,77.1589763 191.84683,76.9223886 C191.689828,76.6858009 191.483678,76.5174597 191.231109,76.415545 C190.976721,76.3140853 190.552133,76.2640379 189.962807,76.2640379 L188.441025,76.2640379 L188.441025,76.2640379 Z" id="Fill-60" fill="#343433" sketch:type="MSShapeGroup"></path>
            <path d="M187.580473,75.4200569 L189.298848,75.4200569 C190.254967,75.4200569 190.903908,75.4591848 191.242486,75.5374408 C191.755359,75.6543697 192.170391,75.9050616 192.491221,76.2908815 C192.812051,76.6762464 192.973148,77.1507867 192.973148,77.7135924 C192.973148,78.183128 192.862109,78.5953365 192.641396,78.9515829 C192.420229,79.3073744 192.10577,79.5749005 191.694834,79.756891 C191.286174,79.9393365 190.717326,80.0312417 189.997393,80.0353365 L193.094199,84.0368531 L192.031137,84.0368531 L188.930689,80.0353365 L188.441025,80.0353365 L188.441025,84.0368531 L187.580473,84.0368531 L187.580473,75.4200569 L187.580473,75.4200569 Z M188.441025,76.2640379 L188.441025,79.1936303 L189.928221,79.2054597 C190.502074,79.2054597 190.928027,79.1490427 191.202439,79.0393934 C191.480037,78.931109 191.694834,78.7563981 191.849561,78.5157156 C192.004287,78.2759431 192.08074,78.0065972 192.08074,77.7108626 C192.08074,77.4210427 192.003377,77.1589763 191.84683,76.9223886 C191.689828,76.6858009 191.483678,76.5174597 191.231109,76.415545 C190.976721,76.3140853 190.552133,76.2640379 189.962807,76.2640379 L188.441025,76.2640379 L188.441025,76.2640379 Z" id="Stroke-61" stroke="#343433" stroke-width="0.5" sketch:type="MSShapeGroup"></path>
            <path d="M205.993844,84.0368531 L205.993844,75.4200569 L206.182701,75.4200569 L211.919871,82.0249479 L211.919871,75.4200569 L212.769502,75.4200569 L212.769502,84.0368531 L212.577459,84.0368531 L206.885342,77.511128 L206.885342,84.0368531 L205.993844,84.0368531" id="Fill-62" fill="#343433" sketch:type="MSShapeGroup"></path>
            <path d="M205.993844,84.0368531 L205.993844,75.4200569 L206.182701,75.4200569 L211.919871,82.0249479 L211.919871,75.4200569 L212.769502,75.4200569 L212.769502,84.0368531 L212.577459,84.0368531 L206.885342,77.511128 L206.885342,84.0368531 L205.993844,84.0368531" id="Stroke-63" stroke="#343433" stroke-width="0.5" sketch:type="MSShapeGroup"></path>
            <g id="Group-69" sketch:type="MSShapeGroup">
                <path d="M26.7099004,53.3036588 C26.4987441,53.3141232 26.2702949,52.9824455 26.049582,52.8090995 C26.27075,52.627109 26.4696191,52.3295545 26.7162715,52.2826919 C27.8444102,52.0683981 28.9875664,51.935545 30.121166,51.7508246 C30.9312051,51.6188815 31.210168,52.0875071 31.4395273,52.953782 C29.7757617,53.0861801 28.2439688,53.2290427 26.7099004,53.3036588 L26.7099004,53.3036588 Z M23.8693027,70.94491 C23.8046816,70.94309 23.7491621,70.5704645 23.690002,70.368455 C24.0941113,70.3279621 24.4986758,70.2879242 24.9032402,70.2483412 C24.9209883,70.4407962 24.9387363,70.6341611 24.9560293,70.8270711 C24.5937871,70.8757536 24.2301797,70.9558294 23.8693027,70.94491 L23.8693027,70.94491 Z M19.9515352,54.9579526 C19.3048691,54.8806066 18.6877832,53.8614597 19.0040625,53.299109 C19.1565137,53.0270332 19.9647324,52.7736114 20.0407305,52.8673365 C20.4079785,53.317763 20.6277813,53.8883033 20.9854727,54.584872 C20.4948984,54.7718673 20.2081992,54.988436 19.9515352,54.9579526 L19.9515352,54.9579526 Z M26.5110313,33.8343128 C26.4600625,34.1746351 26.3945312,34.6095924 26.282127,35.3630332 C25.2450039,34.9662938 24.4454316,34.6596398 23.4624629,34.2829194 C24.6493066,34.1082085 25.5198711,33.9799052 26.5110313,33.8343128 L26.5110313,33.8343128 Z M22.4358066,31.488 L22.5964492,31.2618768 L24.779459,31.9115829 C24.8108594,31.9857441 24.8418047,32.0603602 24.8722949,32.1345213 C24.5082324,32.2714692 24.0636211,32.6090616 23.7974004,32.5021422 C23.2899883,32.2974028 22.8836035,31.8401517 22.4358066,31.488 L22.4358066,31.488 Z M18.3228105,19.8888341 C17.3357461,19.8510711 16.5862324,19.3596967 15.9286445,18.3087014 L19.234332,19.2923602 C18.7924512,19.5935545 18.5517148,19.8979336 18.3228105,19.8888341 L18.3228105,19.8888341 Z M16.1903145,16.7649668 C17.0995605,16.7308436 17.8035664,16.703545 18.7382969,16.6685118 C17.6133437,17.9260664 17.1086621,17.9401706 16.1903145,16.7649668 L16.1903145,16.7649668 Z M15.6847227,15.6757536 C14.2503164,14.5178389 12.9037402,13.2516398 11.5389609,12.0090995 C11.3018652,11.7929858 11.1248398,11.5118104 10.6765879,10.9617441 C12.2397813,10.6491754 13.5221914,10.3652701 14.8164336,10.1641706 C15.0102969,10.1336872 15.3557012,10.4398863 15.477207,10.6719242 C16.1297891,11.9185592 16.776,13.1733839 17.323459,14.4687014 C17.4440547,14.7539716 17.265209,15.4064076 17.0231074,15.5483602 C16.6604102,15.7612891 15.9468477,15.8873175 15.6847227,15.6757536 L15.6847227,15.6757536 Z M10.7921777,8.13770616 C10.3311836,7.11309953 10.0021621,6.02570616 9.6654043,4.95014218 C9.60897461,4.76997156 9.78008398,4.33091943 9.88930273,4.31499526 C10.7052578,4.1971564 13.6050156,3.88868246 13.770209,3.87184834 C14.451916,3.2216872 15.1409043,3.5001327 15.6829023,3.99969668 C16.0865566,4.3718673 16.4419727,4.90782938 16.5812266,5.43423697 C17.0294785,7.13448341 17.3726074,8.86293839 17.737125,10.5845687 C17.7539629,10.6632796 17.5819434,10.7815735 17.3958164,11.0040569 C16.770084,9.88754502 16.1894043,8.85065403 15.6091797,7.81558294 C15.3880117,7.82877725 15.1659336,7.84197156 14.9443105,7.85425592 C14.7408906,7.89611374 13.2436836,8.30559242 13.0561914,8.352 C12.3175996,9.10999052 11.2031133,9.05038863 10.7921777,8.13770616 L10.7921777,8.13770616 Z M40.5629336,89.5993934 C40.2248105,87.3954882 39.8088691,85.2038673 39.4539082,83.001782 C39.213627,81.5112796 39.0297754,80.0116777 38.7999609,78.5189005 C38.742166,78.1476398 38.6907422,77.7185972 38.4750352,77.4424265 C38.2534121,77.1598863 37.8201777,76.8473175 37.5029883,76.8696114 C36.05675,76.9756209 36.0481035,77.0174787 35.8369473,75.5565498 C35.5088359,73.2807583 35.1984727,71.002237 34.8808281,68.7250806 L34.8785527,68.7214408 C34.1790977,67.9993934 33.8118496,66.0821232 34.1235781,65.1976493 C34.2778496,64.761782 34.3511172,64.2581232 34.3106152,63.7990521 C34.0107188,60.4490616 33.6985352,57.099981 33.3253711,53.7568152 C33.2598398,53.1749005 33.0309355,52.4719621 32.6254609,52.0966066 C31.8718516,51.398673 31.7275918,50.5933649 31.734873,49.6765877 C31.7362383,49.5032417 31.7558066,49.325346 31.7212207,49.1592796 C31.4222344,47.730654 32.0397754,47.0304455 33.3353828,46.3024834 C34.6309902,45.5740664 36.5650723,43.3374028 37.1157168,40.7017251 C37.4825098,38.9450616 37.7355332,38.1647773 37.6945762,35.8439431 C37.6499785,33.3538578 37.2813652,31.2737062 36.0308105,28.5811564 C35.1884609,26.7667109 34.7188203,26.2498578 33.7431328,25.2898578 C32.7679004,24.3303128 31.4763887,23.6387488 30.1198008,23.1050616 C28.5434102,22.4853839 26.2448105,22.3984834 24.9783281,23.6255545 C25.5653789,23.8002654 26.0828027,24.1141991 26.5670059,24.0700664 C28.6803887,23.8789763 30.0014805,25.114237 31.1423613,26.571981 C31.8145117,27.4309763 32.2923438,28.4523981 32.7792773,29.4396967 C32.9239922,29.7313365 32.8011211,30.1549194 32.800666,30.5184455 L32.8170488,30.548019 C32.8170488,30.548019 32.9968047,31.3774408 33.0027207,31.4384076 C33.0582402,31.8001137 33.1133047,32.1627299 33.1688242,32.524436 L32.8143184,32.6268057 C32.2832422,32.0667299 31.5478359,31.6281327 31.7826563,30.6094408 C31.5505664,30.1153365 31.4468086,29.6694597 31.0859316,29.1289479 C30.7250547,28.587981 29.3834844,27.3395261 28.379127,26.6775355 C27.2218633,25.9159052 25.9071426,25.3803981 24.6215469,24.8398863 C24.3767148,24.7366066 23.8410879,24.9731943 23.6299316,25.2170616 C23.1994277,25.7152607 22.8626699,25.8849668 22.3998555,25.305782 C22.3397852,25.2311659 22.2305664,25.1879431 22.1359102,25.1497251 C21.5361172,24.902673 20.7415508,24.9226919 20.9445156,23.8407583 C21.0605605,23.2210806 20.9827422,22.6637346 21.4614844,22.0690806 C22.3042891,21.02309 22.3825625,19.7546161 22.1363652,18.3878673 C21.8737852,16.9292133 21.8828867,15.418237 21.814625,13.9286445 C21.7413574,12.3348626 21.84375,10.7210616 21.6275879,9.14911848 C21.4696758,7.99211374 21.045998,6.82646445 20.5171973,5.77683412 C19.9014766,4.55567773 19.4800742,3.38547867 19.9469844,2.03601896 C19.9378828,1.93364929 19.7667734,1.30851185 19.6165977,1.01732701 C19.466877,0.726597156 19.4136328,0.686559242 19.2557207,0.570085308 C19.0973535,0.453611374 18.0884453,0.211109005 17.6979883,0.123753555 C17.3075313,0.035943128 16.9571211,0.0168341232 16.502043,0.0386729858 C16.0469648,0.0605118483 14.8009609,0.429042654 14.5929902,0.501838863 C14.3850195,0.574180095 14.2971895,0.690199052 14.1492891,0.783924171 C12.5738086,1.8162654 10.8335898,1.79124171 9.06379102,1.57194313 C6.15265625,1.95412322 4.03517773,3.75218957 1.96275195,5.6025782 C1.72474609,5.81550711 1.58185156,6.30551659 1.62599414,6.63628436 C1.94363867,9.04265403 2.1220293,11.4895166 3.32207031,13.6847773 C3.698875,14.3135545 4.07567969,14.9423318 4.45248438,15.571564 C4.90164648,16.2590332 7.65668945,19.1572322 8.28469727,21.4735166 C8.74751172,23.1801327 9.02055859,24.9372512 9.41329102,26.8390521 C9.82104102,26.9982938 10.4417676,27.2385213 11.0629492,27.4796588 C11.661832,26.6461422 12.3644727,27.0073934 13.0616523,27.3108626 C14.335416,27.5592796 15.6087246,27.8076967 16.8820332,28.0561137 C16.513875,27.8814028 16.1575488,27.6739336 15.7748281,27.5397156 C15.1841367,27.3317915 14.5756973,27.1748246 14.0082148,26.8818199 C16.3113652,26.0428436 18.2222383,27.2894787 20.5713516,27.936455 C20.0598438,28.1261801 19.8414063,28.2067109 19.3312637,28.396436 L21.6403301,29.0839052 C21.6366895,29.1680758 21.6325938,29.2513365 21.628498,29.3345972 C21.1538516,29.4069384 20.6792051,29.4792796 19.8705313,29.6030332 C20.8220996,30.14309 21.3345176,30.5812322 20.4402891,31.2286635 C20.3765781,31.2746161 20.4038828,31.5016493 20.4430195,31.6276777 C20.8271055,32.8438294 20.0712207,33.5126445 19.1487773,33.8402275 C17.7403105,34.3407014 16.2581211,34.635981 14.7977754,34.9776682 C14.6735391,35.0063318 14.4792207,34.733346 14.317668,34.5995829 C13.939043,33.7801706 13.560418,32.9603033 13.181793,32.140891 C13.0534609,31.9907488 12.9246738,31.8401517 12.7963418,31.6900095 L12.4441113,32.8729479 C12.2802832,32.6036019 12.1132695,32.352 11.9685547,32.0881137 C10.8322246,30.0079621 9.76415625,27.8868626 7.67352734,26.5319431 C5.19380664,24.9249668 3.31296875,25.1861232 1.67787305,27.6320758 C0.961580078,28.703545 0.593421875,30.0084171 0,31.3596967 C0.859642578,31.4570616 1.27876953,31.6258578 1.92042969,31.5767204 C2.56208984,31.5280379 5.14829883,30.068019 7.45964063,32.218237 C9.77098242,34.368 8.84808398,36.7552607 8.75160742,36.9131374 C8.63010156,37.1692891 6.46210938,41.2513365 6.37063867,41.3941991 C5.97517578,42.0084171 4.71460938,43.392 4.10070898,44.0503507 C3.48635352,44.7091564 2.56937109,45.4735166 1.91587891,46.08091 C2.10155078,46.3725498 2.28767773,46.6650995 2.47425977,46.9558294 C2.67039844,47.2342749 2.86744727,47.5122654 3.06404102,47.7902559 C3.51502344,48.4126635 3.93460547,48.8821991 4.24087305,49.1460853 C5.68529102,50.2202844 7.19569531,51.0164929 9.11066406,50.6538768 C9.42830859,50.5942749 10.0085332,50.9286825 10.1746367,51.2376114 C10.8909297,52.569327 11.5134766,53.951545 12.127377,55.334218 C12.2370508,55.5817251 12.244332,55.9730047 12.1241914,56.2068626 C11.5676309,57.2856114 11.7300937,58.2437915 12.2038301,59.348019 C13.4516543,62.2553175 14.5374707,65.2313175 15.6970098,68.1768341 C15.8080488,68.4593744 15.9159023,68.8529289 16.1398008,68.9625782 C17.5223281,69.6418578 17.5823984,71.0427299 17.5660156,72.1706161 C17.5441719,73.6820474 18.0852598,74.9600758 18.5180391,76.3077156 C18.686418,76.8309384 18.93125,77.3286825 19.1096406,77.8487204 C19.6816738,79.5175735 19.6448125,79.4852701 18.307793,80.7100664 C18.0115371,80.9807773 17.8313262,81.6268436 17.9214316,82.0267678 C18.2996016,83.6983507 21.9939258,94.84709 22.7489004,95.6223697 C23.5043301,96.3976493 26.497834,95.7929858 28.3509121,95.4594882 C29.5491328,95.2433744 37.2818203,92.985327 39.0352363,92.6336303 C40.0254863,92.4343507 40.7800059,91.0207393 40.5629336,89.5993934 L40.5629336,89.5993934 Z" id="Fill-64" fill="#152C3E"></path>
                <path d="M25,8 L233,8 M43,88 L233,88" id="Stroke-66" stroke="#636462" stroke-width="2"></path>
                <path d="M39,37 L229,37 M39,41 L229,41" id="Stroke-67" stroke="#636462"></path>
                <path d="M232,8 L232,89" id="Stroke-68" stroke="#636462" stroke-width="2"></path>
            </g>
        </g>
    </g>
</svg>