<?xml version="1.0" encoding="UTF-8" standalone="no"?>
<svg width="175px" height="72px" viewBox="0 0 175 72" version="1.1" xmlns="http://www.w3.org/2000/svg" xmlns:xlink="http://www.w3.org/1999/xlink" xmlns:sketch="http://www.bohemiancoding.com/sketch/ns">
    <!-- Generator: Sketch 3.2 (9961) - http://www.bohemiancoding.com/sketch -->
    <title>Logo_final</title>
    <desc>Created with Sketch.</desc>
    <defs></defs>
    <g id="Page-1" stroke="none" stroke-width="1" fill="none" fill-rule="evenodd" sketch:type="MSPage">
        <g id="Logo_final" sketch:type="MSLayerGroup">
            <path d="M93.8649414,9.79643602 L89.7702148,20.045346 L85.5333008,9.79643602 L82.7175781,9.79643602 L82.404834,24.6444739 L85.2772949,24.6444739 L85.248584,16.0703318 L88.7752441,24.6444739 L90.5666016,24.6444739 L94.0918945,15.9287204 L94.1493164,24.6444739 L96.9927246,24.6444739 L96.5952148,9.79643602 L93.8649414,9.79643602" id="Fill-1" fill="#122C3D" sketch:type="MSShapeGroup"></path>
            <path d="M102.795068,9.79643602 L100.007373,9.79643602 L100.007373,24.6444739 L108.169824,24.6444739 L108.169824,22.1459716 L102.795068,22.1183318 L102.795068,9.79643602" id="Fill-2" fill="#122C3D" sketch:type="MSShapeGroup"></path>
            <path d="M116.728076,14.8514502 C116.728076,15.3892322 116.528809,16.4508057 116.044824,16.9708436 C115.562207,17.4895166 115.135303,17.5751659 114.59458,17.6601327 C114.054199,17.745782 112.973779,17.6601327 112.973779,17.6601327 L112.973779,12.0956588 C112.973779,12.0956588 114.878955,11.812436 115.817871,12.5508626 C116.756104,13.2886066 116.728076,14.3140095 116.728076,14.8514502 L116.728076,14.8514502 Z M113.997119,9.62616114 C110.556934,9.54119431 110.10166,9.79643602 110.10166,9.79643602 L110.10166,24.6444739 L112.945068,24.6444739 L112.945068,20.1589763 C112.945068,20.1589763 113.854932,20.2726066 115.333887,19.9883602 C116.812842,19.7041137 119.542432,18.5118483 119.684961,15.020019 C119.827148,11.5285308 117.43833,9.71112796 113.997119,9.62616114 L113.997119,9.62616114 Z" id="Fill-3" fill="#122C3D" sketch:type="MSShapeGroup"></path>
            <path d="M69.8458496,17.1704645 C69.8458496,17.8737441 69.2753906,18.4425782 68.5723145,18.4425782 C68.4725098,18.4425782 68.3764648,18.4289289 68.2828125,18.40709 L68.2828125,21.3181422 C68.3853516,21.3253081 68.487207,21.3338389 68.5914551,21.3338389 C70.9095215,21.3338389 72.7890625,19.4601327 72.7890625,17.1486256 C72.7890625,14.8378009 70.9095215,12.9634123 68.5914551,12.9634123 C66.2730469,12.9634123 64.3931641,14.8378009 64.3931641,17.1486256 L64.3931641,23.9899905 C65.2674805,24.5236777 66.2511719,24.8952796 67.3025391,25.0645308 L67.3025391,17.1486256 L67.2984375,17.1486256 L67.2984375,17.0735545 L67.3080078,17.0735545 C67.3589355,16.4180474 67.901709,15.9003981 68.5723145,15.9003981 C69.2753906,15.9003981 69.8458496,16.4699147 69.8458496,17.1704645" id="Fill-4" fill="#9B896C" sketch:type="MSShapeGroup"></path>
            <path d="M68.5658203,9.06585782 C64.0715332,9.06585782 60.4283203,12.7030521 60.4283203,17.1895735 C60.4283203,19.7228815 61.5907715,21.9838863 63.4108398,23.4737062 L63.4108398,17.447545 C63.4033203,17.3427867 63.398877,17.2387109 63.398877,17.1322464 C63.398877,14.2983128 65.7155762,12.0001137 68.5726563,12.0001137 C71.4304199,12.0001137 73.7464355,14.2983128 73.7464355,17.1322464 C73.7464355,19.9665213 71.4304199,22.2643791 68.5726563,22.2643791 C68.467041,22.2643791 68.3638184,22.2551659 68.2595703,22.2486825 L68.2595703,25.305782 C68.3614258,25.3105592 68.4632813,25.3143128 68.5658203,25.3143128 C73.0604492,25.3143128 76.7036621,21.6771185 76.7036621,17.1895735 C76.7036621,12.7030521 73.0604492,9.06585782 68.5658203,9.06585782" id="Fill-5" fill="#9B896C" sketch:type="MSShapeGroup"></path>
            <path d="M31.122998,34.8104645 L32.9211914,34.8104645 L32.9211914,41.5511659 L39.9704102,34.8104645 L42.3394043,34.8104645 L33.8683105,42.869346 L42.9977051,52.7729289 L40.6509277,52.7729289 L32.9211914,44.4059147 L32.9211914,52.7729289 L31.122998,52.7729289 L31.122998,34.8104645" id="Fill-6" fill="#343433" sketch:type="MSShapeGroup"></path>
            <path d="M31.122998,34.8104645 L32.9211914,34.8104645 L32.9211914,41.5511659 L39.9704102,34.8104645 L42.3394043,34.8104645 L33.8683105,42.869346 L42.9977051,52.7729289 L40.6509277,52.7729289 L32.9211914,44.4059147 L32.9211914,52.7729289 L31.122998,52.7729289 L31.122998,34.8104645" id="Stroke-7" stroke="#343433" stroke-width="0.5" sketch:type="MSShapeGroup"></path>
            <path d="M31.122998,34.8104645 L32.9211914,34.8104645 L32.9211914,41.5511659 L39.9704102,34.8104645 L42.3394043,34.8104645 L33.8683105,42.869346 L42.9977051,52.7729289 L40.6509277,52.7729289 L32.9211914,44.4059147 L32.9211914,52.7729289 L31.122998,52.7729289 L31.122998,34.8104645" id="Fill-8" fill="#343433" sketch:type="MSShapeGroup"></path>
            <path d="M31.122998,34.8104645 L32.9211914,34.8104645 L32.9211914,41.5511659 L39.9704102,34.8104645 L42.3394043,34.8104645 L33.8683105,42.869346 L42.9977051,52.7729289 L40.6509277,52.7729289 L32.9211914,44.4059147 L32.9211914,52.7729289 L31.122998,52.7729289 L31.122998,34.8104645 L31.122998,34.8104645 Z" id="Stroke-9" stroke="#343433" stroke-width="1.36492891" sketch:type="MSShapeGroup"></path>
            <path d="M45.3772949,34.8104645 L47.1402832,34.8104645 L47.1402832,52.7729289 L45.3772949,52.7729289 L45.3772949,34.8104645 Z" id="Fill-10" fill="#343433" sketch:type="MSShapeGroup"></path>
            <path d="M45.3772949,34.8104645 L47.1402832,34.8104645 L47.1402832,52.7729289 L45.3772949,52.7729289 L45.3772949,34.8104645 Z" id="Stroke-11" stroke="#343433" stroke-width="0.5" sketch:type="MSShapeGroup"></path>
            <path d="M45.3772949,34.8104645 L47.1402832,34.8104645 L47.1402832,52.7729289 L45.3772949,52.7729289 L45.3772949,34.8104645 Z" id="Fill-12" fill="#343433" sketch:type="MSShapeGroup"></path>
            <path d="M45.3772949,34.8104645 L47.1402832,34.8104645 L47.1402832,52.7729289 L45.3772949,52.7729289 L45.3772949,34.8104645 Z" id="Stroke-13" stroke="#343433" stroke-width="1.36492891" sketch:type="MSShapeGroup"></path>
            <path d="M67.6067383,38.1432796 L66.213916,39.2301043 C65.448291,38.212891 64.5274902,37.4420474 63.4504883,36.9165498 C62.3772461,36.3924171 61.1946289,36.1296682 59.9081055,36.1296682 C58.5012695,36.1296682 57.1973145,36.4722654 55.9996582,37.1615545 C54.7996094,37.8487962 53.8716309,38.7728531 53.2119629,39.9316777 C52.5519531,41.0918673 52.2238281,42.3970806 52.2238281,43.8459526 C52.2238281,46.035981 52.9621094,47.8629384 54.4366211,49.3285308 C55.9087402,50.7941232 57.7722168,51.5264076 60.0161133,51.5264076 C62.4876465,51.5264076 64.5517578,50.5416114 66.213916,48.572019 L67.6067383,49.6465592 C66.7259277,50.7859336 65.6311523,51.6669953 64.314209,52.2900853 C63.0020508,52.9124929 61.5302734,53.2243791 59.9081055,53.2243791 C56.8244141,53.2243791 54.3880859,52.1785024 52.6062988,50.0857251 C51.1119629,48.3201896 50.3651367,46.1861232 50.3651367,43.6876209 C50.3651367,41.0577441 51.2708984,38.8458768 53.0796875,37.050654 C54.8925781,35.2557725 57.1573242,34.358673 59.8848633,34.358673 C61.5302734,34.358673 63.0164062,34.6896682 64.3446289,35.3540474 C65.6711426,36.0167204 66.7587402,36.9465782 67.6067383,38.1432796" id="Fill-14" fill="#343433" sketch:type="MSShapeGroup"></path>
            <path d="M67.6067383,38.1432796 L66.213916,39.2301043 C65.448291,38.212891 64.5274902,37.4420474 63.4504883,36.9165498 C62.3772461,36.3924171 61.1946289,36.1296682 59.9081055,36.1296682 C58.5012695,36.1296682 57.1973145,36.4722654 55.9996582,37.1615545 C54.7996094,37.8487962 53.8716309,38.7728531 53.2119629,39.9316777 C52.5519531,41.0918673 52.2238281,42.3970806 52.2238281,43.8459526 C52.2238281,46.035981 52.9621094,47.8629384 54.4366211,49.3285308 C55.9087402,50.7941232 57.7722168,51.5264076 60.0161133,51.5264076 C62.4876465,51.5264076 64.5517578,50.5416114 66.213916,48.572019 L67.6067383,49.6465592 C66.7259277,50.7859336 65.6311523,51.6669953 64.314209,52.2900853 C63.0020508,52.9124929 61.5302734,53.2243791 59.9081055,53.2243791 C56.8244141,53.2243791 54.3880859,52.1785024 52.6062988,50.0857251 C51.1119629,48.3201896 50.3651367,46.1861232 50.3651367,43.6876209 C50.3651367,41.0577441 51.2708984,38.8458768 53.0796875,37.050654 C54.8925781,35.2557725 57.1573242,34.358673 59.8848633,34.358673 C61.5302734,34.358673 63.0164062,34.6896682 64.3446289,35.3540474 C65.6711426,36.0167204 66.7587402,36.9465782 67.6067383,38.1432796" id="Stroke-15" stroke="#343433" stroke-width="0.5" sketch:type="MSShapeGroup"></path>
            <path d="M67.6067383,38.1432796 L66.213916,39.2301043 C65.448291,38.212891 64.5274902,37.4420474 63.4504883,36.9165498 C62.3772461,36.3924171 61.1946289,36.1296682 59.9081055,36.1296682 C58.5012695,36.1296682 57.1973145,36.4722654 55.9996582,37.1615545 C54.7996094,37.8487962 53.8716309,38.7728531 53.2119629,39.9316777 C52.5519531,41.0918673 52.2238281,42.3970806 52.2238281,43.8459526 C52.2238281,46.035981 52.9621094,47.8629384 54.4366211,49.3285308 C55.9087402,50.7941232 57.7722168,51.5264076 60.0161133,51.5264076 C62.4876465,51.5264076 64.5517578,50.5416114 66.213916,48.572019 L67.6067383,49.6465592 C66.7259277,50.7859336 65.6311523,51.6669953 64.314209,52.2900853 C63.0020508,52.9124929 61.5302734,53.2243791 59.9081055,53.2243791 C56.8244141,53.2243791 54.3880859,52.1785024 52.6062988,50.0857251 C51.1119629,48.3201896 50.3651367,46.1861232 50.3651367,43.6876209 C50.3651367,41.0577441 51.2708984,38.8458768 53.0796875,37.050654 C54.8925781,35.2557725 57.1573242,34.358673 59.8848633,34.358673 C61.5302734,34.358673 63.0164062,34.6896682 64.3446289,35.3540474 C65.6711426,36.0167204 66.7587402,36.9465782 67.6067383,38.1432796" id="Fill-16" fill="#343433" sketch:type="MSShapeGroup"></path>
            <path d="M67.6067383,38.1432796 L66.213916,39.2301043 C65.448291,38.212891 64.5274902,37.4420474 63.4504883,36.9165498 C62.3772461,36.3924171 61.1946289,36.1296682 59.9081055,36.1296682 C58.5012695,36.1296682 57.1973145,36.4722654 55.9996582,37.1615545 C54.7996094,37.8487962 53.8716309,38.7728531 53.2119629,39.9316777 C52.5519531,41.0918673 52.2238281,42.3970806 52.2238281,43.8459526 C52.2238281,46.035981 52.9621094,47.8629384 54.4366211,49.3285308 C55.9087402,50.7941232 57.7722168,51.5264076 60.0161133,51.5264076 C62.4876465,51.5264076 64.5517578,50.5416114 66.213916,48.572019 L67.6067383,49.6465592 C66.7259277,50.7859336 65.6311523,51.6669953 64.314209,52.2900853 C63.0020508,52.9124929 61.5302734,53.2243791 59.9081055,53.2243791 C56.8244141,53.2243791 54.3880859,52.1785024 52.6062988,50.0857251 C51.1119629,48.3201896 50.3651367,46.1861232 50.3651367,43.6876209 C50.3651367,41.0577441 51.2708984,38.8458768 53.0796875,37.050654 C54.8925781,35.2557725 57.1573242,34.358673 59.8848633,34.358673 C61.5302734,34.358673 63.0164062,34.6896682 64.3446289,35.3540474 C65.6711426,36.0167204 66.7587402,36.9465782 67.6067383,38.1432796 L67.6067383,38.1432796 Z" id="Stroke-17" stroke="#343433" stroke-width="1.36492891" sketch:type="MSShapeGroup"></path>
            <path d="M71.1429688,34.8104645 L72.9401367,34.8104645 L72.9401367,41.5511659 L79.9914063,34.8104645 L82.357666,34.8104645 L73.8879395,42.869346 L83.0166504,52.7729289 L80.669873,52.7729289 L72.9401367,44.4059147 L72.9401367,52.7729289 L71.1429688,52.7729289 L71.1429688,34.8104645" id="Fill-18" fill="#343433" sketch:type="MSShapeGroup"></path>
            <path d="M71.1429688,34.8104645 L72.9401367,34.8104645 L72.9401367,41.5511659 L79.9914063,34.8104645 L82.357666,34.8104645 L73.8879395,42.869346 L83.0166504,52.7729289 L80.669873,52.7729289 L72.9401367,44.4059147 L72.9401367,52.7729289 L71.1429688,52.7729289 L71.1429688,34.8104645" id="Stroke-19" stroke="#343433" stroke-width="0.5" sketch:type="MSShapeGroup"></path>
            <path d="M71.1429688,34.8104645 L72.9401367,34.8104645 L72.9401367,41.5511659 L79.9914063,34.8104645 L82.357666,34.8104645 L73.8879395,42.869346 L83.0166504,52.7729289 L80.669873,52.7729289 L72.9401367,44.4059147 L72.9401367,52.7729289 L71.1429688,52.7729289 L71.1429688,34.8104645" id="Fill-20" fill="#343433" sketch:type="MSShapeGroup"></path>
            <path d="M71.1429688,34.8104645 L72.9401367,34.8104645 L72.9401367,41.5511659 L79.9914063,34.8104645 L82.357666,34.8104645 L73.8879395,42.869346 L83.0166504,52.7729289 L80.669873,52.7729289 L72.9401367,44.4059147 L72.9401367,52.7729289 L71.1429688,52.7729289 L71.1429688,34.8104645 L71.1429688,34.8104645 Z" id="Stroke-21" stroke="#343433" stroke-width="1.36492891" sketch:type="MSShapeGroup"></path>
            <path d="M85.6635254,34.8104645 L95.7690918,34.8104645 L95.7690918,36.5684929 L87.4230957,36.5684929 L87.4230957,42.1974597 L95.6966309,42.1974597 L95.6966309,43.9561706 L87.4230957,43.9561706 L87.4230957,51.014218 L95.6966309,51.014218 L95.6966309,52.7729289 L85.6635254,52.7729289 L85.6635254,34.8104645" id="Fill-22" fill="#343433" sketch:type="MSShapeGroup"></path>
            <path d="M85.6635254,34.8104645 L95.7690918,34.8104645 L95.7690918,36.5684929 L87.4230957,36.5684929 L87.4230957,42.1974597 L95.6966309,42.1974597 L95.6966309,43.9561706 L87.4230957,43.9561706 L87.4230957,51.014218 L95.6966309,51.014218 L95.6966309,52.7729289 L85.6635254,52.7729289 L85.6635254,34.8104645" id="Stroke-23" stroke="#343433" stroke-width="0.5" sketch:type="MSShapeGroup"></path>
            <path d="M85.6635254,34.8104645 L95.7690918,34.8104645 L95.7690918,36.5684929 L87.4230957,36.5684929 L87.4230957,42.1974597 L95.6966309,42.1974597 L95.6966309,43.9561706 L87.4230957,43.9561706 L87.4230957,51.014218 L95.6966309,51.014218 L95.6966309,52.7729289 L85.6635254,52.7729289 L85.6635254,34.8104645" id="Fill-24" fill="#343433" sketch:type="MSShapeGroup"></path>
            <path d="M85.6635254,34.8104645 L95.7690918,34.8104645 L95.7690918,36.5684929 L87.4230957,36.5684929 L87.4230957,42.1974597 L95.6966309,42.1974597 L95.6966309,43.9561706 L87.4230957,43.9561706 L87.4230957,51.014218 L95.6966309,51.014218 L95.6966309,52.7729289 L85.6635254,52.7729289 L85.6635254,34.8104645 L85.6635254,34.8104645 Z" id="Stroke-25" stroke="#343433" stroke-width="1.36492891" sketch:type="MSShapeGroup"></path>
            <path d="M98.9102051,34.8104645 L102.421826,34.8104645 C104.382031,34.8104645 105.709229,34.8913365 106.403076,35.0547867 C107.450342,35.2984265 108.300391,35.8229005 108.958008,36.6258199 C109.611523,37.4287393 109.93999,38.4166066 109.93999,39.5904455 C109.93999,40.5694408 109.713721,41.427981 109.263916,42.1694787 C108.812061,42.912 108.166748,43.4726445 107.326611,43.8507299 C106.486816,44.2301801 105.328809,44.424 103.849512,44.4318483 L110.192578,52.7729289 L108.012939,52.7729289 L101.670215,44.4318483 L100.672852,44.4318483 L100.672852,52.7729289 L98.9102051,52.7729289 L98.9102051,34.8104645 L98.9102051,34.8104645 Z M100.672852,36.5684929 L100.672852,42.6731374 L103.711426,42.6987299 C104.886523,42.6987299 105.756738,42.5844171 106.322754,42.3564739 C106.888086,42.1292133 107.326611,41.7647773 107.643799,41.2638483 C107.958252,40.7632607 108.118213,40.2036398 108.118213,39.5846445 C108.118213,38.9820284 107.958252,38.4350332 107.638672,37.9426351 C107.31875,37.4492133 106.899365,37.0974028 106.376758,36.8858389 C105.856201,36.6739336 104.993506,36.5684929 103.781836,36.5684929 L100.672852,36.5684929 L100.672852,36.5684929 Z" id="Fill-26" fill="#343433" sketch:type="MSShapeGroup"></path>
            <path d="M98.9102051,34.8104645 L102.421826,34.8104645 C104.382031,34.8104645 105.709229,34.8913365 106.403076,35.0547867 C107.450342,35.2984265 108.300391,35.8229005 108.958008,36.6258199 C109.611523,37.4287393 109.93999,38.4166066 109.93999,39.5904455 C109.93999,40.5694408 109.713721,41.427981 109.263916,42.1694787 C108.812061,42.912 108.166748,43.4726445 107.326611,43.8507299 C106.486816,44.2301801 105.328809,44.424 103.849512,44.4318483 L110.192578,52.7729289 L108.012939,52.7729289 L101.670215,44.4318483 L100.672852,44.4318483 L100.672852,52.7729289 L98.9102051,52.7729289 L98.9102051,34.8104645 L98.9102051,34.8104645 Z M100.672852,36.5684929 L100.672852,42.6731374 L103.711426,42.6987299 C104.886523,42.6987299 105.756738,42.5844171 106.322754,42.3564739 C106.888086,42.1292133 107.326611,41.7647773 107.643799,41.2638483 C107.958252,40.7632607 108.118213,40.2036398 108.118213,39.5846445 C108.118213,38.9820284 107.958252,38.4350332 107.638672,37.9426351 C107.31875,37.4492133 106.899365,37.0974028 106.376758,36.8858389 C105.856201,36.6739336 104.993506,36.5684929 103.781836,36.5684929 L100.672852,36.5684929 L100.672852,36.5684929 Z" id="Stroke-27" stroke="#343433" stroke-width="0.5" sketch:type="MSShapeGroup"></path>
            <path d="M98.9102051,34.8104645 L102.421826,34.8104645 C104.382031,34.8104645 105.709229,34.8913365 106.403076,35.0547867 C107.450342,35.2984265 108.300391,35.8229005 108.958008,36.6258199 C109.611523,37.4287393 109.93999,38.4166066 109.93999,39.5904455 C109.93999,40.5694408 109.713721,41.427981 109.263916,42.1694787 C108.812061,42.912 108.166748,43.4726445 107.326611,43.8507299 C106.486816,44.2301801 105.328809,44.424 103.849512,44.4318483 L110.192578,52.7729289 L108.012939,52.7729289 L101.670215,44.4318483 L100.672852,44.4318483 L100.672852,52.7729289 L98.9102051,52.7729289 L98.9102051,34.8104645 L98.9102051,34.8104645 Z M100.672852,36.5684929 L100.672852,42.6731374 L103.711426,42.6987299 C104.886523,42.6987299 105.756738,42.5844171 106.322754,42.3564739 C106.888086,42.1292133 107.326611,41.7647773 107.643799,41.2638483 C107.958252,40.7632607 108.118213,40.2036398 108.118213,39.5846445 C108.118213,38.9820284 107.958252,38.4350332 107.638672,37.9426351 C107.31875,37.4492133 106.899365,37.0974028 106.376758,36.8858389 C105.856201,36.6739336 104.993506,36.5684929 103.781836,36.5684929 L100.672852,36.5684929 L100.672852,36.5684929 Z" id="Fill-28" fill="#343433" sketch:type="MSShapeGroup"></path>
            <path d="M98.9102051,34.8104645 L102.421826,34.8104645 C104.382031,34.8104645 105.709229,34.8913365 106.403076,35.0547867 C107.450342,35.2984265 108.300391,35.8229005 108.958008,36.6258199 C109.611523,37.4287393 109.93999,38.4166066 109.93999,39.5904455 C109.93999,40.5694408 109.713721,41.427981 109.263916,42.1694787 C108.812061,42.912 108.166748,43.4726445 107.326611,43.8507299 C106.486816,44.2301801 105.328809,44.424 103.849512,44.4318483 L110.192578,52.7729289 L108.012939,52.7729289 L101.670215,44.4318483 L100.672852,44.4318483 L100.672852,52.7729289 L98.9102051,52.7729289 L98.9102051,34.8104645 L98.9102051,34.8104645 Z M100.672852,36.5684929 L100.672852,42.6731374 L103.711426,42.6987299 C104.886523,42.6987299 105.756738,42.5844171 106.322754,42.3564739 C106.888086,42.1292133 107.326611,41.7647773 107.643799,41.2638483 C107.958252,40.7632607 108.118213,40.2036398 108.118213,39.5846445 C108.118213,38.9820284 107.958252,38.4350332 107.638672,37.9426351 C107.31875,37.4492133 106.899365,37.0974028 106.376758,36.8858389 C105.856201,36.6739336 104.993506,36.5684929 103.781836,36.5684929 L100.672852,36.5684929 L100.672852,36.5684929 Z" id="Stroke-29" stroke="#343433" stroke-width="1.36492891" sketch:type="MSShapeGroup"></path>
            <path d="M113.716504,34.8104645 L115.47915,34.8104645 L115.47915,51.0384455 L122.265869,51.0384455 L122.265869,52.7729289 L113.716504,52.7729289 L113.716504,34.8104645" id="Fill-30" fill="#343433" sketch:type="MSShapeGroup"></path>
            <path d="M113.716504,34.8104645 L115.47915,34.8104645 L115.47915,51.0384455 L122.265869,51.0384455 L122.265869,52.7729289 L113.716504,52.7729289 L113.716504,34.8104645" id="Stroke-31" stroke="#343433" stroke-width="0.5" sketch:type="MSShapeGroup"></path>
            <path d="M113.716504,34.8104645 L115.47915,34.8104645 L115.47915,51.0384455 L122.265869,51.0384455 L122.265869,52.7729289 L113.716504,52.7729289 L113.716504,34.8104645" id="Fill-32" fill="#343433" sketch:type="MSShapeGroup"></path>
            <path d="M113.716504,34.8104645 L115.47915,34.8104645 L115.47915,51.0384455 L122.265869,51.0384455 L122.265869,52.7729289 L113.716504,52.7729289 L113.716504,34.8104645 L113.716504,34.8104645 Z" id="Stroke-33" stroke="#343433" stroke-width="1.36492891" sketch:type="MSShapeGroup"></path>
            <path d="M124.806104,34.8104645 L126.570801,34.8104645 L126.570801,52.7729289 L124.806104,52.7729289 L124.806104,34.8104645 Z" id="Fill-34" fill="#343433" sketch:type="MSShapeGroup"></path>
            <path d="M124.806104,34.8104645 L126.570801,34.8104645 L126.570801,52.7729289 L124.806104,52.7729289 L124.806104,34.8104645 Z" id="Stroke-35" stroke="#343433" stroke-width="0.5" sketch:type="MSShapeGroup"></path>
            <path d="M124.806104,34.8104645 L126.570801,34.8104645 L126.570801,52.7729289 L124.806104,52.7729289 L124.806104,34.8104645 Z" id="Fill-36" fill="#343433" sketch:type="MSShapeGroup"></path>
            <path d="M124.806104,34.8104645 L126.570801,34.8104645 L126.570801,52.7729289 L124.806104,52.7729289 L124.806104,34.8104645 Z" id="Stroke-37" stroke="#343433" stroke-width="1.36492891" sketch:type="MSShapeGroup"></path>
            <path d="M147.622412,37.8262749 L146.255566,39.1441137 C145.2729,38.1603412 144.19624,37.4123602 143.025586,36.9039242 C141.854248,36.3958294 140.714355,36.1416114 139.60249,36.1416114 C138.21958,36.1416114 136.902637,36.4872796 135.651318,37.1792986 C134.399658,37.8709763 133.430664,38.8090237 132.744336,39.9930995 C132.056299,41.1778578 131.712793,42.4291564 131.712793,43.7490427 C131.712793,45.0992986 132.068945,46.3843791 132.780225,47.600872 C133.492871,48.8183886 134.475537,49.7745213 135.728564,50.4696114 C136.983301,51.1664076 138.359375,51.5141232 139.852686,51.5141232 C141.669336,51.5141232 143.203662,50.9940853 144.458398,49.9512796 C145.711426,48.9091564 146.455176,47.558218 146.688623,45.8974408 L141.064697,45.8974408 L141.064697,44.1632986 L148.667285,44.1632986 C148.651221,46.939564 147.84082,49.1439242 146.23916,50.7753555 C144.635449,52.4074692 142.492383,53.2243791 139.806885,53.2243791 C136.545801,53.2243791 133.963184,52.0925118 132.059717,49.828436 C130.599561,48.0878104 129.867432,46.0728341 129.867432,43.7852133 C129.867432,42.0834882 130.288184,40.5001706 131.126611,39.0349194 C131.963672,37.569327 133.116211,36.4227867 134.580127,35.5980284 C136.042334,34.771564 137.697656,34.358673 139.543018,34.358673 C141.036328,34.358673 142.445557,34.6333649 143.763525,35.18309 C145.082861,35.7321327 146.368359,36.6131943 147.622412,37.8262749" id="Fill-38" fill="#343433" sketch:type="MSShapeGroup"></path>
            <path d="M147.622412,37.8262749 L146.255566,39.1441137 C145.2729,38.1603412 144.19624,37.4123602 143.025586,36.9039242 C141.854248,36.3958294 140.714355,36.1416114 139.60249,36.1416114 C138.21958,36.1416114 136.902637,36.4872796 135.651318,37.1792986 C134.399658,37.8709763 133.430664,38.8090237 132.744336,39.9930995 C132.056299,41.1778578 131.712793,42.4291564 131.712793,43.7490427 C131.712793,45.0992986 132.068945,46.3843791 132.780225,47.600872 C133.492871,48.8183886 134.475537,49.7745213 135.728564,50.4696114 C136.983301,51.1664076 138.359375,51.5141232 139.852686,51.5141232 C141.669336,51.5141232 143.203662,50.9940853 144.458398,49.9512796 C145.711426,48.9091564 146.455176,47.558218 146.688623,45.8974408 L141.064697,45.8974408 L141.064697,44.1632986 L148.667285,44.1632986 C148.651221,46.939564 147.84082,49.1439242 146.23916,50.7753555 C144.635449,52.4074692 142.492383,53.2243791 139.806885,53.2243791 C136.545801,53.2243791 133.963184,52.0925118 132.059717,49.828436 C130.599561,48.0878104 129.867432,46.0728341 129.867432,43.7852133 C129.867432,42.0834882 130.288184,40.5001706 131.126611,39.0349194 C131.963672,37.569327 133.116211,36.4227867 134.580127,35.5980284 C136.042334,34.771564 137.697656,34.358673 139.543018,34.358673 C141.036328,34.358673 142.445557,34.6333649 143.763525,35.18309 C145.082861,35.7321327 146.368359,36.6131943 147.622412,37.8262749" id="Stroke-39" stroke="#343433" stroke-width="0.5" sketch:type="MSShapeGroup"></path>
            <path d="M147.622412,37.8262749 L146.255566,39.1441137 C145.2729,38.1603412 144.19624,37.4123602 143.025586,36.9039242 C141.854248,36.3958294 140.714355,36.1416114 139.60249,36.1416114 C138.21958,36.1416114 136.902637,36.4872796 135.651318,37.1792986 C134.399658,37.8709763 133.430664,38.8090237 132.744336,39.9930995 C132.056299,41.1778578 131.712793,42.4291564 131.712793,43.7490427 C131.712793,45.0992986 132.068945,46.3843791 132.780225,47.600872 C133.492871,48.8183886 134.475537,49.7745213 135.728564,50.4696114 C136.983301,51.1664076 138.359375,51.5141232 139.852686,51.5141232 C141.669336,51.5141232 143.203662,50.9940853 144.458398,49.9512796 C145.711426,48.9091564 146.455176,47.558218 146.688623,45.8974408 L141.064697,45.8974408 L141.064697,44.1632986 L148.667285,44.1632986 C148.651221,46.939564 147.84082,49.1439242 146.23916,50.7753555 C144.635449,52.4074692 142.492383,53.2243791 139.806885,53.2243791 C136.545801,53.2243791 133.963184,52.0925118 132.059717,49.828436 C130.599561,48.0878104 129.867432,46.0728341 129.867432,43.7852133 C129.867432,42.0834882 130.288184,40.5001706 131.126611,39.0349194 C131.963672,37.569327 133.116211,36.4227867 134.580127,35.5980284 C136.042334,34.771564 137.697656,34.358673 139.543018,34.358673 C141.036328,34.358673 142.445557,34.6333649 143.763525,35.18309 C145.082861,35.7321327 146.368359,36.6131943 147.622412,37.8262749" id="Fill-40" fill="#343433" sketch:type="MSShapeGroup"></path>
            <path d="M147.622412,37.8262749 L146.255566,39.1441137 C145.2729,38.1603412 144.19624,37.4123602 143.025586,36.9039242 C141.854248,36.3958294 140.714355,36.1416114 139.60249,36.1416114 C138.21958,36.1416114 136.902637,36.4872796 135.651318,37.1792986 C134.399658,37.8709763 133.430664,38.8090237 132.744336,39.9930995 C132.056299,41.1778578 131.712793,42.4291564 131.712793,43.7490427 C131.712793,45.0992986 132.068945,46.3843791 132.780225,47.600872 C133.492871,48.8183886 134.475537,49.7745213 135.728564,50.4696114 C136.983301,51.1664076 138.359375,51.5141232 139.852686,51.5141232 C141.669336,51.5141232 143.203662,50.9940853 144.458398,49.9512796 C145.711426,48.9091564 146.455176,47.558218 146.688623,45.8974408 L141.064697,45.8974408 L141.064697,44.1632986 L148.667285,44.1632986 C148.651221,46.939564 147.84082,49.1439242 146.23916,50.7753555 C144.635449,52.4074692 142.492383,53.2243791 139.806885,53.2243791 C136.545801,53.2243791 133.963184,52.0925118 132.059717,49.828436 C130.599561,48.0878104 129.867432,46.0728341 129.867432,43.7852133 C129.867432,42.0834882 130.288184,40.5001706 131.126611,39.0349194 C131.963672,37.569327 133.116211,36.4227867 134.580127,35.5980284 C136.042334,34.771564 137.697656,34.358673 139.543018,34.358673 C141.036328,34.358673 142.445557,34.6333649 143.763525,35.18309 C145.082861,35.7321327 146.368359,36.6131943 147.622412,37.8262749 L147.622412,37.8262749 Z" id="Stroke-41" stroke="#343433" stroke-width="1.36492891" sketch:type="MSShapeGroup"></path>
            <path d="M159.228467,34.8104645 L167.453467,52.7729289 L165.550684,52.7729289 L162.775977,46.8624455 L155.178516,46.8624455 L152.429443,52.7729289 L150.465479,52.7729289 L158.797803,34.8104645 L159.228467,34.8104645 L159.228467,34.8104645 Z M159.003906,38.6264645 L155.985156,45.1279621 L162.01377,45.1279621 L159.003906,38.6264645 L159.003906,38.6264645 Z" id="Fill-42" fill="#343433" sketch:type="MSShapeGroup"></path>
            <path d="M159.228467,34.8104645 L167.453467,52.7729289 L165.550684,52.7729289 L162.775977,46.8624455 L155.178516,46.8624455 L152.429443,52.7729289 L150.465479,52.7729289 L158.797803,34.8104645 L159.228467,34.8104645 L159.228467,34.8104645 Z M159.003906,38.6264645 L155.985156,45.1279621 L162.01377,45.1279621 L159.003906,38.6264645 L159.003906,38.6264645 Z" id="Stroke-43" stroke="#343433" stroke-width="0.5" sketch:type="MSShapeGroup"></path>
            <path d="M159.228467,34.8104645 L167.453467,52.7729289 L165.550684,52.7729289 L162.775977,46.8624455 L155.178516,46.8624455 L152.429443,52.7729289 L150.465479,52.7729289 L158.797803,34.8104645 L159.228467,34.8104645 L159.228467,34.8104645 Z M159.003906,38.6264645 L155.985156,45.1279621 L162.01377,45.1279621 L159.003906,38.6264645 L159.003906,38.6264645 Z" id="Fill-44" fill="#343433" sketch:type="MSShapeGroup"></path>
            <path d="M159.228467,34.8104645 L167.453467,52.7729289 L165.550684,52.7729289 L162.775977,46.8624455 L155.178516,46.8624455 L152.429443,52.7729289 L150.465479,52.7729289 L158.797803,34.8104645 L159.228467,34.8104645 L159.228467,34.8104645 Z M159.003906,38.6264645 L155.985156,45.1279621 L162.01377,45.1279621 L159.003906,38.6264645 L159.003906,38.6264645 Z" id="Stroke-45" stroke="#343433" stroke-width="1.36492891" sketch:type="MSShapeGroup"></path>
            <path d="M38.7710449,56.5650427 L40.0606445,56.5650427 C40.800293,56.5650427 41.2989746,56.5971185 41.5577148,56.6616114 C41.9265137,56.7520379 42.2300293,56.9393744 42.4641602,57.2215735 C42.6996582,57.5041137 42.8162109,57.8593365 42.8162109,58.2869005 C42.8162109,58.7171943 42.701709,59.0734408 42.4733887,59.35291 C42.2433594,59.6330616 41.929248,59.8214218 41.5259277,59.9176493 C41.2323242,59.9882844 40.6833984,60.0227488 39.8805176,60.0227488 L39.4190918,60.0227488 L39.4190918,63.0276398 L38.7710449,63.0276398 L38.7710449,56.5650427 L38.7710449,56.5650427 Z M39.4190918,57.1980284 L39.4190918,59.3901043 L40.514209,59.4040948 C40.9571777,59.4040948 41.2808594,59.3628057 41.4869629,59.2829573 C41.692041,59.2017441 41.8537109,59.0713934 41.9719727,58.8925877 C42.0881836,58.7134408 42.1473145,58.5114313 42.1473145,58.2899716 C42.1473145,58.0732891 42.0881836,57.8753744 41.9719727,57.6948626 C41.8537109,57.5157156 41.6995605,57.3877536 41.5078125,57.3116588 C41.3143555,57.235564 40.9995605,57.1980284 40.5620605,57.1980284 L39.4190918,57.1980284 L39.4190918,57.1980284 Z" id="Fill-46" fill="#343433" sketch:type="MSShapeGroup"></path>
            <path d="M38.7710449,56.5650427 L40.0606445,56.5650427 C40.800293,56.5650427 41.2989746,56.5971185 41.5577148,56.6616114 C41.9265137,56.7520379 42.2300293,56.9393744 42.4641602,57.2215735 C42.6996582,57.5041137 42.8162109,57.8593365 42.8162109,58.2869005 C42.8162109,58.7171943 42.701709,59.0734408 42.4733887,59.35291 C42.2433594,59.6330616 41.929248,59.8214218 41.5259277,59.9176493 C41.2323242,59.9882844 40.6833984,60.0227488 39.8805176,60.0227488 L39.4190918,60.0227488 L39.4190918,63.0276398 L38.7710449,63.0276398 L38.7710449,56.5650427 L38.7710449,56.5650427 Z M39.4190918,57.1980284 L39.4190918,59.3901043 L40.514209,59.4040948 C40.9571777,59.4040948 41.2808594,59.3628057 41.4869629,59.2829573 C41.692041,59.2017441 41.8537109,59.0713934 41.9719727,58.8925877 C42.0881836,58.7134408 42.1473145,58.5114313 42.1473145,58.2899716 C42.1473145,58.0732891 42.0881836,57.8753744 41.9719727,57.6948626 C41.8537109,57.5157156 41.6995605,57.3877536 41.5078125,57.3116588 C41.3143555,57.235564 40.9995605,57.1980284 40.5620605,57.1980284 L39.4190918,57.1980284 L39.4190918,57.1980284 Z" id="Stroke-47" stroke="#343433" stroke-width="0.5" sketch:type="MSShapeGroup"></path>
            <path d="M55.7217773,56.5650427 L58.7436035,63.0276398 L58.0422363,63.0276398 L57.0250488,60.9014218 L54.2349609,60.9014218 L53.2266602,63.0276398 L52.5047852,63.0276398 L55.5635254,56.5650427 L55.7217773,56.5650427 L55.7217773,56.5650427 Z M55.6407715,57.9378199 L54.5306152,60.2779905 L56.7440918,60.2779905 L55.6407715,57.9378199 L55.6407715,57.9378199 Z" id="Fill-48" fill="#343433" sketch:type="MSShapeGroup"></path>
            <path d="M55.7217773,56.5650427 L58.7436035,63.0276398 L58.0422363,63.0276398 L57.0250488,60.9014218 L54.2349609,60.9014218 L53.2266602,63.0276398 L52.5047852,63.0276398 L55.5635254,56.5650427 L55.7217773,56.5650427 L55.7217773,56.5650427 Z M55.6407715,57.9378199 L54.5306152,60.2779905 L56.7440918,60.2779905 L55.6407715,57.9378199 L55.6407715,57.9378199 Z" id="Stroke-49" stroke="#343433" stroke-width="0.5" sketch:type="MSShapeGroup"></path>
            <path d="M68.4321777,63.0276398 L68.4321777,56.5650427 L69.776123,56.5650427 C70.7430664,56.5650427 71.4468262,56.6428436 71.884668,56.7974218 C72.5118652,57.0175166 73.0030273,57.3976493 73.3571289,57.9412322 C73.7098633,58.4820853 73.8862305,59.1273555 73.8862305,59.8780664 C73.8862305,60.5253839 73.7464355,61.094218 73.4654785,61.5866161 C73.1855469,62.0790142 72.8215332,62.4420853 72.3754883,62.6761706 C71.928418,62.9105972 71.2998535,63.0276398 70.4925293,63.0276398 L68.4321777,63.0276398 L68.4321777,63.0276398 Z M69.0532227,62.4164929 L69.803125,62.4164929 C70.6969238,62.4164929 71.3172852,62.3615545 71.6631836,62.2499716 C72.1505859,62.091981 72.5333984,61.8084171 72.8119629,61.396891 C73.0912109,60.9857062 73.2303223,60.4827299 73.2303223,59.8886445 C73.2303223,59.2652133 73.079248,58.7325498 72.7770996,58.2903128 C72.4749512,57.8484171 72.0535156,57.5460853 71.5141602,57.3819526 C71.1091309,57.2594502 70.4416016,57.1980284 69.5108887,57.1980284 L69.0532227,57.1980284 L69.0532227,62.4164929 L69.0532227,62.4164929 Z" id="Fill-50" fill="#343433" sketch:type="MSShapeGroup"></path>
            <path d="M68.4321777,63.0276398 L68.4321777,56.5650427 L69.776123,56.5650427 C70.7430664,56.5650427 71.4468262,56.6428436 71.884668,56.7974218 C72.5118652,57.0175166 73.0030273,57.3976493 73.3571289,57.9412322 C73.7098633,58.4820853 73.8862305,59.1273555 73.8862305,59.8780664 C73.8862305,60.5253839 73.7464355,61.094218 73.4654785,61.5866161 C73.1855469,62.0790142 72.8215332,62.4420853 72.3754883,62.6761706 C71.928418,62.9105972 71.2998535,63.0276398 70.4925293,63.0276398 L68.4321777,63.0276398 L68.4321777,63.0276398 Z M69.0532227,62.4164929 L69.803125,62.4164929 C70.6969238,62.4164929 71.3172852,62.3615545 71.6631836,62.2499716 C72.1505859,62.091981 72.5333984,61.8084171 72.8119629,61.396891 C73.0912109,60.9857062 73.2303223,60.4827299 73.2303223,59.8886445 C73.2303223,59.2652133 73.079248,58.7325498 72.7770996,58.2903128 C72.4749512,57.8484171 72.0535156,57.5460853 71.5141602,57.3819526 C71.1091309,57.2594502 70.4416016,57.1980284 69.5108887,57.1980284 L69.0532227,57.1980284 L69.0532227,62.4164929 L69.0532227,62.4164929 Z" id="Stroke-51" stroke="#343433" stroke-width="0.5" sketch:type="MSShapeGroup"></path>
            <path d="M83.5751465,56.5650427 L87.286377,56.5650427 L87.286377,57.1980284 L84.2211426,57.1980284 L84.2211426,59.2229005 L87.2586914,59.2229005 L87.2586914,59.8558863 L84.2211426,59.8558863 L84.2211426,62.3949953 L87.2586914,62.3949953 L87.2586914,63.0276398 L83.5751465,63.0276398 L83.5751465,56.5650427" id="Fill-52" fill="#343433" sketch:type="MSShapeGroup"></path>
            <path d="M83.5751465,56.5650427 L87.286377,56.5650427 L87.286377,57.1980284 L84.2211426,57.1980284 L84.2211426,59.2229005 L87.2586914,59.2229005 L87.2586914,59.8558863 L84.2211426,59.8558863 L84.2211426,62.3949953 L87.2586914,62.3949953 L87.2586914,63.0276398 L83.5751465,63.0276398 L83.5751465,56.5650427" id="Stroke-53" stroke="#343433" stroke-width="0.5" sketch:type="MSShapeGroup"></path>
            <path d="M96.975293,56.5650427 L98.2635254,56.5650427 C98.9847168,56.5650427 99.4710938,56.5943886 99.7257324,56.6530806 C100.110254,56.7407773 100.422656,56.9287962 100.664307,57.2181611 C100.90459,57.5071848 101.024561,57.86309 101.024561,58.2851943 C101.024561,58.637346 100.941846,58.9465024 100.775732,59.2136872 C100.609277,59.4805308 100.373779,59.6811754 100.066162,59.8176682 C99.7568359,59.9545024 99.3316406,60.0234313 98.7888672,60.0265024 L101.118213,63.0276398 L100.316357,63.0276398 L97.9873535,60.0265024 L97.6226563,60.0265024 L97.6226563,63.0276398 L96.975293,63.0276398 L96.975293,56.5650427 L96.975293,56.5650427 Z M97.6226563,57.1980284 L97.6226563,59.3952227 L98.7382813,59.4040948 C99.1689453,59.4040948 99.4898926,59.361782 99.6977051,59.279545 C99.9044922,59.1983318 100.066162,59.0672986 100.181689,58.8867867 C100.297559,58.7069573 100.35498,58.5049479 100.35498,58.2831469 C100.35498,58.065782 100.296875,57.8692322 100.180322,57.6917915 C100.062061,57.5143507 99.9079102,57.3880948 99.7175293,57.3116588 C99.526123,57.235564 99.208252,57.1980284 98.7635742,57.1980284 L97.6226563,57.1980284 L97.6226563,57.1980284 Z" id="Fill-54" fill="#343433" sketch:type="MSShapeGroup"></path>
            <path d="M96.975293,56.5650427 L98.2635254,56.5650427 C98.9847168,56.5650427 99.4710938,56.5943886 99.7257324,56.6530806 C100.110254,56.7407773 100.422656,56.9287962 100.664307,57.2181611 C100.90459,57.5071848 101.024561,57.86309 101.024561,58.2851943 C101.024561,58.637346 100.941846,58.9465024 100.775732,59.2136872 C100.609277,59.4805308 100.373779,59.6811754 100.066162,59.8176682 C99.7568359,59.9545024 99.3316406,60.0234313 98.7888672,60.0265024 L101.118213,63.0276398 L100.316357,63.0276398 L97.9873535,60.0265024 L97.6226563,60.0265024 L97.6226563,63.0276398 L96.975293,63.0276398 L96.975293,56.5650427 L96.975293,56.5650427 Z M97.6226563,57.1980284 L97.6226563,59.3952227 L98.7382813,59.4040948 C99.1689453,59.4040948 99.4898926,59.361782 99.6977051,59.279545 C99.9044922,59.1983318 100.066162,59.0672986 100.181689,58.8867867 C100.297559,58.7069573 100.35498,58.5049479 100.35498,58.2831469 C100.35498,58.065782 100.296875,57.8692322 100.180322,57.6917915 C100.062061,57.5143507 99.9079102,57.3880948 99.7175293,57.3116588 C99.526123,57.235564 99.208252,57.1980284 98.7635742,57.1980284 L97.6226563,57.1980284 L97.6226563,57.1980284 Z" id="Stroke-55" stroke="#343433" stroke-width="0.5" sketch:type="MSShapeGroup"></path>
            <path d="M110.806787,56.5650427 L112.084766,56.5650427 C112.597119,56.5650427 112.991895,56.6261232 113.268066,56.7476019 C113.543213,56.8680569 113.761621,57.0557346 113.921924,57.3072227 C114.080859,57.5590521 114.16084,57.8385213 114.16084,58.146654 C114.16084,58.4332891 114.090771,58.6953555 113.95166,58.9308057 C113.81084,59.1665972 113.604395,59.357346 113.33335,59.5044171 C113.669678,59.6187299 113.929102,59.7528341 114.110254,59.9063886 C114.291064,60.0596019 114.433252,60.2462559 114.53374,60.4646445 C114.633887,60.6816682 114.685156,60.9184834 114.685156,61.1744076 C114.685156,61.6927393 114.495117,62.1305403 114.114014,62.4898578 C113.735645,62.8488341 113.226025,63.0276398 112.585498,63.0276398 L110.806787,63.0276398 L110.806787,56.5650427 L110.806787,56.5650427 Z M111.441162,57.1980284 L111.441162,59.2672607 L111.81167,59.2672607 C112.261816,59.2672607 112.591992,59.2252891 112.804248,59.141346 C113.015137,59.0584265 113.182959,58.9267109 113.307031,58.7465403 C113.430762,58.5660284 113.49126,58.3660664 113.49126,58.146654 C113.49126,57.8508057 113.387354,57.6184265 113.18125,57.4495166 C112.973096,57.2812891 112.643262,57.1980284 112.191406,57.1980284 L111.441162,57.1980284 L111.441162,57.1980284 Z M111.441162,59.9176493 L111.441162,62.3949953 L112.244043,62.3949953 C112.716064,62.3949953 113.062646,62.3489289 113.284473,62.2571374 C113.50459,62.1646635 113.681299,62.0206635 113.815625,61.8237725 C113.948584,61.627564 114.015918,61.4153175 114.015918,61.1870332 C114.015918,60.9000569 113.921924,60.6495924 113.733936,60.435981 C113.545264,60.2220284 113.288232,60.0752986 112.95874,59.9961327 C112.738281,59.9432417 112.354102,59.9176493 111.807227,59.9176493 L111.441162,59.9176493 L111.441162,59.9176493 Z" id="Fill-56" fill="#343433" sketch:type="MSShapeGroup"></path>
            <path d="M110.806787,56.5650427 L112.084766,56.5650427 C112.597119,56.5650427 112.991895,56.6261232 113.268066,56.7476019 C113.543213,56.8680569 113.761621,57.0557346 113.921924,57.3072227 C114.080859,57.5590521 114.16084,57.8385213 114.16084,58.146654 C114.16084,58.4332891 114.090771,58.6953555 113.95166,58.9308057 C113.81084,59.1665972 113.604395,59.357346 113.33335,59.5044171 C113.669678,59.6187299 113.929102,59.7528341 114.110254,59.9063886 C114.291064,60.0596019 114.433252,60.2462559 114.53374,60.4646445 C114.633887,60.6816682 114.685156,60.9184834 114.685156,61.1744076 C114.685156,61.6927393 114.495117,62.1305403 114.114014,62.4898578 C113.735645,62.8488341 113.226025,63.0276398 112.585498,63.0276398 L110.806787,63.0276398 L110.806787,56.5650427 L110.806787,56.5650427 Z M111.441162,57.1980284 L111.441162,59.2672607 L111.81167,59.2672607 C112.261816,59.2672607 112.591992,59.2252891 112.804248,59.141346 C113.015137,59.0584265 113.182959,58.9267109 113.307031,58.7465403 C113.430762,58.5660284 113.49126,58.3660664 113.49126,58.146654 C113.49126,57.8508057 113.387354,57.6184265 113.18125,57.4495166 C112.973096,57.2812891 112.643262,57.1980284 112.191406,57.1980284 L111.441162,57.1980284 L111.441162,57.1980284 Z M111.441162,59.9176493 L111.441162,62.3949953 L112.244043,62.3949953 C112.716064,62.3949953 113.062646,62.3489289 113.284473,62.2571374 C113.50459,62.1646635 113.681299,62.0206635 113.815625,61.8237725 C113.948584,61.627564 114.015918,61.4153175 114.015918,61.1870332 C114.015918,60.9000569 113.921924,60.6495924 113.733936,60.435981 C113.545264,60.2220284 113.288232,60.0752986 112.95874,59.9961327 C112.738281,59.9432417 112.354102,59.9176493 111.807227,59.9176493 L111.441162,59.9176493 L111.441162,59.9176493 Z" id="Stroke-57" stroke="#343433" stroke-width="0.5" sketch:type="MSShapeGroup"></path>
            <path d="M127.744873,56.4022749 C128.725488,56.4022749 129.546143,56.7288341 130.206836,57.3819526 C130.867871,58.0354123 131.198389,58.8393555 131.198389,59.7944645 C131.198389,60.7403602 130.867871,61.5425972 130.20957,62.2011754 C129.549902,62.8618009 128.746338,63.1904076 127.79751,63.1904076 C126.836377,63.1904076 126.025977,62.8624834 125.366309,62.2056114 C124.705957,61.5501043 124.37373,60.7567393 124.37373,59.8244929 C124.37373,59.2044739 124.52583,58.6284739 124.826953,58.0988815 C125.127393,57.5675829 125.53584,57.1526445 126.057422,56.8523602 C126.576611,56.5530995 127.138867,56.4022749 127.744873,56.4022749 L127.744873,56.4022749 Z M127.7729,57.0304834 C127.294385,57.0304834 126.839795,57.1543507 126.410498,57.4048152 C125.981201,57.6539147 125.646582,57.9896872 125.405615,58.4114502 C125.164648,58.832872 125.043311,59.304455 125.043311,59.823128 C125.043311,60.5912417 125.310938,61.2399242 125.844482,61.7684929 C126.377686,62.2974028 127.020605,62.5621991 127.7729,62.5621991 C128.276367,62.5621991 128.740186,62.4407204 129.167432,62.1970806 C129.595361,61.9544645 129.930664,61.6214218 130.16958,61.1996588 C130.40918,60.7772133 130.527441,60.308019 130.527441,59.7917346 C130.527441,59.279545 130.40918,58.8147867 130.16958,58.4005308 C129.930664,57.9855924 129.591943,57.6539147 129.156836,57.4048152 C128.722754,57.1543507 128.260986,57.0304834 127.7729,57.0304834 L127.7729,57.0304834 Z" id="Fill-58" fill="#343433" sketch:type="MSShapeGroup"></path>
            <path d="M127.744873,56.4022749 C128.725488,56.4022749 129.546143,56.7288341 130.206836,57.3819526 C130.867871,58.0354123 131.198389,58.8393555 131.198389,59.7944645 C131.198389,60.7403602 130.867871,61.5425972 130.20957,62.2011754 C129.549902,62.8618009 128.746338,63.1904076 127.79751,63.1904076 C126.836377,63.1904076 126.025977,62.8624834 125.366309,62.2056114 C124.705957,61.5501043 124.37373,60.7567393 124.37373,59.8244929 C124.37373,59.2044739 124.52583,58.6284739 124.826953,58.0988815 C125.127393,57.5675829 125.53584,57.1526445 126.057422,56.8523602 C126.576611,56.5530995 127.138867,56.4022749 127.744873,56.4022749 L127.744873,56.4022749 Z M127.7729,57.0304834 C127.294385,57.0304834 126.839795,57.1543507 126.410498,57.4048152 C125.981201,57.6539147 125.646582,57.9896872 125.405615,58.4114502 C125.164648,58.832872 125.043311,59.304455 125.043311,59.823128 C125.043311,60.5912417 125.310938,61.2399242 125.844482,61.7684929 C126.377686,62.2974028 127.020605,62.5621991 127.7729,62.5621991 C128.276367,62.5621991 128.740186,62.4407204 129.167432,62.1970806 C129.595361,61.9544645 129.930664,61.6214218 130.16958,61.1996588 C130.40918,60.7772133 130.527441,60.308019 130.527441,59.7917346 C130.527441,59.279545 130.40918,58.8147867 130.16958,58.4005308 C129.930664,57.9855924 129.591943,57.6539147 129.156836,57.4048152 C128.722754,57.1543507 128.260986,57.0304834 127.7729,57.0304834 L127.7729,57.0304834 Z" id="Stroke-59" stroke="#343433" stroke-width="0.5" sketch:type="MSShapeGroup"></path>
            <path d="M140.886621,56.5650427 L142.177246,56.5650427 C142.895361,56.5650427 143.382764,56.5943886 143.637061,56.6530806 C144.022266,56.7407773 144.333984,56.9287962 144.574951,57.2181611 C144.815918,57.5071848 144.936914,57.86309 144.936914,58.2851943 C144.936914,58.637346 144.853516,58.9465024 144.687744,59.2136872 C144.521631,59.4805308 144.285449,59.6811754 143.976807,59.8176682 C143.669873,59.9545024 143.242627,60.0234313 142.701904,60.0265024 L145.027832,63.0276398 L144.229395,63.0276398 L141.900732,60.0265024 L141.532959,60.0265024 L141.532959,63.0276398 L140.886621,63.0276398 L140.886621,56.5650427 L140.886621,56.5650427 Z M141.532959,57.1980284 L141.532959,59.3952227 L142.649951,59.4040948 C143.080957,59.4040948 143.400879,59.361782 143.606982,59.279545 C143.815479,59.1983318 143.976807,59.0672986 144.093018,58.8867867 C144.209229,58.7069573 144.26665,58.5049479 144.26665,58.2831469 C144.26665,58.065782 144.208545,57.8692322 144.090967,57.6917915 C143.973047,57.5143507 143.818213,57.3880948 143.628516,57.3116588 C143.437451,57.235564 143.118555,57.1980284 142.675928,57.1980284 L141.532959,57.1980284 L141.532959,57.1980284 Z" id="Fill-60" fill="#343433" sketch:type="MSShapeGroup"></path>
            <path d="M140.886621,56.5650427 L142.177246,56.5650427 C142.895361,56.5650427 143.382764,56.5943886 143.637061,56.6530806 C144.022266,56.7407773 144.333984,56.9287962 144.574951,57.2181611 C144.815918,57.5071848 144.936914,57.86309 144.936914,58.2851943 C144.936914,58.637346 144.853516,58.9465024 144.687744,59.2136872 C144.521631,59.4805308 144.285449,59.6811754 143.976807,59.8176682 C143.669873,59.9545024 143.242627,60.0234313 142.701904,60.0265024 L145.027832,63.0276398 L144.229395,63.0276398 L141.900732,60.0265024 L141.532959,60.0265024 L141.532959,63.0276398 L140.886621,63.0276398 L140.886621,56.5650427 L140.886621,56.5650427 Z M141.532959,57.1980284 L141.532959,59.3952227 L142.649951,59.4040948 C143.080957,59.4040948 143.400879,59.361782 143.606982,59.279545 C143.815479,59.1983318 143.976807,59.0672986 144.093018,58.8867867 C144.209229,58.7069573 144.26665,58.5049479 144.26665,58.2831469 C144.26665,58.065782 144.208545,57.8692322 144.090967,57.6917915 C143.973047,57.5143507 143.818213,57.3880948 143.628516,57.3116588 C143.437451,57.235564 143.118555,57.1980284 142.675928,57.1980284 L141.532959,57.1980284 L141.532959,57.1980284 Z" id="Stroke-61" stroke="#343433" stroke-width="0.5" sketch:type="MSShapeGroup"></path>
            <path d="M154.716406,63.0276398 L154.716406,56.5650427 L154.858252,56.5650427 L159.167285,61.5187109 L159.167285,56.5650427 L159.80542,56.5650427 L159.80542,63.0276398 L159.661182,63.0276398 L155.385986,58.133346 L155.385986,63.0276398 L154.716406,63.0276398" id="Fill-62" fill="#343433" sketch:type="MSShapeGroup"></path>
            <path d="M154.716406,63.0276398 L154.716406,56.5650427 L154.858252,56.5650427 L159.167285,61.5187109 L159.167285,56.5650427 L159.80542,56.5650427 L159.80542,63.0276398 L159.661182,63.0276398 L155.385986,58.133346 L155.385986,63.0276398 L154.716406,63.0276398" id="Stroke-63" stroke="#343433" stroke-width="0.5" sketch:type="MSShapeGroup"></path>
            <g id="Group-69" sketch:type="MSShapeGroup">
                <path d="M19.4900371,39.9998464 C19.3333333,40.0064901 19.163796,39.7959136 19,39.6858592 C19.1641337,39.5703165 19.311719,39.3814042 19.4947653,39.351652 C20.3319824,39.2156004 21.1803445,39.1312543 22.0216143,39.0139785 C22.6227626,38.93021 22.8297872,39.2277324 23,39.7777156 C21.765282,39.8617729 20.6285039,39.9524739 19.4900371,39.9998464 L19.4900371,39.9998464 Z M18.1416247,53.9985508 C18.0905823,53.9959419 18.046729,53.4617727 18,53.1721864 C18.3191948,53.1141387 18.6387491,53.0567433 18.9583034,53 C18.9723221,53.2758896 18.9863408,53.5530837 19,53.8296255 C18.7138749,53.8994132 18.4266715,54.0142041 18.1416247,53.9985508 L18.1416247,53.9985508 Z M14.9994981,41.9972655 C14.3737441,41.924069 13.7766136,40.9595986 14.082665,40.4274175 C14.2301862,40.1699384 15.0122686,39.9301124 15.085809,40.0188093 C15.441181,40.4450708 15.6538757,40.985002 16,41.6442004 C15.52529,41.8211635 15.2478622,42.0261135 14.9994981,41.9972655 L14.9994981,41.9972655 Z M19,25 C18.9665622,25.222619 18.9235707,25.5071429 18.8498283,26 C18.1694283,25.7404762 17.6448724,25.539881 17,25.2934524 C17.7786237,25.1791667 18.3497537,25.0952381 19,25 L19,25 Z M17,23.1793412 L17.131864,23 L18.9237953,23.5152901 C18.9495704,23.5741082 18.974972,23.6332872 19,23.6921053 C18.701158,23.8007204 18.3361972,24.0684691 18.117669,23.98367 C17.701158,23.8212887 17.3675756,23.458637 17,23.1793412 L17,23.1793412 Z M13.4485132,14.999874 C12.8513216,14.9759784 12.3978524,14.6650472 12,14 L14,14.6224381 C13.7326542,14.8130274 13.5870044,15.005632 13.4485132,14.999874 L13.4485132,14.999874 Z M12,12.1003712 C12.7136989,12.0648625 13.2662976,12.0364556 14,12 C13.1169852,13.3086127 12.720843,13.3232896 12,12.1003712 L12,12.1003712 Z M11.7455197,11.9225042 C10.6727457,11.0987504 9.66565865,10.1979619 8.64495773,9.31400451 C8.4676369,9.16025871 8.33524188,8.96022734 8,8.56890383 C9.16909225,8.34653885 10.1281903,8.14456543 11.0961375,8.00150092 C11.2411253,7.97981467 11.4994488,8.19764819 11.5903214,8.36272262 C12.0783792,9.24959311 12.561672,10.1422898 12.9711096,11.0637935 C13.0613015,11.266738 12.9275451,11.7308884 12.7464805,11.8318751 C12.4752239,11.9833552 11.9415596,12.0730133 11.7455197,11.9225042 L11.7455197,11.9225042 Z M7.84455775,6.71071652 C7.50240425,5.89238852 7.25820191,5.02391431 7.0082576,4.16488794 C6.96637504,4.02099012 7.09337377,3.67033003 7.17443679,3.65761179 C7.78004509,3.5634968 9.93226825,3.31712629 10.0548761,3.30368129 C10.5608444,2.78441366 11.072217,3.0068012 11.4744922,3.40579061 C11.7740876,3.70303408 12.0378802,4.13109375 12.1412355,4.55152248 C12.4739317,5.9094673 12.7286047,7.28994158 12.9991525,8.66496518 C13.0116497,8.72782963 12.8839754,8.822308 12.7458305,9 C12.281407,8.10826958 11.8504219,7.28013036 11.4197747,6.45344466 C11.255622,6.46398263 11.0907939,6.4745206 10.9263035,6.48433182 C10.7753237,6.51776263 9.66408476,6.84480312 9.52492658,6.88186771 C8.97673791,7.48725601 8.14955736,7.43965345 7.84455775,6.71071652 L7.84455775,6.71071652 Z M29.9723126,67.1978832 C29.7224705,65.5444341 29.4151277,63.9002012 29.1528439,62.2481174 C28.975298,61.1298889 28.8394484,60.0048335 28.6696364,58.8848982 C28.6269313,58.6063651 28.5889337,58.2844818 28.4295459,58.0772887 C28.2657867,57.8653168 27.9456659,57.6308165 27.7112918,57.6475421 C26.6426535,57.7270743 26.6362645,57.7584775 26.4802393,56.662436 C26.2377949,54.9550553 26.0084647,53.2456265 25.7737543,51.5372217 L25.772073,51.534491 C25.2552394,50.992785 24.9838766,49.5543799 25.2142156,48.8908157 C25.3282081,48.5638124 25.3823462,48.1859494 25.352419,47.8415377 C25.1308228,45.3282542 24.9001475,42.8156533 24.6244133,40.3074898 C24.5759917,39.8709164 24.4068522,39.3435467 24.1072434,39.0619415 C23.5503948,38.5383266 23.4437999,37.9341555 23.4491801,37.2463561 C23.4501889,37.1163058 23.4646481,36.982842 23.4390923,36.858253 C23.2181686,35.7864466 23.6744752,35.261125 24.631811,34.7149816 C25.5891469,34.1684969 27.0182573,32.4904713 27.4251335,30.5130909 C27.6961601,29.1951787 27.8831213,28.6097813 27.8528578,26.8686079 C27.8199042,25.0004562 27.5475326,23.4398515 26.6234866,21.4198037 C26.001067,20.0585413 25.6540453,19.6707795 24.9331011,18.9505529 C24.2124932,18.2306677 23.2581837,17.7118314 22.2557889,17.3114401 C21.0909798,16.8465355 19.3925241,16.7813397 18.456709,17.7019326 C18.890486,17.833007 19.2728151,18.0685313 19.6305971,18.0354214 C21.1921944,17.8920588 22.1683609,18.8187958 23.0113679,19.9124479 C23.5080259,20.5568971 23.8611002,21.3232045 24.2208998,22.0639115 C24.3278308,22.2827102 24.2370403,22.6004974 24.236704,22.8732277 L24.2488094,22.8954148 C24.2488094,22.8954148 24.3816326,23.5176769 24.386004,23.5634164 C24.4270279,23.8347814 24.4677155,24.1068291 24.5087394,24.3781941 L24.2467919,24.4549955 C23.854375,24.0348064 23.3109767,23.705755 23.4844876,22.9414957 C23.3129943,22.5708008 23.2363267,22.236288 22.9696715,21.8307766 C22.7030164,21.4249238 21.7117181,20.4882879 20.9695895,19.9916387 C20.114477,19.4202362 19.1430182,19.0184795 18.1930801,18.612968 C18.0121715,18.5354839 17.616392,18.7129805 17.4603668,18.8959386 C17.1422636,19.2697054 16.8934303,19.3970251 16.5514526,18.9624998 C16.5070661,18.9065201 16.4263634,18.8740928 16.356421,18.8454203 C15.9132287,18.6600729 15.3261165,18.6750918 15.476089,17.8633862 C15.5618356,17.3984817 15.5043349,16.9803407 15.8580818,16.5342098 C16.4808377,15.74947 16.5386746,14.7978152 16.3567573,13.772431 C16.1627345,12.6780962 16.1694598,11.5445073 16.1190206,10.4269614 C16.0648825,9.23124876 16.1405413,8.02051716 15.9808172,6.8411888 C15.8641345,5.97316216 15.5510753,5.09865007 15.1603397,4.31117958 C14.7053782,3.39502406 14.3940002,2.51709858 14.7390043,1.50468529 C14.7322791,1.42788388 14.6058448,0.958883247 14.4948786,0.740425895 C14.3842486,0.522309882 14.3449061,0.492271996 14.2282234,0.404889056 C14.1112045,0.317506115 13.3657132,0.135572101 13.0772011,0.0700348953 C12.7886889,0.00415635003 12.5297677,-0.0101799137 12.1935064,0.00620438771 C11.8572451,0.0225886891 10.9365618,0.299073776 10.7828904,0.353688114 C10.629219,0.407961112 10.5643205,0.495002713 10.4550356,0.565318674 C9.29089907,1.33981826 8.00503595,1.32104458 6.69731585,1.15651888 C4.54625246,1.44324416 2.98162874,2.79221831 1.45029489,4.18044651 C1.27443024,4.34019345 1.1688442,4.70781621 1.20146154,4.95597011 C1.43617191,6.76131533 1.56798633,8.59703976 2.45470732,10.2440034 C2.73313166,10.7157347 3.01155599,11.1874661 3.28998033,11.6595388 C3.62187021,12.1753029 5.65759598,14.3496363 6.12163654,16.0873962 C6.46361426,17.3677611 6.66537103,18.6860147 6.95556451,20.1128143 C7.25685461,20.2322831 7.71551499,20.4125105 8.17451164,20.5934205 C8.61703148,19.9680863 9.13621889,20.2391099 9.65137116,20.4667835 C10.5925665,20.6531549 11.5334255,20.8395263 12.4742846,21.0258977 C12.2022492,20.8948233 11.9389566,20.7391725 11.6561609,20.6384773 C11.2196938,20.4824851 10.7701124,20.3647229 10.3507946,20.1449002 C12.0526129,19.51547 13.464574,20.4507405 15.2003548,20.9361254 C14.8223971,21.078464 14.6609917,21.1388812 14.2840428,21.2812198 L15.9902325,21.7969839 C15.9875424,21.8601318 15.984516,21.9225969 15.9814897,21.9850621 C15.6307692,22.0393351 15.2800487,22.0936081 14.6825124,22.1864524 C15.3856347,22.5916226 15.7642649,22.9203326 15.1035115,23.4060589 C15.0564349,23.4405342 15.0766106,23.6108626 15.1055291,23.7054137 C15.3893336,24.6178145 14.8308036,25.1195837 14.149202,25.3653482 C13.1084733,25.7408218 12.0132704,25.9623512 10.9342079,26.2186973 C10.8424086,26.2402017 10.698825,26.0353979 10.5794523,25.9350441 C10.2996829,25.3202914 10.0199135,24.7051974 9.74014414,24.0904448 C9.64531846,23.9778027 9.55015652,23.8648193 9.45533084,23.7521772 L9.19506461,24.6396602 C9.07401055,24.4375872 8.95060266,24.2488264 8.84367158,24.0508494 C8.00402717,22.4902447 7.21482195,20.8989194 5.67003765,19.88241 C3.83774995,18.6767985 2.44798209,18.8727275 1.23979533,20.7077692 C0.710520078,21.511624 0.438484705,22.490586 0,23.5043647 C0.635197552,23.5774114 0.944894187,23.7040483 1.41902259,23.6671837 C1.89315099,23.6306603 3.80412382,22.5353015 5.51199485,24.1484725 C7.21986587,25.7613022 6.537928,27.5523111 6.46664061,27.670756 C6.37685885,27.8629302 4.77491013,30.9254292 4.70732161,31.0326098 C4.41511056,31.4934183 3.48366683,32.5314321 3.03005036,33.0253505 C2.57609764,33.5196103 1.89853117,34.0930608 1.41565997,34.5487492 C1.55285458,34.7675479 1.69038544,34.9870293 1.82825256,35.2051453 C1.97318117,35.4140451 2.1187823,35.6226036 2.26404718,35.8311621 C2.5972821,36.2981147 2.907315,36.6503772 3.13361884,36.8483542 C4.20091213,37.654257 5.31696331,38.2516013 6.73195076,37.9795536 C6.96666113,37.9348381 7.39539426,38.1857228 7.51812962,38.4174924 C8.04740487,39.4165934 8.5074103,40.4535832 8.96102676,41.4909142 C9.04206573,41.676603 9.04744591,41.9701551 8.95867293,42.1456036 C8.54742539,42.9549198 8.66747067,43.6737811 9.01751866,44.5022123 C9.93954708,46.6833724 10.7418665,48.9160748 11.5986602,51.1259075 C11.680708,51.3378794 11.7604019,51.6331382 11.9258424,51.715401 C12.9474042,52.225021 12.9917907,53.2760057 12.9796853,54.1221866 C12.9635447,55.2561168 13.3633594,56.2149398 13.6831439,57.2259877 C13.8075605,57.6185283 13.9884691,57.9919538 14.1202835,58.382105 C14.542964,59.6341387 14.5157268,59.6099036 13.5277912,60.5287898 C13.3088851,60.7318869 13.1757256,61.2165891 13.2423053,61.5166266 C13.5217385,62.7707084 16.2515075,71.1348943 16.809365,71.716537 C17.3675587,72.2981797 19.5794854,71.8445393 20.9487413,71.5943374 C21.8341172,71.4322011 27.5478688,69.7381326 28.8434835,69.474277 C29.5751881,69.3247703 30.1327093,68.2642281 29.9723126,67.1978832 L29.9723126,67.1978832 Z" id="Fill-64" fill="#152C3E"></path>
                <path d="M19,6 L175,6" id="Stroke-66" stroke="#636462"></path>
                <path d="M33,68.2 L175,67.3" id="Path" stroke="#636462"></path>
                <path d="M29,28 L172,28 M29,30 L172,30" id="Stroke-67" stroke="#636462" stroke-width="0.682464455"></path>
                <path d="M174.5,6.2718294 L174.5,67.5117346" id="Stroke-68" stroke="#636462"></path>
            </g>
        </g>
    </g>
</svg>