<?xml version="1.0" encoding="utf-8"?>
<!-- Generator: Adobe Illustrator 18.0.0, SVG Export Plug-In . SVG Version: 6.00 Build 0)  -->
<!DOCTYPE svg PUBLIC "-//W3C//DTD SVG 1.1//EN" "http://www.w3.org/Graphics/SVG/1.1/DTD/svg11.dtd">
<svg version="1.1" id="Ebene_1" xmlns:sketch="http://www.bohemiancoding.com/sketch/ns"
	 xmlns="http://www.w3.org/2000/svg" xmlns:xlink="http://www.w3.org/1999/xlink" x="0px" y="0px" viewBox="0 0 233 96"
	 enable-background="new 0 0 233 96" xml:space="preserve">
<title>Logo_final</title>
<desc>Created with Sketch.</desc>
<g>
	<g>
		<path fill="#14354F" d="M41,89.4c-0.3-2.2-0.8-4.4-1.1-6.6c-0.2-1.5-0.4-3-0.7-4.5c-0.1-0.4-0.1-0.8-0.3-1.1
			c-0.2-0.3-0.7-0.6-1-0.6c-1.4,0.1-1.4,0.1-1.7-1.3c-0.3-2.3-0.6-4.5-1-6.8l0,0c-0.7-0.7-1.1-2.6-0.8-3.5c0.2-0.4,0.2-0.9,0.2-1.4
			c-0.3-3.3-0.6-6.7-1-10c-0.1-0.6-0.3-1.3-0.7-1.7c-0.8-0.7-0.9-1.5-0.9-2.4c0-0.2,0-0.3,0-0.5c-0.3-1.4,0.3-2.1,1.6-2.8
			c1.3-0.7,3.2-3,3.8-5.6c0.4-1.7,0.6-2.5,0.6-4.8c0-2.5-0.4-4.6-1.7-7.2c-0.8-1.8-1.3-2.3-2.3-3.3c-1-1-2.3-1.6-3.6-2.2
			c-1.6-0.6-3.9-0.7-5.1,0.5c0.6,0.2,1.1,0.5,1.6,0.4c2.1-0.2,3.4,1,4.6,2.5c0.7,0.9,1.1,1.9,1.6,2.9c0.1,0.3,0,0.7,0,1.1l0,0
			c0,0,0.2,0.8,0.2,0.9c0.1,0.4,0.1,0.7,0.2,1.1l-0.4,0.1c-0.5-0.6-1.3-1-1-2c-0.2-0.5-0.3-0.9-0.7-1.5c-0.4-0.5-1.7-1.8-2.7-2.4
			c-1.2-0.8-2.5-1.3-3.7-1.8c-0.2-0.1-0.8,0.1-1,0.4c-0.4,0.5-0.8,0.7-1.2,0.1c-0.1-0.1-0.2-0.1-0.3-0.2C22,25,21.3,25,21.5,23.9
			c0.1-0.6,0-1.2,0.5-1.8c0.8-1,0.9-2.3,0.7-3.7c-0.3-1.5-0.3-3-0.3-4.4c-0.1-1.6,0-3.2-0.2-4.8C22,8.1,21.6,7,21,5.9
			c-0.6-1.2-1-2.4-0.6-3.7c0-0.1-0.2-0.7-0.3-1c-0.1-0.3-0.2-0.3-0.4-0.4c-0.2-0.1-1.2-0.4-1.6-0.4c-0.4-0.1-0.7-0.1-1.2-0.1
			c-0.5,0-1.7,0.4-1.9,0.5c-0.2,0.1-0.3,0.2-0.4,0.3c-1.6,1-3.3,1-5.1,0.8c-2.9,0.4-5,2.2-7.1,4C2.3,6,2.2,6.5,2.2,6.8
			c0.3,2.4,0.5,4.8,1.7,7c0.4,0.6,0.8,1.3,1.1,1.9c0.4,0.7,3.2,3.6,3.8,5.9c0.5,1.7,0.7,3.4,1.1,5.3c0.4,0.2,1,0.4,1.6,0.6
			c0.6-0.8,1.3-0.5,2-0.2c1.3,0.2,2.5,0.5,3.8,0.7c-0.4-0.2-0.7-0.4-1.1-0.5c-0.6-0.2-1.2-0.4-1.8-0.7c2.3-0.8,4.2,0.4,6.5,1.1
			c-0.5,0.2-0.7,0.3-1.2,0.5l2.3,0.7c0,0.1,0,0.2,0,0.2c-0.5,0.1-0.9,0.1-1.8,0.3c0.9,0.5,1.5,1,0.6,1.6c-0.1,0,0,0.3,0,0.4
			c0.4,1.2-0.4,1.9-1.3,2.2c-1.4,0.5-2.9,0.8-4.3,1.1c-0.1,0-0.3-0.2-0.5-0.4c-0.4-0.8-0.8-1.6-1.1-2.4c-0.1-0.1-0.3-0.3-0.4-0.4
			L13,32.9c-0.2-0.3-0.3-0.5-0.5-0.8c-1.1-2.1-2.2-4.2-4.3-5.5c-2.5-1.6-4.3-1.3-6,1.1c-0.7,1.1-1.1,2.4-1.7,3.7
			c0.9,0.1,1.3,0.3,1.9,0.2c0.6,0,3.2-1.5,5.5,0.6s1.4,4.5,1.3,4.7c-0.1,0.3-2.3,4.3-2.4,4.5c-0.4,0.6-1.6,2-2.3,2.6
			c-0.6,0.7-1.5,1.4-2.2,2c0.2,0.3,0.4,0.6,0.6,0.9c0.2,0.3,0.4,0.6,0.6,0.8c0.4,0.6,0.9,1.1,1.2,1.4c1.4,1.1,2.9,1.9,4.8,1.5
			c0.3-0.1,0.9,0.3,1.1,0.6c0.7,1.3,1.3,2.7,1.9,4.1c0.1,0.2,0.1,0.6,0,0.9c-0.6,1.1-0.4,2,0.1,3.1c1.2,2.9,2.3,5.9,3.5,8.8
			c0.1,0.3,0.2,0.7,0.4,0.8c1.4,0.7,1.4,2.1,1.4,3.2c0,1.5,0.5,2.8,0.9,4.1c0.2,0.5,0.4,1,0.6,1.5c0.6,1.7,0.5,1.6-0.8,2.8
			c-0.3,0.3-0.5,0.9-0.4,1.3c0.4,1.7,4.1,12.8,4.8,13.5c0.8,0.8,3.7,0.2,5.6-0.2c1.2-0.2,8.9-2.5,10.6-2.8
			C40.5,92.2,41.2,90.8,41,89.4z M11.3,8.3c-0.5-1-0.8-2.1-1.1-3.2c-0.1-0.2,0.1-0.6,0.2-0.6C11.3,4.4,14.1,4,14.3,4
			c0.7-0.6,1.4-0.4,1.9,0.1c0.4,0.4,0.8,0.9,0.9,1.4c0.4,1.7,0.8,3.4,1.2,5.1c0,0.1-0.2,0.2-0.3,0.4C17.3,10,16.7,9,16.1,8
			c-0.2,0-0.4,0-0.7,0c-0.2,0-1.7,0.4-1.9,0.5C12.9,9.3,11.8,9.2,11.3,8.3z M16.2,15.8c-1.4-1.2-2.8-2.4-4.1-3.7
			c-0.2-0.2-0.4-0.5-0.9-1c1.6-0.3,2.8-0.6,4.1-0.8c0.2,0,0.5,0.3,0.7,0.5c0.7,1.2,1.3,2.5,1.8,3.8c0.1,0.3-0.1,0.9-0.3,1.1
			C17.2,15.9,16.5,16,16.2,15.8z M16.7,16.9c0.9,0,1.6-0.1,2.5-0.1C18.1,18,17.6,18,16.7,16.9z M18.8,20c-1,0-1.7-0.5-2.4-1.6l3.3,1
			C19.3,19.7,19.1,20,18.8,20z M22.9,31.5l0.2-0.2l2.2,0.6c0,0.1,0.1,0.1,0.1,0.2c-0.4,0.1-0.8,0.5-1.1,0.4
			C23.8,32.3,23.4,31.9,22.9,31.5z M27,33.9c-0.1,0.3-0.1,0.8-0.2,1.5c-1-0.4-1.8-0.7-2.8-1.1C25.1,34.1,26,34,27,33.9z M20.5,54.9
			c-0.6-0.1-1.3-1.1-0.9-1.7c0.2-0.3,1-0.5,1-0.4c0.4,0.4,0.6,1,0.9,1.7C21,54.7,20.7,54.9,20.5,54.9z M24.4,70.8
			c-0.1,0-0.1-0.4-0.2-0.6c0.4,0,0.8-0.1,1.2-0.1c0,0.2,0,0.4,0.1,0.6C25.1,70.8,24.7,70.8,24.4,70.8z M27.2,53.3
			c-0.2,0-0.4-0.3-0.7-0.5c0.2-0.2,0.4-0.5,0.7-0.5c1.1-0.2,2.3-0.3,3.4-0.5c0.8-0.1,1.1,0.3,1.3,1.2C30.3,53.1,28.7,53.2,27.2,53.3
			z"/>
	</g>
	<g>
		<g>
			<rect x="39.7" y="49.7" fill="#9F9F9F" width="189.4" height="0.9"/>
		</g>
		<g>
			<rect x="39.7" y="52.6" fill="#9F9F9F" width="189.4" height="0.9"/>
		</g>
	</g>
	<g>
		<g>
			<rect x="25.4" y="7.5" fill="#6F6F6E" width="207" height="1.8"/>
		</g>
		<g>
			<rect x="43.8" y="87.9" fill="#6F6F6E" width="188.6" height="1.8"/>
		</g>
		<g>
			<rect x="230.6" y="8.4" fill="#6F6F6E" width="1.8" height="80.4"/>
		</g>
	</g>
	<g id="Kickerliga_1_">
		<g id="Fill-364_1_">
			<g>
				<path sketch:type="MSShapeGroup" fill="#3C3C3B" d="M42.8,18.6h2.4v9l9.4-9h3.2L46.5,29.3l12.2,13.3h-3.1L45.2,31.4v11.2h-2.4
					V18.6"/>
			</g>
			<g>
				<path fill="#3C3C3B" d="M59.2,42.8h-3.7L45.4,32v10.9h-2.8V18.3h2.8v8.7l9.1-8.7h3.8l-11.6,11L59.2,42.8z M55.6,42.4h2.5l-12-13
					l11.1-10.6h-2.5L45,28.1v-9.3h-2v23.6h2V30.8L55.6,42.4z"/>
			</g>
		</g>
		<g id="Stroke-365_1_">
			<g>
				<path sketch:type="MSShapeGroup" fill="#3C3C3B" d="M42.8,18.6h2.4v9l9.4-9h3.2L46.5,29.3l12.2,13.3h-3.1L45.2,31.4v11.2h-2.4
					V18.6L42.8,18.6z"/>
			</g>
			<g>
				<path fill="#3C3C3B" d="M60.7,43.5h-5.5l-9.1-9.8v9.8h-4.1V17.7h4.1v7.8l8.2-7.8H60L47.7,29.4L60.7,43.5z M55.9,41.7h0.8
					L45.3,29.3l10.4-9.9H55l-10.4,10L55.9,41.7z M43.7,41.7h0.7V19.4h-0.7V41.7z"/>
			</g>
		</g>
		<g id="Fill-366_1_">
			<g>
				<path sketch:type="MSShapeGroup" fill="#3C3C3B" d="M61.8,18.6h2.4v24h-2.4V18.6L61.8,18.6z"/>
			</g>
			<g>
				<path fill="#3C3C3B" d="M64.4,42.8h-2.8V18.3h2.8V42.8z M62.1,42.4H64V18.8h-1.9V42.4z"/>
			</g>
		</g>
		<g id="Stroke-367_1_">
			<g>
				<path sketch:type="MSShapeGroup" fill="#3C3C3B" d="M61.8,18.6h2.4v24h-2.4V18.6L61.8,18.6z"/>
			</g>
			<g>
				<path fill="#3C3C3B" d="M65.1,43.5H61V17.7h4.1V43.5z M62.7,41.7h0.6V19.4h-0.6V41.7z"/>
			</g>
		</g>
		<g id="Fill-368_1_">
			<g>
				<path sketch:type="MSShapeGroup" fill="#3C3C3B" d="M91.5,23l-1.9,1.5c-1-1.4-2.3-2.4-3.7-3.1c-1.4-0.7-3-1.1-4.7-1.1
					c-1.9,0-3.6,0.5-5.2,1.4c-1.6,0.9-2.8,2.2-3.7,3.7C71.4,27,71,28.7,71,30.6c0,2.9,1,5.4,3,7.3c2,2,4.5,2.9,7.5,2.9
					c3.3,0,6.1-1.3,8.3-4l1.9,1.4c-1.2,1.5-2.6,2.7-4.4,3.5c-1.8,0.8-3.7,1.2-5.9,1.2c-4.1,0-7.4-1.4-9.8-4.2c-2-2.4-3-5.2-3-8.6
					c0-3.5,1.2-6.5,3.6-8.9c2.4-2.4,5.4-3.6,9.1-3.6c2.2,0,4.2,0.4,6,1.3C89,20.2,90.4,21.4,91.5,23"/>
			</g>
			<g>
				<path fill="#3C3C3B" d="M81.3,43.4c-4.2,0-7.5-1.4-9.9-4.3c-2-2.4-3-5.3-3-8.7c0-3.6,1.2-6.6,3.7-9c2.5-2.4,5.6-3.7,9.2-3.7
					c2.2,0,4.3,0.5,6.1,1.4c1.8,0.9,3.3,2.2,4.4,3.8l0.1,0.2l-2.2,1.7l-0.1-0.2c-1-1.3-2.2-2.3-3.6-3c-1.4-0.7-3-1-4.6-1
					c-1.8,0-3.6,0.5-5.1,1.4c-1.6,0.9-2.8,2.1-3.6,3.6c-0.9,1.5-1.3,3.2-1.3,5.1c0,2.9,1,5.3,2.9,7.2c1.9,1.9,4.4,2.9,7.3,2.9
					c3.2,0,5.9-1.3,8.1-3.9l0.1-0.2l2.2,1.7l-0.1,0.2c-1.2,1.5-2.7,2.8-4.5,3.6C85.5,43,83.5,43.4,81.3,43.4z M81.2,18.2
					c-3.6,0-6.6,1.2-8.9,3.5c-2.4,2.3-3.6,5.3-3.6,8.7c0,3.3,1,6.1,2.9,8.4c2.3,2.7,5.6,4.1,9.6,4.1c2.1,0,4.1-0.4,5.8-1.2
					c1.6-0.8,3.1-1.9,4.2-3.3l-1.5-1.2c-2.2,2.6-5,3.9-8.3,3.9c-3,0-5.6-1-7.6-3c-2-2-3-4.5-3-7.5c0-2,0.5-3.8,1.3-5.3
					c0.9-1.6,2.2-2.9,3.8-3.8c1.6-0.9,3.4-1.4,5.3-1.4c1.7,0,3.4,0.4,4.8,1.1c1.4,0.7,2.6,1.7,3.6,3l1.5-1.2
					c-1.1-1.5-2.5-2.7-4.2-3.5C85.4,18.6,83.4,18.2,81.2,18.2z"/>
			</g>
		</g>
		<g id="Stroke-369_1_">
			<g>
				<path sketch:type="MSShapeGroup" fill="#3C3C3B" d="M91.5,23l-1.9,1.5c-1-1.4-2.3-2.4-3.7-3.1c-1.4-0.7-3-1.1-4.7-1.1
					c-1.9,0-3.6,0.5-5.2,1.4c-1.6,0.9-2.8,2.2-3.7,3.7C71.4,27,71,28.7,71,30.6c0,2.9,1,5.4,3,7.3c2,2,4.5,2.9,7.5,2.9
					c3.3,0,6.1-1.3,8.3-4l1.9,1.4c-1.2,1.5-2.6,2.7-4.4,3.5c-1.8,0.8-3.7,1.2-5.9,1.2c-4.1,0-7.4-1.4-9.8-4.2c-2-2.4-3-5.2-3-8.6
					c0-3.5,1.2-6.5,3.6-8.9c2.4-2.4,5.4-3.6,9.1-3.6c2.2,0,4.2,0.4,6,1.3C89,20.2,90.4,21.4,91.5,23L91.5,23L91.5,23z"/>
			</g>
			<g>
				<path fill="#3C3C3B" d="M81.3,44.1c-4.4,0-7.9-1.5-10.4-4.5c-2.1-2.5-3.2-5.6-3.2-9.1c0-3.7,1.3-6.9,3.9-9.5
					c2.6-2.6,5.8-3.9,9.7-3.9c2.3,0,4.5,0.5,6.3,1.4c1.9,0.9,3.5,2.3,4.7,4l0.5,0.7l-3.2,2.5L89,25c-0.9-1.2-2.1-2.2-3.4-2.8
					c-1.3-0.6-2.8-1-4.3-1c-1.7,0-3.3,0.4-4.8,1.3c-1.5,0.8-2.6,2-3.4,3.4c-0.8,1.4-1.2,3-1.2,4.8c0,2.7,0.9,4.9,2.7,6.7
					c1.8,1.8,4,2.7,6.8,2.7c3.1,0,5.5-1.2,7.6-3.6l0.5-0.6l3.2,2.5l-0.5,0.7c-1.3,1.6-2.8,2.9-4.7,3.8
					C85.7,43.6,83.5,44.1,81.3,44.1z M81.2,18.8c-3.4,0-6.2,1.1-8.5,3.3c-2.3,2.3-3.4,5-3.4,8.3c0,3.1,0.9,5.8,2.8,8
					c2.2,2.6,5.2,3.9,9.1,3.9c2,0,3.9-0.4,5.5-1.2c1.4-0.6,2.5-1.5,3.5-2.6l-0.5-0.4c-2.3,2.4-5.1,3.6-8.4,3.6
					c-3.2,0-5.9-1.1-8.1-3.2c-2.1-2.1-3.2-4.8-3.2-8c0-2.1,0.5-4,1.4-5.7c1-1.7,2.3-3,4-4c1.7-1,3.6-1.5,5.7-1.5
					c1.8,0,3.6,0.4,5.1,1.1c1.3,0.6,2.5,1.5,3.4,2.7l0.5-0.4c-1-1.2-2.1-2.1-3.5-2.8C85.2,19.2,83.3,18.8,81.2,18.8z"/>
			</g>
		</g>
		<g id="Fill-370_1_">
			<g>
				<path sketch:type="MSShapeGroup" fill="#3C3C3B" d="M96.3,18.6h2.4v9l9.4-9h3.2L99.9,29.3l12.2,13.3H109L98.7,31.4v11.2h-2.4
					V18.6"/>
			</g>
			<g>
				<path fill="#3C3C3B" d="M112.6,42.8h-3.7L98.9,32v10.9H96V18.3h2.8v8.7l9.1-8.7h3.8l-11.6,11L112.6,42.8z M109.1,42.4h2.5
					l-12-13l11.1-10.6h-2.5l-9.7,9.3v-9.3h-2v23.6h2V30.8L109.1,42.4z"/>
			</g>
		</g>
		<g id="Stroke-371_1_">
			<g>
				<path sketch:type="MSShapeGroup" fill="#3C3C3B" d="M96.3,18.6h2.4v9l9.4-9h3.2L99.9,29.3l12.2,13.3H109L98.7,31.4v11.2h-2.4
					V18.6L96.3,18.6z"/>
			</g>
			<g>
				<path fill="#3C3C3B" d="M114.1,43.5h-5.5l-9.1-9.8v9.8h-4.1V17.7h4.1v7.8l8.2-7.8h5.7l-12.3,11.7L114.1,43.5z M109.4,41.7h0.8
					L98.7,29.3l10.4-9.9h-0.6L98,29.4L109.4,41.7z M97.1,41.7h0.7V19.4h-0.7V41.7z"/>
			</g>
		</g>
		<g id="Fill-372_1_">
			<g>
				<path sketch:type="MSShapeGroup" fill="#3C3C3B" d="M115.7,18.6h13.5v2.4H118v7.5h11.1v2.4H118v9.4h11.1v2.4h-13.4V18.6"/>
			</g>
			<g>
				<path fill="#3C3C3B" d="M129.3,42.8h-13.8V18.3h13.9v2.8h-11.1v7.1h11.1V31h-11.1v9h11.1V42.8z M115.9,42.4h13v-1.9h-11.1v-9.9
					h11.1v-1.9h-11.1v-8h11.1v-1.9h-13.1V42.4z"/>
			</g>
		</g>
		<g id="Stroke-373_1_">
			<g>
				<path sketch:type="MSShapeGroup" fill="#3C3C3B" d="M115.7,18.6h13.5v2.4H118v7.5h11.1v2.4H118v9.4h11.1v2.4h-13.4V18.6
					L115.7,18.6z"/>
			</g>
			<g>
				<path fill="#3C3C3B" d="M129.9,43.5h-15.1V17.7H130v4.1h-11.1v5.8h11.1v4.1h-11.1v7.7h11.1V43.5z M116.5,41.7h11.7v-0.6h-11.1
					V29.9h11.1v-0.6h-11.1V20h11.1v-0.6h-11.8V41.7z"/>
			</g>
		</g>
		<g id="Fill-374_1_">
			<g>
				<path sketch:type="MSShapeGroup" fill="#3C3C3B" d="M135.7,20.9v8.2l4.1,0c1.6,0,2.7-0.2,3.5-0.5c0.8-0.3,1.3-0.8,1.8-1.5
					c0.4-0.7,0.6-1.4,0.6-2.2c0-0.8-0.2-1.5-0.6-2.2c-0.4-0.7-1-1.1-1.7-1.4c-0.7-0.3-1.8-0.4-3.5-0.4H135.7L135.7,20.9z
					 M133.4,18.6h4.7c2.6,0,4.4,0.1,5.3,0.3c1.4,0.3,2.5,1,3.4,2.1c0.9,1.1,1.3,2.4,1.3,4c0,1.3-0.3,2.5-0.9,3.5
					c-0.6,1-1.5,1.7-2.6,2.2c-1.1,0.5-2.7,0.8-4.6,0.8l8.5,11.2h-2.9L137,31.4h-1.3v11.2h-2.4V18.6L133.4,18.6z"/>
			</g>
			<g>
				<path fill="#3C3C3B" d="M148.9,42.8h-3.5l-0.1-0.1l-8.4-11.1h-1v11.2h-2.8V18.3h4.9c2.7,0,4.4,0.1,5.4,0.3
					c1.4,0.3,2.6,1.1,3.5,2.2c0.9,1.1,1.4,2.5,1.4,4.1c0,1.3-0.3,2.5-0.9,3.6c-0.6,1-1.5,1.8-2.7,2.3c-1.1,0.5-2.5,0.7-4.3,0.8
					L148.9,42.8z M145.6,42.4h2.4l-8.5-11.2l0.4,0c1.9,0,3.5-0.3,4.6-0.8c1.1-0.5,1.9-1.2,2.5-2.2c0.6-1,0.9-2.1,0.9-3.3
					c0-1.5-0.4-2.8-1.3-3.8c-0.8-1-2-1.7-3.3-2c-0.9-0.2-2.7-0.3-5.3-0.3h-4.5v23.6h1.9V31.2h1.7L145.6,42.4z M139.8,29.3l-4.3,0
					v-8.6h4.4c1.7,0,2.8,0.1,3.5,0.4c0.7,0.3,1.3,0.8,1.8,1.5c0.4,0.7,0.7,1.5,0.7,2.3c0,0.9-0.2,1.7-0.7,2.4
					c-0.4,0.7-1.1,1.2-1.9,1.5C142.6,29.2,141.4,29.3,139.8,29.3z M135.9,28.9l3.8,0c1.5,0,2.7-0.1,3.4-0.4c0.7-0.3,1.3-0.7,1.7-1.4
					c0.4-0.6,0.6-1.4,0.6-2.1c0-0.8-0.2-1.5-0.6-2.1c-0.4-0.6-0.9-1.1-1.6-1.3c-0.7-0.3-1.8-0.4-3.4-0.4h-3.9V28.9z"/>
			</g>
		</g>
		<g id="Stroke-375_1_">
			<g>
				<path sketch:type="MSShapeGroup" fill="#3C3C3B" d="M135.7,20.9v8.2l4.1,0c1.6,0,2.7-0.2,3.5-0.5c0.8-0.3,1.3-0.8,1.8-1.5
					c0.4-0.7,0.6-1.4,0.6-2.2c0-0.8-0.2-1.5-0.6-2.2c-0.4-0.7-1-1.1-1.7-1.4c-0.7-0.3-1.8-0.4-3.5-0.4H135.7L135.7,20.9z
					 M133.4,18.6h4.7c2.6,0,4.4,0.1,5.3,0.3c1.4,0.3,2.5,1,3.4,2.1c0.9,1.1,1.3,2.4,1.3,4c0,1.3-0.3,2.5-0.9,3.5
					c-0.6,1-1.5,1.7-2.6,2.2c-1.1,0.5-2.7,0.8-4.6,0.8l8.5,11.2h-2.9L137,31.4h-1.3v11.2h-2.4V18.6L133.4,18.6z"/>
			</g>
			<g>
				<path fill="#3C3C3B" d="M150.2,43.5h-5.1l-8.5-11.2v11.2h-4.1V17.7h5.6c2.7,0,4.5,0.1,5.5,0.3c1.6,0.4,2.9,1.2,3.9,2.4
					c1,1.2,1.5,2.8,1.5,4.5c0,1.5-0.3,2.8-1,3.9c-0.7,1.1-1.7,2-3,2.6c-0.9,0.4-2,0.7-3.3,0.8L150.2,43.5z M145.9,41.7h0.7
					l-8.5-11.2l1.7,0c1.8,0,3.3-0.2,4.3-0.7c1-0.4,1.7-1.1,2.2-1.9c0.5-0.9,0.8-1.8,0.8-3c0-1.4-0.4-2.5-1.1-3.4
					c-0.8-0.9-1.7-1.5-2.9-1.8c-0.9-0.2-2.6-0.3-5.1-0.3h-3.8v22.3h0.6V30.6h2.6L145.9,41.7z M139.8,30l-4.9,0V20h5
					c1.7,0,3,0.2,3.8,0.5c0.9,0.3,1.6,0.9,2.1,1.7c0.5,0.8,0.8,1.7,0.8,2.7c0,1-0.3,1.9-0.8,2.7c-0.5,0.8-1.3,1.4-2.2,1.8
					C142.7,29.8,141.5,30,139.8,30z M136.6,28.2l3.2,0c1.8,0,2.7-0.2,3.2-0.4c0.6-0.2,1-0.6,1.4-1.1c0.3-0.5,0.5-1.1,0.5-1.8
					c0-0.6-0.2-1.2-0.5-1.7c-0.3-0.5-0.8-0.9-1.3-1.1c-0.4-0.2-1.3-0.4-3.1-0.4h-3.3V28.2z"/>
			</g>
		</g>
		<g id="Fill-376_1_">
			<g>
				<path sketch:type="MSShapeGroup" fill="#3C3C3B" d="M153.1,18.6h2.4v21.7h9.1v2.3h-11.4V18.6"/>
			</g>
			<g>
				<path fill="#3C3C3B" d="M164.8,42.8h-11.9V18.3h2.8v21.7h9.1V42.8z M153.4,42.4h11v-1.9h-9.1V18.8h-1.9V42.4z"/>
			</g>
		</g>
		<g id="Stroke-377_1_">
			<g>
				<path sketch:type="MSShapeGroup" fill="#3C3C3B" d="M153.1,18.6h2.4v21.7h9.1v2.3h-11.4V18.6L153.1,18.6z"/>
			</g>
			<g>
				<path fill="#3C3C3B" d="M165.4,43.5h-13.2V17.7h4.1v21.7h9.1V43.5z M154,41.7h9.7v-0.6h-9.1V19.4H154V41.7z"/>
			</g>
		</g>
		<g id="Fill-378_1_">
			<g>
				<path sketch:type="MSShapeGroup" fill="#3C3C3B" d="M167.9,18.6h2.4v24h-2.4V18.6L167.9,18.6z"/>
			</g>
			<g>
				<path fill="#3C3C3B" d="M170.5,42.8h-2.8V18.3h2.8V42.8z M168.2,42.4h1.9V18.8h-1.9V42.4z"/>
			</g>
		</g>
		<g id="Stroke-379_1_">
			<g>
				<path sketch:type="MSShapeGroup" fill="#3C3C3B" d="M167.9,18.6h2.4v24h-2.4V18.6L167.9,18.6z"/>
			</g>
			<g>
				<path fill="#3C3C3B" d="M171.2,43.5h-4.1V17.7h4.1V43.5z M168.8,41.7h0.6V19.4h-0.6V41.7z"/>
			</g>
		</g>
		<g id="Fill-380_1_">
			<g>
				<path sketch:type="MSShapeGroup" fill="#3C3C3B" d="M198.4,22.6l-1.8,1.8c-1.3-1.3-2.8-2.3-4.3-3c-1.6-0.7-3.1-1-4.6-1
					c-1.8,0-3.6,0.5-5.3,1.4c-1.7,0.9-3,2.2-3.9,3.8c-0.9,1.6-1.4,3.3-1.4,5c0,1.8,0.5,3.5,1.4,5.2c1,1.6,2.3,2.9,3.9,3.8
					c1.7,0.9,3.5,1.4,5.5,1.4c2.4,0,4.5-0.7,6.2-2.1c1.7-1.4,2.7-3.2,3-5.4h-7.5v-2.3h10.2c0,3.7-1.1,6.7-3.2,8.8
					c-2.1,2.2-5,3.3-8.6,3.3c-4.4,0-7.8-1.5-10.3-4.5c-2-2.3-2.9-5-2.9-8.1c0-2.3,0.6-4.4,1.7-6.4c1.1-2,2.7-3.5,4.6-4.6
					c2-1.1,4.2-1.7,6.6-1.7c2,0,3.9,0.4,5.6,1.1C195,19.8,196.7,21,198.4,22.6"/>
			</g>
			<g>
				<path fill="#3C3C3B" d="M188,43.4c-4.4,0-7.9-1.6-10.5-4.6c-2-2.4-3-5.1-3-8.2c0-2.3,0.6-4.5,1.7-6.5c1.1-2,2.7-3.6,4.7-4.7
					c2-1.1,4.2-1.7,6.7-1.7c2,0,3.9,0.4,5.7,1.1c1.8,0.7,3.5,1.9,5.2,3.6l0.2,0.2l-2.1,2.1l-0.2-0.2c-1.3-1.3-2.7-2.3-4.2-3
					c-3.4-1.5-6.7-1.3-9.7,0.4c-1.6,0.9-2.9,2.1-3.8,3.7c-0.9,1.5-1.3,3.2-1.3,4.9c0,1.8,0.5,3.5,1.4,5c0.9,1.6,2.2,2.9,3.9,3.8
					c1.6,0.9,3.5,1.4,5.4,1.4c2.4,0,4.4-0.7,6-2c1.6-1.3,2.5-3,2.9-5h-7.5v-2.8H200l0,0.2c0,3.8-1.1,6.8-3.3,9
					C194.6,42.3,191.6,43.4,188,43.4z M187.6,18.2c-2.4,0-4.6,0.5-6.5,1.6c-1.9,1.1-3.4,2.6-4.5,4.5c-1.1,1.9-1.7,4-1.7,6.2
					c0,3,1,5.7,2.9,7.9c2.5,3,5.9,4.5,10.2,4.5c3.5,0,6.3-1.1,8.4-3.2c2-2.1,3.1-4.9,3.2-8.5h-9.7v1.9h7.5l0,0.2
					c-0.3,2.3-1.3,4.1-3.1,5.6c-1.7,1.4-3.8,2.1-6.3,2.1c-2,0-3.9-0.5-5.6-1.4c-1.7-0.9-3.1-2.3-4-3.9c-1-1.7-1.5-3.4-1.5-5.3
					c0-1.8,0.5-3.5,1.4-5.1c0.9-1.6,2.3-2.9,4-3.8c3.1-1.7,6.5-1.9,10-0.4c1.5,0.7,2.9,1.6,4.2,2.9l1.5-1.5
					c-1.6-1.5-3.3-2.6-4.9-3.3C191.5,18.5,189.6,18.2,187.6,18.2z"/>
			</g>
		</g>
		<g id="Stroke-381_1_">
			<g>
				<path sketch:type="MSShapeGroup" fill="#3C3C3B" d="M198.4,22.6l-1.8,1.8c-1.3-1.3-2.8-2.3-4.3-3c-1.6-0.7-3.1-1-4.6-1
					c-1.8,0-3.6,0.5-5.3,1.4c-1.7,0.9-3,2.2-3.9,3.8c-0.9,1.6-1.4,3.3-1.4,5c0,1.8,0.5,3.5,1.4,5.2c1,1.6,2.3,2.9,3.9,3.8
					c1.7,0.9,3.5,1.4,5.5,1.4c2.4,0,4.5-0.7,6.2-2.1c1.7-1.4,2.7-3.2,3-5.4h-7.5v-2.3h10.2c0,3.7-1.1,6.7-3.2,8.8
					c-2.1,2.2-5,3.3-8.6,3.3c-4.4,0-7.8-1.5-10.3-4.5c-2-2.3-2.9-5-2.9-8.1c0-2.3,0.6-4.4,1.7-6.4c1.1-2,2.7-3.5,4.6-4.6
					c2-1.1,4.2-1.7,6.6-1.7c2,0,3.9,0.4,5.6,1.1C195,19.8,196.7,21,198.4,22.6L198.4,22.6L198.4,22.6z"/>
			</g>
			<g>
				<path fill="#3C3C3B" d="M188,44.1c-4.6,0-8.3-1.6-11-4.9c-2.1-2.5-3.1-5.4-3.1-8.6c0-2.4,0.6-4.7,1.8-6.8
					c1.2-2.1,2.9-3.7,4.9-4.9c2.1-1.2,4.4-1.8,7.1-1.8c2.1,0,4.1,0.4,6,1.2c1.9,0.8,3.7,2,5.4,3.7l0.6,0.6l-3.1,3L196,25
					c-1.2-1.2-2.6-2.2-4-2.8c-3.2-1.4-6.3-1.2-9.1,0.3c-1.5,0.8-2.7,2-3.5,3.4c-0.8,1.4-1.3,3-1.3,4.6c0,1.6,0.4,3.2,1.3,4.7
					c0.9,1.5,2.1,2.7,3.6,3.5c1.5,0.9,3.2,1.3,5.1,1.3c2.2,0,4.1-0.6,5.6-1.9c1.3-1,2.1-2.3,2.5-3.9h-7.3v-4.1h11.9l0,0.9
					c0,3.9-1.2,7.1-3.5,9.5C194.9,42.9,191.8,44.1,188,44.1z M187.6,18.8c-2.3,0-4.4,0.5-6.2,1.5c-1.8,1-3.3,2.5-4.3,4.3
					c-1,1.8-1.6,3.8-1.6,5.9c0,2.8,0.9,5.4,2.7,7.5c2.4,2.8,5.6,4.2,9.7,4.2c3.4,0,6-1,8-3c1.8-1.8,2.8-4.3,3-7.4h-8.4v0.6h7.6
					l-0.1,1c-0.3,2.4-1.4,4.4-3.3,6c-1.8,1.5-4.1,2.3-6.7,2.3c-2.1,0-4.1-0.5-5.9-1.5c-1.8-1-3.2-2.4-4.3-4.2
					c-1-1.8-1.5-3.6-1.5-5.6c0-1.9,0.5-3.8,1.5-5.5c1-1.7,2.4-3.1,4.2-4.1c3.2-1.8,6.9-2,10.6-0.4c1.4,0.6,2.7,1.5,4,2.6l0.6-0.5
					c-1.4-1.2-2.8-2.1-4.2-2.7C191.3,19.2,189.5,18.8,187.6,18.8z"/>
			</g>
		</g>
		<g id="Fill-382_1_">
			<g>
				<path sketch:type="MSShapeGroup" fill="#3C3C3B" d="M213.6,23.7l-4,8.7h8.1L213.6,23.7L213.6,23.7z M213.9,18.6l11,24h-2.5
					l-3.7-7.9h-10.1l-3.7,7.9h-2.6l11.1-24H213.9L213.9,18.6z"/>
			</g>
			<g>
				<path fill="#3C3C3B" d="M225.2,42.8h-3l-3.7-7.9h-9.9l-3.7,7.9h-3.1l11.3-24.5h0.9l0.1,0.1L225.2,42.8z M222.5,42.4h2.1
					l-10.8-23.6h-0.3l-10.9,23.6h2.1l3.7-7.9h10.4l0.1,0.1L222.5,42.4z M218,32.6h-8.7l4.4-9.4L218,32.6z M209.9,32.1h7.4l-3.7-8
					L209.9,32.1z"/>
			</g>
		</g>
		<g id="Stroke-383_1_">
			<g>
				<path sketch:type="MSShapeGroup" fill="#3C3C3B" d="M213.6,23.7l-4,8.7h8.1L213.6,23.7L213.6,23.7z M213.9,18.6l11,24h-2.5
					l-3.7-7.9h-10.1l-3.7,7.9h-2.6l11.1-24H213.9L213.9,18.6z"/>
			</g>
			<g>
				<path fill="#3C3C3B" d="M226.3,43.5h-4.5l-3.7-7.9h-9l-3.7,7.9h-4.5l11.9-25.8h1.7L226.3,43.5z M222.9,41.7h0.6L213.6,20
					l-10,21.7h0.7l3.7-7.9h11.3L222.9,41.7z M219,33.2h-10.8l5.4-11.6L219,33.2z M211,31.5h5.3l-2.7-5.7L211,31.5z"/>
			</g>
		</g>
	</g>
	<g id="Fill-384_1_">
		<g>
			<path sketch:type="MSShapeGroup" fill="#3C3C3B" d="M44.1,62.7v6.5l3.2,0c1.3,0,2.3-0.1,2.9-0.4c0.6-0.2,1.1-0.6,1.4-1.2
				c0.3-0.5,0.5-1.1,0.5-1.8c0-0.6-0.2-1.2-0.5-1.8c-0.3-0.5-0.8-0.9-1.4-1.1c-0.6-0.2-1.5-0.3-2.8-0.3H44.1L44.1,62.7z M42.2,60.8
				H46c2.2,0,3.7,0.1,4.4,0.3c1.1,0.3,2,0.8,2.7,1.7c0.7,0.8,1,1.9,1,3.2c0,1.3-0.3,2.3-1,3.2c-0.7,0.8-1.6,1.4-2.8,1.7
				c-0.9,0.2-2.5,0.3-4.9,0.3h-1.4V80h-1.9V60.8L42.2,60.8z"/>
		</g>
		<g>
			<path fill="#3C3C3B" d="M44.4,80.2h-2.5V60.6H46c2.2,0,3.7,0.1,4.5,0.3c1.1,0.3,2.1,0.9,2.8,1.7c0.7,0.9,1.1,2,1.1,3.3
				c0,1.3-0.4,2.5-1.1,3.3c-0.7,0.9-1.7,1.5-2.9,1.8c-0.9,0.2-2.5,0.3-4.9,0.3h-1.1V80.2z M42.5,79.7h1.4v-8.9h1.6
				c2.3,0,4-0.1,4.8-0.3c1.1-0.3,2-0.8,2.6-1.6c0.6-0.8,0.9-1.8,0.9-3c0-1.2-0.3-2.2-1-3c-0.7-0.8-1.5-1.3-2.5-1.6
				c-0.7-0.2-2.2-0.3-4.4-0.3h-3.5V79.7z M47.4,69.5l-3.5,0v-7h3.7c1.3,0,2.3,0.1,2.9,0.4c0.6,0.2,1.1,0.7,1.5,1.2
				c0.4,0.6,0.6,1.2,0.6,1.9c0,0.7-0.2,1.4-0.6,1.9c-0.4,0.6-0.9,1-1.6,1.3C49.7,69.4,48.7,69.5,47.4,69.5z M44.4,68.9l3,0
				c1.3,0,2.2-0.1,2.8-0.3c0.5-0.2,1-0.6,1.3-1c0.3-0.5,0.5-1,0.5-1.6c0-0.6-0.2-1.1-0.5-1.6c-0.3-0.5-0.7-0.8-1.2-1
				c-0.5-0.2-1.4-0.3-2.7-0.3h-3.1V68.9z"/>
		</g>
	</g>
	<g id="Fill-385_1_">
		<g>
			<path sketch:type="MSShapeGroup" fill="#3C3C3B" d="M66.2,64.9l-3.3,6.9h6.5L66.2,64.9L66.2,64.9z M66.5,60.8L75.4,80h-2.1
				l-3-6.3h-8.2l-3,6.3H57l9-19.1H66.5L66.5,60.8z"/>
		</g>
		<g>
			<path fill="#3C3C3B" d="M75.8,80.2h-2.7l-3-6.3h-7.9l-3,6.3h-2.7l9.3-19.7h0.8L75.8,80.2z M73.5,79.7H75l-8.7-18.6h-0.1
				l-8.8,18.6h1.5l3-6.3h8.6L73.5,79.7z M69.9,72.1h-7.4l3.7-7.9L69.9,72.1z M63.4,71.6h5.7l-2.8-6L63.4,71.6z"/>
		</g>
	</g>
	<g id="Fill-386_1_">
		<g>
			<path sketch:type="MSShapeGroup" fill="#3C3C3B" d="M84.1,78.2h2.2c2.6,0,4.5-0.2,5.5-0.5c1.4-0.5,2.6-1.3,3.4-2.5
				c0.8-1.2,1.2-2.7,1.2-4.5c0-1.8-0.4-3.4-1.3-4.7c-0.9-1.3-2.1-2.2-3.7-2.7c-1.2-0.4-3.2-0.5-5.9-0.5h-1.4V78.2L84.1,78.2z
				 M82.3,80V60.8h4c2.9,0,4.9,0.2,6.2,0.7c1.9,0.7,3.3,1.8,4.3,3.4c1,1.6,1.6,3.5,1.6,5.7c0,1.9-0.4,3.6-1.2,5.1
				c-0.8,1.5-1.9,2.5-3.2,3.2c-1.3,0.7-3.2,1-5.6,1H82.3L82.3,80z"/>
		</g>
		<g>
			<path fill="#3C3C3B" d="M88.4,80.2H82V60.6h4.2c2.9,0,5,0.2,6.3,0.7c1.9,0.7,3.4,1.8,4.5,3.5c1.1,1.6,1.6,3.6,1.6,5.9
				c0,2-0.4,3.7-1.3,5.2c-0.8,1.5-2,2.6-3.3,3.3C92.7,79.9,90.8,80.2,88.4,80.2z M82.5,79.7h5.8c2.3,0,4.2-0.3,5.4-1
				c1.3-0.7,2.3-1.7,3.1-3.1c0.8-1.4,1.2-3.1,1.2-4.9c0-2.2-0.5-4-1.5-5.6c-1-1.5-2.4-2.6-4.2-3.3c-1.3-0.4-3.3-0.7-6.1-0.7h-3.7
				V79.7z M86.3,78.4h-2.5v-16h1.6c2.8,0,4.8,0.2,6,0.6c1.7,0.5,3,1.4,3.9,2.8c0.9,1.4,1.4,3,1.4,4.9c0,1.8-0.4,3.4-1.3,4.6
				c-0.9,1.3-2,2.1-3.5,2.6C90.8,78.3,89,78.4,86.3,78.4z M84.4,77.9h1.9c2.6,0,4.4-0.2,5.4-0.5c1.4-0.4,2.5-1.3,3.2-2.4
				c0.8-1.2,1.2-2.6,1.2-4.3c0-1.8-0.4-3.3-1.3-4.6c-0.9-1.2-2.1-2.1-3.6-2.6c-1.2-0.4-3.1-0.5-5.8-0.5h-1.1V77.9z"/>
		</g>
	</g>
	<g id="Fill-387_1_">
		<g>
			<path sketch:type="MSShapeGroup" fill="#3C3C3B" d="M106,60.8h11v1.9h-9.1v6h9v1.9h-9v7.5h9V80H106V60.8"/>
		</g>
		<g>
			<path fill="#3C3C3B" d="M117.2,80.2h-11.4V60.6h11.5V63h-9.1v5.4h9v2.4h-9v7h9V80.2z M106.3,79.7h10.3v-1.3h-9v-8.1h9V69h-9v-6.5
				h9.1v-1.3h-10.4V79.7z"/>
		</g>
	</g>
	<g id="Fill-388_1_">
		<g>
			<path sketch:type="MSShapeGroup" fill="#3C3C3B" d="M126.5,62.7v6.5l3.3,0c1.3,0,2.2-0.1,2.8-0.4c0.6-0.2,1.1-0.6,1.4-1.2
				c0.3-0.5,0.5-1.1,0.5-1.8c0-0.6-0.2-1.2-0.5-1.7c-0.3-0.5-0.8-0.9-1.4-1.1c-0.6-0.2-1.5-0.3-2.8-0.3H126.5L126.5,62.7z
				 M124.6,60.8h3.8c2.1,0,3.6,0.1,4.3,0.3c1.1,0.3,2.1,0.8,2.8,1.7c0.7,0.9,1.1,1.9,1.1,3.2c0,1-0.2,2-0.7,2.7
				c-0.5,0.8-1.2,1.4-2.1,1.8c-0.9,0.4-2.2,0.6-3.8,0.6l6.9,8.9h-2.4l-6.9-8.9h-1.1V80h-1.9V60.8L124.6,60.8z"/>
		</g>
		<g>
			<path fill="#3C3C3B" d="M137.4,80.2h-3.1l-6.9-8.9h-0.7v8.9h-2.5V60.6h4.1c2.2,0,3.6,0.1,4.4,0.3c1.2,0.3,2.2,0.9,2.9,1.8
				c0.7,0.9,1.1,2,1.1,3.3c0,1.1-0.3,2.1-0.8,2.9c-0.5,0.8-1.3,1.5-2.2,1.9c-0.8,0.4-1.9,0.6-3.3,0.6L137.4,80.2z M134.6,79.7h1.7
				l-6.9-8.9l0.6,0c1.6,0,2.8-0.2,3.7-0.6c0.9-0.4,1.5-0.9,2-1.7c0.5-0.7,0.7-1.6,0.7-2.6c0-1.2-0.3-2.2-1-3
				c-0.7-0.8-1.5-1.3-2.6-1.6c-0.7-0.2-2.2-0.3-4.3-0.3h-3.5v18.6h1.4v-8.9h1.5L134.6,79.7z M129.8,69.5l-3.6,0v-7.1h3.6
				c1.4,0,2.3,0.1,2.9,0.4c0.6,0.2,1.1,0.7,1.5,1.2c0.4,0.6,0.6,1.2,0.6,1.9c0,0.7-0.2,1.4-0.6,1.9c-0.4,0.6-0.9,1-1.6,1.3
				C132.1,69.4,131.1,69.5,129.8,69.5z M126.8,68.9l3,0c1.2,0,2.1-0.1,2.7-0.3c0.6-0.2,1-0.6,1.3-1.1c0.3-0.5,0.5-1,0.5-1.6
				c0-0.6-0.2-1.1-0.5-1.6c-0.3-0.5-0.7-0.8-1.2-1c-0.5-0.2-1.4-0.3-2.7-0.3h-3.1V68.9z"/>
		</g>
	</g>
	<g id="Fill-389_1_">
		<g>
			<path sketch:type="MSShapeGroup" fill="#3C3C3B" d="M146.6,70.8v7.3h2.4c1.4,0,2.4-0.1,3.1-0.4c0.7-0.3,1.2-0.7,1.6-1.3
				c0.4-0.6,0.6-1.2,0.6-1.9c0-0.8-0.3-1.6-0.8-2.2c-0.6-0.6-1.3-1.1-2.3-1.3c-0.7-0.2-1.8-0.2-3.4-0.2H146.6L146.6,70.8z
				 M146.6,62.7v6.1h1.1c1.3,0,2.3-0.1,2.9-0.4c0.6-0.2,1.1-0.6,1.5-1.2c0.4-0.5,0.5-1.1,0.5-1.8c0-0.9-0.3-1.6-0.9-2.1
				c-0.6-0.5-1.6-0.7-2.9-0.7H146.6L146.6,62.7z M144.7,60.8h3.8c1.5,0,2.7,0.2,3.5,0.5c0.8,0.4,1.5,0.9,1.9,1.7
				c0.5,0.7,0.7,1.6,0.7,2.5c0,0.8-0.2,1.6-0.6,2.3c-0.4,0.7-1,1.3-1.8,1.7c1,0.3,1.8,0.7,2.3,1.2c0.5,0.5,1,1,1.3,1.7
				c0.3,0.6,0.4,1.3,0.4,2.1c0,1.5-0.6,2.8-1.7,3.9c-1.1,1.1-2.6,1.6-4.5,1.6h-5.3V60.8L144.7,60.8z"/>
		</g>
		<g>
			<path fill="#3C3C3B" d="M150,80.2h-5.5V60.6h4.1c1.5,0,2.8,0.2,3.6,0.6c0.9,0.4,1.6,1,2.1,1.8c0.5,0.8,0.7,1.7,0.7,2.6
				c0,0.9-0.2,1.7-0.7,2.5c-0.3,0.6-0.8,1.1-1.4,1.5c0.8,0.3,1.4,0.7,1.8,1c0.6,0.5,1,1.1,1.3,1.7c0.3,0.7,0.5,1.4,0.5,2.2
				c0,1.6-0.6,3-1.8,4.1C153.5,79.7,152,80.2,150,80.2z M145,79.7h5c1.8,0,3.3-0.5,4.3-1.5c1.1-1,1.6-2.2,1.6-3.7
				c0-0.7-0.1-1.4-0.4-2c-0.3-0.6-0.7-1.1-1.2-1.6c-0.5-0.4-1.2-0.8-2.2-1.1l-0.6-0.2l0.6-0.3c0.8-0.4,1.3-0.9,1.7-1.6
				c0.4-0.7,0.6-1.4,0.6-2.2c0-0.9-0.2-1.6-0.7-2.3c-0.4-0.7-1.1-1.2-1.8-1.6c-0.8-0.3-1.9-0.5-3.4-0.5H145V79.7z M149,78.4h-2.6
				v-7.9h1.4c1.7,0,2.8,0.1,3.5,0.2c1,0.2,1.8,0.7,2.4,1.4c0.6,0.7,0.9,1.5,0.9,2.4c0,0.7-0.2,1.4-0.6,2c-0.4,0.6-1,1.1-1.7,1.4
				C151.5,78.2,150.4,78.4,149,78.4z M146.9,77.8h2.1c1.4,0,2.3-0.1,3-0.4c0.6-0.3,1.1-0.6,1.4-1.2c0.4-0.5,0.5-1.1,0.5-1.7
				c0-0.8-0.2-1.5-0.8-2c-0.5-0.6-1.2-1-2.1-1.2c-0.6-0.1-1.7-0.2-3.3-0.2h-0.8V77.8z M147.7,69.1h-1.4v-6.7h2.5
				c1.4,0,2.4,0.3,3.1,0.8c0.7,0.6,1,1.3,1,2.3c0,0.7-0.2,1.4-0.6,1.9c-0.4,0.6-0.9,1-1.6,1.3C150.1,69,149.1,69.1,147.7,69.1z
				 M146.9,68.6h0.8c1.3,0,2.2-0.1,2.8-0.4c0.6-0.2,1-0.6,1.4-1.1c0.3-0.5,0.5-1,0.5-1.6c0-0.8-0.3-1.4-0.8-1.8
				c-0.6-0.5-1.5-0.7-2.7-0.7h-1.9V68.6z"/>
		</g>
	</g>
	<g id="Fill-390_1_">
		<g>
			<path sketch:type="MSShapeGroup" fill="#3C3C3B" d="M173.9,62.2c-1.4,0-2.8,0.4-4,1.1c-1.3,0.7-2.3,1.7-3,3
				c-0.7,1.2-1.1,2.6-1.1,4.2c0,2.3,0.8,4.2,2.4,5.8c1.6,1.6,3.5,2.3,5.7,2.3c1.5,0,2.9-0.4,4.1-1.1c1.3-0.7,2.3-1.7,3-3
				c0.7-1.2,1.1-2.6,1.1-4.2c0-1.5-0.3-2.9-1.1-4.1c-0.7-1.2-1.7-2.2-3-2.9C176.7,62.6,175.3,62.2,173.9,62.2L173.9,62.2L173.9,62.2
				z M173.8,60.4c2.9,0,5.3,1,7.3,2.9c2,1.9,2.9,4.3,2.9,7.1c0,2.8-1,5.2-2.9,7.1c-1.9,2-4.3,2.9-7.1,2.9c-2.8,0-5.2-1-7.2-2.9
				c-2-1.9-2.9-4.3-2.9-7c0-1.8,0.4-3.5,1.3-5.1c0.9-1.6,2.1-2.8,3.6-3.7C170.3,60.8,172,60.4,173.8,60.4L173.8,60.4L173.8,60.4z"/>
		</g>
		<g>
			<path fill="#3C3C3B" d="M173.9,80.7c-2.9,0-5.4-1-7.4-3c-2-2-3-4.4-3-7.2c0-1.9,0.5-3.6,1.4-5.2c0.9-1.6,2.2-2.9,3.7-3.8
				c1.6-0.9,3.3-1.4,5.1-1.4c3,0,5.5,1,7.5,3c2,2,3,4.4,3,7.3c0,2.9-1,5.3-3,7.3C179.3,79.7,176.8,80.7,173.9,80.7z M173.8,60.6
				c-1.7,0-3.4,0.4-4.8,1.3c-1.5,0.9-2.7,2.1-3.5,3.6c-0.9,1.5-1.3,3.2-1.3,5c0,2.7,1,5,2.9,6.8c1.9,1.9,4.2,2.8,7,2.8
				c2.7,0,5-1,6.9-2.8c1.9-1.9,2.8-4.2,2.8-6.9c0-2.7-1-5.1-2.8-6.9C179,61.6,176.6,60.6,173.8,60.6z M173.9,78.9
				c-2.3,0-4.3-0.8-5.9-2.4c-1.6-1.6-2.4-3.6-2.4-6c0-1.6,0.4-3,1.1-4.3c0.7-1.3,1.8-2.3,3.1-3.1c1.3-0.8,2.7-1.1,4.2-1.1
				c1.5,0,2.9,0.4,4.2,1.1c1.3,0.8,2.4,1.8,3.1,3c0.7,1.3,1.1,2.7,1.1,4.3c0,1.6-0.4,3-1.1,4.3c-0.7,1.3-1.8,2.3-3.1,3.1
				C176.8,78.5,175.4,78.9,173.9,78.9z M173.9,62.5c-1.4,0-2.7,0.4-3.9,1.1c-1.2,0.7-2.2,1.7-2.9,2.9c-0.7,1.2-1,2.6-1,4
				c0,2.2,0.8,4.1,2.3,5.6c1.5,1.5,3.4,2.3,5.5,2.3c1.4,0,2.8-0.4,4-1c1.2-0.7,2.2-1.7,2.9-2.8c0.7-1.2,1-2.6,1-4c0-1.5-0.3-2.8-1-4
				c-0.7-1.2-1.6-2.1-2.9-2.8C176.6,62.9,175.3,62.5,173.9,62.5z"/>
		</g>
	</g>
	<g id="Fill-391_1_">
		<g>
			<path sketch:type="MSShapeGroup" fill="#3C3C3B" d="M193.5,62.7v6.5l3.3,0c1.3,0,2.2-0.1,2.8-0.4c0.6-0.2,1.1-0.6,1.4-1.2
				c0.3-0.5,0.5-1.1,0.5-1.8c0-0.6-0.2-1.2-0.5-1.7c-0.3-0.5-0.8-0.9-1.4-1.1c-0.6-0.2-1.5-0.3-2.8-0.3H193.5L193.5,62.7z
				 M191.6,60.8h3.8c2.1,0,3.6,0.1,4.3,0.3c1.1,0.3,2.1,0.8,2.8,1.7c0.7,0.9,1.1,1.9,1.1,3.2c0,1-0.2,2-0.7,2.7
				c-0.5,0.8-1.2,1.4-2.1,1.8c-0.9,0.4-2.2,0.6-3.8,0.6l6.9,8.9h-2.4l-6.9-8.9h-1.1V80h-1.9V60.8L191.6,60.8z"/>
		</g>
		<g>
			<path fill="#3C3C3B" d="M204.4,80.2h-3.1l-6.9-8.9h-0.7v8.9h-2.5V60.6h4.1c2.2,0,3.6,0.1,4.4,0.3c1.2,0.3,2.2,0.9,2.9,1.8
				c0.8,0.9,1.1,2,1.1,3.3c0,1.1-0.3,2.1-0.8,2.9c-0.5,0.8-1.3,1.5-2.2,1.9c-0.8,0.4-1.9,0.6-3.3,0.6L204.4,80.2z M201.6,79.7h1.7
				l-6.9-8.9l0.6,0c1.6,0,2.8-0.2,3.7-0.6c0.9-0.4,1.5-0.9,2-1.7c0.5-0.7,0.7-1.6,0.7-2.6c0-1.2-0.3-2.2-1-3
				c-0.7-0.8-1.5-1.3-2.6-1.6c-0.7-0.2-2.2-0.3-4.3-0.3h-3.5v18.6h1.4v-8.9h1.5L201.6,79.7z M196.8,69.5l-3.6,0v-7.1h3.7
				c1.4,0,2.3,0.1,2.9,0.4c0.6,0.2,1.1,0.7,1.5,1.2c0.4,0.6,0.6,1.2,0.6,1.9c0,0.7-0.2,1.4-0.6,1.9c-0.4,0.6-0.9,1-1.6,1.3
				C199.1,69.4,198.1,69.5,196.8,69.5z M193.8,68.9l3,0c1.2,0,2.1-0.1,2.7-0.3c0.6-0.2,1-0.6,1.3-1.1c0.3-0.5,0.5-1,0.5-1.6
				c0-0.6-0.2-1.1-0.5-1.6c-0.3-0.5-0.7-0.8-1.2-1c-0.5-0.2-1.4-0.3-2.7-0.3h-3.1V68.9z"/>
		</g>
	</g>
	<g id="Fill-392_1_">
		<g>
			<path sketch:type="MSShapeGroup" fill="#3C3C3B" d="M211.7,80V60.8h0.4l12.7,14.7V60.8h1.9V80h-0.4l-12.6-14.5V80H211.7"/>
		</g>
		<g>
			<path fill="#3C3C3B" d="M227.1,80.2h-0.8l-12.2-14v14h-2.5V60.6h0.8l0.1,0.1l12.2,14.1V60.6h2.4V80.2z M226.5,79.7L226.5,79.7
				l0-18.6h-1.3v15.1L212,61.1v18.6h1.4V64.7L226.5,79.7z"/>
		</g>
	</g>
</g>
</svg>
